<svg height="512" viewBox="0 0 64 64" width="512" xmlns="http://www.w3.org/2000/svg"><g id="Graphic_Design-Computer-Office-Art-Design" data-name="Graphic Design-Computer-Office-Art-Design"><path d="m8 40h6v-28h-3a3.009 3.009 0 0 0 -3 3z"/><path d="m25.88 50-.75 6h13.74l-.75-6z"/><path d="m56 42h-48v3a3.009 3.009 0 0 0 3 3h42a3.009 3.009 0 0 0 3-3zm-4 4h-2v-2h2z"/><path d="m21 58h22v2h-22z"/><path d="m49 10a3 3 0 0 0 0-6h-26a5 5 0 0 1 0 6z"/><path d="m56 15a3.009 3.009 0 0 0 -3-3h-3v28h6z"/><path d="m16 40h32v-28h-29a1 1 0 0 1 0-2 3 3 0 1 0 -3-3zm5.572-13.866 1.732-1 1 1.732-1.732 1zm4.294 4.294-1.732-1 1-1.732 1.732 1zm7.83-3.562 1-1.732 1.732 1-1 1.732zm.17 2.562-1.732 1-1-1.732 1.732-1zm1.134-5.428v-2h2v2zm1.428-4.134-1.732 1-1-1.732 1.732-1zm-4.294-4.294 1.732 1-1 1.732-1.732-1zm-4.134-.572h2v2h-2zm0 8a1 1 0 0 1 1-1h4v2h-3v3h-2zm0 6h2v2h-2zm0 4h2v1h10v-10h-1v-2h2a1 1 0 0 1 1 1v12a1 1 0 0 1 -1 1h-12a1 1 0 0 1 -1-1zm-2.134-17.428 1 1.732-1.732 1-1-1.732zm-3.294 2.562 1.732 1-1 1.732-1.732-1zm-1.572 3.866h2v2h-2z"/></g></svg>