<?xml version="1.0" encoding="iso-8859-1"?>
<!-- Generator: Adobe Illustrator 19.0.0, SVG Export Plug-In . SVG Version: 6.00 Build 0)  -->
<svg version="1.1" id="Capa_1" xmlns="http://www.w3.org/2000/svg" xmlns:xlink="http://www.w3.org/1999/xlink" x="0px" y="0px"
	 viewBox="0 0 512 512" style="enable-background:new 0 0 512 512;" xml:space="preserve">
<g>
	<g>
		<g>
			<path d="M256,106.604c-7.909,0-14.552,4.517-18.255,10.921C122.842,120.094,78.473,179.397,74.956,237.68
				c-6.46,3.689-11.018,10.37-11.018,18.32c0,11.792,9.604,21.396,21.396,21.396c11.792,0,21.396-9.604,21.396-21.396
				c0-7.659-4.272-14.083-10.342-17.865c2.253-29.948,21.151-96.465,141.714-99.134c3.775,6.1,10.219,10.395,17.9,10.395
				c11.792,0,21.396-9.604,21.396-21.396S267.792,106.604,256,106.604z"/>
			<path d="M444,215.667l-106.667-85.333c-3.219-2.573-7.614-3.063-11.292-1.281c-3.688,1.781-6.042,5.51-6.042,9.615v138.667
				c0,4.531,2.865,8.563,7.135,10.063c1.156,0.406,2.354,0.604,3.531,0.604c3.177,0,6.26-1.427,8.333-4l39.458-49.333h58.875
				c4.531,0,8.563-2.865,10.063-7.135S447.531,218.5,444,215.667z"/>
			<path d="M469.333,21.333H42.667C19.146,21.333,0,40.469,0,64v298.667c0,23.531,19.146,42.667,42.667,42.667h149.381
				c-0.448,17.018-3.698,44.24-15.902,57.094c-4.479,4.708-9.604,6.906-16.146,6.906c-5.896,0-10.667,4.771-10.667,10.667
				c0,5.896,4.771,10.667,10.667,10.667h192c5.896,0,10.667-4.771,10.667-10.667c0-5.896-4.771-10.667-10.667-10.667
				c-6.542,0-11.667-2.188-16.125-6.896c-12.174-12.79-15.445-40.051-15.91-57.104h149.369c23.521,0,42.667-19.135,42.667-42.667V64
				C512,40.469,492.854,21.333,469.333,21.333z M256,384.063c-11.792,0-21.396-9.604-21.396-21.396s9.604-21.396,21.396-21.396
				s21.396,9.604,21.396,21.396S267.792,384.063,256,384.063z M42.667,320V64h426.667l0.018,256H42.667z"/>
		</g>
	</g>
</g>
<g>
</g>
<g>
</g>
<g>
</g>
<g>
</g>
<g>
</g>
<g>
</g>
<g>
</g>
<g>
</g>
<g>
</g>
<g>
</g>
<g>
</g>
<g>
</g>
<g>
</g>
<g>
</g>
<g>
</g>
</svg>
