<?xml version="1.0" encoding="utf-8"?>
<!-- Generator: Adobe Illustrator 23.0.3, SVG Export Plug-In . SVG Version: 6.00 Build 0)  -->
<svg version="1.1" id="Layer_3" xmlns="http://www.w3.org/2000/svg" xmlns:xlink="http://www.w3.org/1999/xlink" x="0px" y="0px"
	 viewBox="0 0 512 512" style="enable-background:new 0 0 512 512;" xml:space="preserve">
<style type="text/css">
	.st0{fill:#FFFFF8;}
	.st1{fill:#004B87;}
	.st2{fill:#F89C1E;}
</style>
<rect x="0" class="st0" width="512" height="512"/>
<path class="st1" d="M250.8,106H147.4v103.4h103.4V106z M157.7,116.3h10.3v10.3h-10.3V116.3z M157.7,137h20.7v-20.7h10.3v25.9
	c0,2.9-2.3,5.2-5.2,5.2h-25.9V137z M188.8,199.1h-25.9c-2.9,0-5.2-2.3-5.2-5.2v-36.2h10.3v31h20.7V199.1z M209.4,199.1h-10.3v-20.7
	h-20.7v-10.3h25.9c2.9,0,5.2,2.3,5.2,5.2V199.1z M209.4,147.4h-10.3v10.3h-10.3v-10.3h10.3V137h10.3V147.4z M240.5,157.7h-10.3v10.3
	h10.3v10.3h-10.3v10.3h10.3v10.3h-10.3v-10.3h-10.3v-10.3h10.3v-10.3h-10.3v-10.3h10.3v-10.3h-10.3v-20.7h-20.7v-10.3H225
	c2.9,0,5.2,2.3,5.2,5.2v25.9h10.3V157.7z"/>
<path class="st1" d="M359.4,168.1h-98.3v5.2h93.1c2.9,0,5.2,2.3,5.2,5.2v201.7c0,2.9-2.3,5.2-5.2,5.2H230.1c-2.9,0-5.2-2.3-5.2-5.2
	V219.8h-5.2v181c0,2.9,2.3,5.2,5.2,5.2h134.5c2.9,0,5.2-2.3,5.2-5.2V173.2C364.6,170.4,362.3,168.1,359.4,168.1z M297.4,400.8H287
	v-10.3h10.3V400.8z"/>
<path class="st2" d="M235.3,375h113.8V183.6h-87.9v31c0,2.9-2.3,5.2-5.2,5.2h-20.7V375z"/>
</svg>
