<?xml version="1.0" encoding="utf-8"?>
<!-- Generator: Adobe Illustrator 23.0.3, SVG Export Plug-In . SVG Version: 6.00 Build 0)  -->
<svg version="1.1" id="Layer_1" xmlns="http://www.w3.org/2000/svg" xmlns:xlink="http://www.w3.org/1999/xlink" x="0px" y="0px"
	 viewBox="0 0 512 512" style="enable-background:new 0 0 512 512;" xml:space="preserve">
<style type="text/css">
	.st0{fill:#004B87;}
	.st1{fill:#F89C1E;}
</style>
<path class="st0" d="M105.9,242.3h25.9v31h-25.9V242.3z"/>
<path class="st0" d="M168,288.9h25.9v20.7c0,5.7-4.6,10.3-10.3,10.3H168V288.9z"/>
<path class="st0" d="M206.2,238.5l96.2-42.8v124.1l-96.2-42.8V238.5z"/>
<path class="st0" d="M142.1,288.9h31v56.9h-31V288.9z"/>
<path class="st0" d="M369.7,107.8l-41.4,41.4v36.2h36.2l41.4-41.4L369.7,107.8z M351.6,169.9c-4.3,0-7.8-3.5-7.8-7.8
	c0-4.3,3.5-7.8,7.8-7.8c4.3,0,7.8,3.5,7.8,7.8C359.4,166.4,355.9,169.9,351.6,169.9z"/>
<path class="st1" d="M141.5,221.6h53c8.2,0,14.9,6.7,14.9,14.9v42.7c0,8.2-6.7,14.9-14.9,14.9h-53c-8.2,0-14.9-6.7-14.9-14.9v-42.7
	C126.6,228.3,133.3,221.6,141.5,221.6z"/>
<path class="st1" d="M354.7,309.7l-36.6,36.6l51.2,51.2l36.6-36.6L354.7,309.7z M358,362.4c-2.5-0.2-4.6-2.2-4.8-4.8l-2.5-32.3
	l10.3-0.8l2.1,27.8l28.4,2.2l-0.8,10.3L358,362.4z"/>
<path class="st1" d="M390.4,226.8c0,8.6-6.9,15.5-15.5,15.5c-8.6,0-15.5-6.9-15.5-15.5c0-8.6,6.9-15.5,15.5-15.5
	C383.5,211.3,390.4,218.2,390.4,226.8z"/>
<path class="st0" d="M369.8,247.5H380c8.6,0,15.6,7,15.6,15.6v25.8h-41.4v-25.8C354.2,254.5,361.2,247.5,369.8,247.5z"/>
<path class="st1" d="M349,232c0,5.7-4.6,10.3-10.3,10.3s-10.3-4.6-10.3-10.3c0-5.7,4.6-10.3,10.3-10.3S349,226.3,349,232z"/>
<path class="st0" d="M338.7,247.5c8.6,0,15.5,6.9,15.5,15.5v15.5h-31V263C323.2,254.4,330.1,247.5,338.7,247.5z"/>
<path class="st1" d="M301,111.5l-7.3-7.3L262,135.8c-16.1-12-38.9-8.8-50.9,7.3c-12,16.1-8.8,38.9,7.3,50.9
	c16.1,12,38.9,8.8,50.9-7.3c9.7-12.9,9.7-30.6,0-43.6L301,111.5z M240.4,190.6c-14.3,0-25.9-11.6-25.9-25.9
	c0-14.3,11.6-25.9,25.9-25.9c14.3,0,25.9,11.6,25.9,25.9C266.2,179,254.7,190.6,240.4,190.6z"/>
<path class="st0" d="M245.6,319.9h-20.7l-31,31l56.9,56.9l41.4-41.4L245.6,319.9z M221.2,357.6l20.7-20.7l7.3,7.3l-20.7,20.7
	L221.2,357.6z M244.1,380.5l-7.3-7.3l20.7-20.7l7.3,7.3L244.1,380.5z"/>
</svg>
