<?xml version="1.0" encoding="utf-8"?>
<!-- Generator: Adobe Illustrator 23.0.3, SVG Export Plug-In . SVG Version: 6.00 Build 0)  -->
<svg version="1.1" id="Layer_1" xmlns="http://www.w3.org/2000/svg" xmlns:xlink="http://www.w3.org/1999/xlink" x="0px" y="0px"
	 viewBox="0 0 512 512" style="enable-background:new 0 0 512 512;" xml:space="preserve">
<style type="text/css">
	.st0{fill:#FFFFF8;}
	.st1{fill:#F89C1E;}
	.st2{fill:#004B87;}
</style>
<rect x="0" class="st0" width="512" height="512"/>
<path class="st1" d="M256,392.6c0,4.8-1.4,9.4-4.1,13.4h138c8.9,0,16.1-7.2,16.1-16.1v-16.1H247C252.7,378.4,256,385.3,256,392.6z
	 M314.9,384.6h10.7v10.7h-10.7V384.6z"/>
<circle class="st1" cx="373.9" cy="175.6" r="10.7"/>
<path class="st2" d="M231.9,379.2H119.4c-7.4,0-13.4,6-13.4,13.4s6,13.4,13.4,13.4h112.5c7.4,0,13.4-6,13.4-13.4
	S239.3,379.2,231.9,379.2z"/>
<path class="st2" d="M178.4,255.2l-24.2,14.5v13c0,14.1-10.9,25.7-24.9,26.7l-3.7,2.8c-9,6.8-14.2,17.3-14.3,28.5
	c0,9.5,3.7,18.5,10.4,25.2l2.5,2.5h88.9c14.8,0,26.8-12,26.8-26.8V239.9c0-32.5-26.4-58.9-58.9-58.9h-5.4c-3,0-5.4-2.4-5.4-5.4
	c0-11.8-9.6-21.4-21.4-21.4v21.4c0,3-2.4,5.4-5.4,5.4c-17.7,0-32.1,14.4-32.1,32.1v80.4c0,3,2.4,5.4,5.4,5.4h10.7
	c8.9,0,16.1-7.2,16.1-16.1v-16.1c0-1.9,1-3.6,2.6-4.6l24.2-14.5v-23.8H181v26.8C181,252.5,180,254.3,178.4,255.2z M132.8,340.8
	c0,3,1,6,2.8,8.4l-8.6,6.4c-3.2-4.3-4.9-9.5-4.9-14.8c0-7.8,3.7-15.2,10-20l6.4,8.6C134.9,332.1,132.8,336.3,132.8,340.8z
	 M132.8,250.6h-10.7v-37.5h10.7V250.6z M143.5,202.4c-3,0-5.9,1.3-8,3.6l-8-7.2c4.1-4.5,9.9-7.1,16-7.1V202.4z"/>
<circle class="st1" cx="373.9" cy="250.6" r="10.7"/>
<path class="st1" d="M181,170.3c38.4,0,69.6,31.2,69.6,69.6v87.8l10.7-5.4v-87.8c-0.1-44.4-36-80.3-80.4-80.4h-8.2
	c4.1,4.5,6.7,10.1,7.8,16.1H181z"/>
<path class="st1" d="M389.9,106H250.6c-8.9,0-16.1,7.2-16.1,16.1v5.4H406v-5.4C406,113.2,398.8,106,389.9,106z"/>
<circle class="st1" cx="373.9" cy="325.6" r="10.7"/>
<path class="st2" d="M234.6,161c23.6,17.1,37.5,44.5,37.5,73.6v91.1c0,2-1.1,3.9-3,4.8l-18.5,9.2v2c0,7.7-2.4,15.2-6.8,21.4H406
	v-225H234.6V161z M373.9,154.2c11.8,0,21.4,9.6,21.4,21.4s-9.6,21.4-21.4,21.4s-21.4-9.6-21.4-21.4
	C352.4,163.8,362,154.2,373.9,154.2z M373.9,229.2c11.8,0,21.4,9.6,21.4,21.4c0,11.8-9.6,21.4-21.4,21.4s-21.4-9.6-21.4-21.4
	C352.4,238.8,362,229.2,373.9,229.2z M373.9,304.2c11.8,0,21.4,9.6,21.4,21.4s-9.6,21.4-21.4,21.4s-21.4-9.6-21.4-21.4
	C352.4,313.8,362,304.2,373.9,304.2z M288.1,256v-10.7h35.3l-6.9-6.9l7.6-7.6l16.1,16.1c2.1,2.1,2.1,5.5,0,7.6c0,0,0,0,0,0
	l-16.1,16.1l-7.6-7.6l6.9-6.9H288.1z M312.5,175.1l4.8-9.6l21.4,10.7c2.6,1.3,3.7,4.5,2.4,7.2l-10.7,21.4l-9.6-4.8l4.4-8.8
	l-40.5,16.2l-4-9.9l42.5-17L312.5,175.1z M284.8,293.9l40.5,16.2l-4.4-8.8l9.6-4.8l10.7,21.4c1.3,2.6,0.3,5.9-2.4,7.2l-21.4,10.7
	l-4.8-9.6l10.8-5.4l-42.5-17L284.8,293.9z"/>
</svg>
