<svg id="Layer_1_copy_3" height="512" viewBox="0 0 64 64" width="512" xmlns="http://www.w3.org/2000/svg" data-name="Layer 1 copy 3"><path d="m40.68 64h-18.36l2.5-8h13.36z"/><path d="m0 49h64v5h-64z"/><path d="m0 0h64v5h-64z"/><path d="m17.205 26h5.821a30.4 30.4 0 0 1 .5-4.67c-3.362 1.153-5.666 2.908-6.321 4.67z"/><path d="m23.526 32.67a30.4 30.4 0 0 1 -.5-4.67h-5.821c.655 1.762 2.959 3.517 6.321 4.67z"/><path d="m31 28h-5.973a27.3 27.3 0 0 0 .683 5.29 27.3 27.3 0 0 0 5.29.683z"/><path d="m31 41.795v-5.822a30.4 30.4 0 0 1 -4.67-.5c1.153 3.363 2.908 5.667 4.67 6.322z"/><path d="m33 12.205v5.821a30.4 30.4 0 0 1 4.67.5c-1.153-3.362-2.908-5.666-4.67-6.321z"/><path d="m33 26h5.973a27.3 27.3 0 0 0 -.683-5.29 27.3 27.3 0 0 0 -5.29-.683z"/><path d="m33 35.973v5.821c1.762-.655 3.517-2.958 4.67-6.32a30.4 30.4 0 0 1 -4.67.499z"/><path d="m31 26v-5.973a27.3 27.3 0 0 0 -5.29.683 27.3 27.3 0 0 0 -.683 5.29z"/><path d="m31 18.027v-5.822c-1.762.655-3.517 2.958-4.67 6.32a30.4 30.4 0 0 1 4.67-.498z"/><path d="m46.795 28h-5.822a30.4 30.4 0 0 1 -.5 4.67c3.363-1.153 5.667-2.908 6.322-4.67z"/><path d="m39.95 19.05a17.831 17.831 0 0 1 6.175 2.95 15.049 15.049 0 0 0 -9.125-9.125 17.831 17.831 0 0 1 2.95 6.175z"/><path d="m39.95 34.95a17.832 17.832 0 0 1 -2.95 6.175 15.049 15.049 0 0 0 9.125-9.125 17.831 17.831 0 0 1 -6.175 2.95z"/><path d="m0 7v40h64v-40zm6 39h-1a1 1 0 0 1 0-2h1a1 1 0 0 1 0 2zm4 0h-1a1 1 0 0 1 0-2h1a1 1 0 0 1 0 2zm4 0h-1a1 1 0 0 1 0-2h1a1 1 0 0 1 0 2zm18-2a17 17 0 1 1 17-17 17.019 17.019 0 0 1 -17 17zm19-34h-1a1 1 0 0 1 0-2h1a1 1 0 0 1 0 2zm4 0h-1a1 1 0 0 1 0-2h1a1 1 0 0 1 0 2zm4 0h-1a1 1 0 0 1 0-2h1a1 1 0 0 1 0 2z"/><path d="m24.05 34.95a17.831 17.831 0 0 1 -6.175-2.95 15.049 15.049 0 0 0 9.125 9.125 17.831 17.831 0 0 1 -2.95-6.175z"/><path d="m40.474 21.33a30.4 30.4 0 0 1 .5 4.67h5.821c-.655-1.762-2.959-3.517-6.321-4.67z"/><path d="m24.05 19.05a17.831 17.831 0 0 1 2.95-6.175 15.049 15.049 0 0 0 -9.125 9.125 17.832 17.832 0 0 1 6.175-2.95z"/><path d="m33 28v5.973a27.3 27.3 0 0 0 5.29-.683 27.3 27.3 0 0 0 .683-5.29z"/></svg>