<svg id="Layer_1" data-name="Layer 1" xmlns="http://www.w3.org/2000/svg" viewBox="0 0 300 127.82"><defs><style>.cls-1{fill:#be202e;}.cls-2{fill:#f6f5f6;}</style></defs><title>Solid&amp;apos;africa</title><path class="cls-1" d="M190.84,206.6h-4.6v4.76h3.44v1.2h-3.44v6.55h-1.11V205.4h5.71Z" transform="translate(-50 -138.09)"/><path class="cls-1" d="M196.18,205.13c3.11,0,3.27,4.57,3.27,7.13,0,1.82.1,7.12-3.27,7.12s-3.26-5.18-3.26-7.12C192.92,206.52,194.4,205.13,196.18,205.13Zm2.16,7.13c0-1.26.15-5.93-2.16-5.93s-2.15,5.13-2.15,5.93c0,1.56-.06,5.92,2.15,5.92C197.29,218.18,198.34,217.23,198.34,212.26Z" transform="translate(-50 -138.09)"/><path class="cls-1" d="M202.55,205.4h2.76c2.66,0,2.9,3.08,2.9,3.88a4.35,4.35,0,0,1-1.89,3.79l2.86,6h-1.34l-2.59-5.71-1.59,0v5.67h-1.11Zm2.16,6.82c1.5,0,2.39-1,2.39-3,0-1.83-.59-2.61-2.35-2.61h-1.09v5.62Z" transform="translate(-50 -138.09)"/><path class="cls-1" d="M189.18,228.25h1.23L188,242.1h-1.52l-2.36-13.85h1.21l1.92,11.64h0Z" transform="translate(-50 -138.09)"/><path class="cls-1" d="M199.12,228.25v10.12c0,2.59-1.5,3.87-2.94,3.87-1.15,0-3-.84-3-4.63v-9.36h1.11v10.12c0,2,1,2.67,1.84,2.67,1.36,0,1.83-1.3,1.83-2.84v-9.95Z" transform="translate(-50 -138.09)"/><path class="cls-1" d="M204,240.77h4.61V242H202.9V228.25H204Z" transform="translate(-50 -138.09)"/><path class="cls-1" d="M211.17,228.25h1.29l3.23,10.25h.05V228.25h1.11V242.1h-1L212.31,231l0,0V242h-1.11Z" transform="translate(-50 -138.09)"/><path class="cls-1" d="M225.92,229.45H221.5v4.88h3.17v1.2H221.5v5.24H226V242h-5.63V228.25h5.53Z" transform="translate(-50 -138.09)"/><path class="cls-1" d="M229.14,228.25h2.76c2.66,0,2.89,3.09,2.89,3.89a4.32,4.32,0,0,1-1.89,3.79l2.87,6h-1.35l-2.58-5.72-1.6,0V242h-1.1Zm2.15,6.82c1.51,0,2.39-1,2.39-3,0-1.82-.59-2.61-2.34-2.61h-1.1v5.62Z" transform="translate(-50 -138.09)"/><path class="cls-1" d="M244.28,242h-1.2l-1-4H238.9l-1,4h-1.19l3.75-14.86Zm-5.12-5.24h2.71l-1.36-5.54Z" transform="translate(-50 -138.09)"/><path class="cls-1" d="M246.52,242V228.25h2.23c1.23,0,3.34.2,3.34,3.47a3.47,3.47,0,0,1-1.4,2.95,3.79,3.79,0,0,1,1.86,3.57c0,2-1.13,3.73-3,3.73Zm1.11-7.73h1.28a2.33,2.33,0,0,0,2.07-2.58c0-2.26-1.48-2.21-2.16-2.21h-1.19Zm1.86,6.53c1,0,1.95-.74,1.95-2.46,0-1.52-.74-2.87-2.42-2.87h-1.39v5.33Z" transform="translate(-50 -138.09)"/><path class="cls-1" d="M257.18,240.77h4.61V242h-5.71V228.25h1.1Z" transform="translate(-50 -138.09)"/><path class="cls-1" d="M270.23,229.45h-4.42v4.88H269v1.2h-3.18v5.24h4.52V242H264.7V228.25h5.53Z" transform="translate(-50 -138.09)"/><path class="cls-1" d="M282.35,228.25h2.56c1.92,0,3,1.49,3,4.2,0,2.89-1.48,4.13-3.56,4.13h-.93V242h-1.11Zm2.34,7.13c1.28,0,2.15-1,2.15-2.92,0-2.15-.77-3-2.08-3h-1.3v5.93Z" transform="translate(-50 -138.09)"/><path class="cls-1" d="M297.45,242h-1.2l-.94-4h-3.24l-.94,4h-1.2l3.75-14.86Zm-5.11-5.24H295l-1.36-5.54Z" transform="translate(-50 -138.09)"/><path class="cls-1" d="M306.09,229.45h-3V242H302V229.45h-3v-1.2h7.11Z" transform="translate(-50 -138.09)"/><path class="cls-1" d="M313.38,229.45h-1.44v11.32h1.44V242h-4v-1.2h1.43V229.45H309.4v-1.2h4Z" transform="translate(-50 -138.09)"/><path class="cls-1" d="M323.4,229.45H319v4.88h3.18v1.2H319v5.24h4.52V242h-5.63V228.25h5.53Z" transform="translate(-50 -138.09)"/><path class="cls-1" d="M326.38,228.25h1.29l3.23,10.25H331V228.25h1.1V242.1h-1L327.52,231l0,0V242h-1.11Z" transform="translate(-50 -138.09)"/><path class="cls-1" d="M341.54,229.45h-3V242H337.4V229.45h-3v-1.2h7.11Z" transform="translate(-50 -138.09)"/><path class="cls-1" d="M349.16,230.73c-.65-.74-1.39-1.54-2.31-1.54a1.87,1.87,0,0,0-1.71,2.09c0,.73.1,1.37,1.54,2.5l.84.67c2,1.54,2.48,2.26,2.48,3.86,0,2.46-1.27,3.93-3.13,3.93-1.38,0-2.39-.86-3.22-2.23l.86-.88a2.87,2.87,0,0,0,2.36,1.91,2.29,2.29,0,0,0,2-2.54c0-1.1-.06-1.48-1.93-2.93l-1-.74a4.11,4.11,0,0,1-2-3.45c0-2.15,1.27-3.39,2.87-3.39a4.07,4.07,0,0,1,2.92,1.71Z" transform="translate(-50 -138.09)"/><path class="cls-1" d="M189.32,252.31h-1.45v11.32h1.45v1.2h-4v-1.2h1.43V252.31h-1.43v-1.2h4Z" transform="translate(-50 -138.09)"/><path class="cls-1" d="M193.45,251.11h1.29L198,261.36h0V251.11h1.11V265h-1.05l-3.48-11.07,0,0v10.9h-1.11Z" transform="translate(-50 -138.09)"/><path class="cls-1" d="M211.46,251.11H214c1.92,0,3,1.49,3,4.19,0,2.9-1.47,4.14-3.56,4.14h-.93v5.39h-1.1Zm2.33,7.13c1.28,0,2.16-1,2.16-2.92,0-2.15-.77-3-2.09-3h-1.3v5.93Z" transform="translate(-50 -138.09)"/><path class="cls-1" d="M225.71,251.11v10.12c0,2.59-1.51,3.86-2.94,3.86-1.15,0-3-.83-3-4.63v-9.35h1.1v10.12c0,2,1,2.66,1.85,2.66,1.36,0,1.83-1.29,1.83-2.83v-9.95Z" transform="translate(-50 -138.09)"/><path class="cls-1" d="M228.8,264.83V251.11H231c1.22,0,3.33.19,3.33,3.47a3.49,3.49,0,0,1-1.4,2.95,3.77,3.77,0,0,1,1.86,3.56c0,2-1.12,3.74-3,3.74Zm1.1-7.74h1.29a2.32,2.32,0,0,0,2.07-2.57c0-2.27-1.48-2.21-2.16-2.21h-1.2Zm1.86,6.54c1,0,2-.75,2-2.46,0-1.52-.73-2.88-2.42-2.88H229.9v5.34Z" transform="translate(-50 -138.09)"/><path class="cls-1" d="M239.46,263.63h4.61v1.2h-5.72V251.11h1.11Z" transform="translate(-50 -138.09)"/><path class="cls-1" d="M251.35,252.31H249.9v11.32h1.45v1.2h-4v-1.2h1.43V252.31h-1.43v-1.2h4Z" transform="translate(-50 -138.09)"/><path class="cls-1" d="M260.14,254.08c0-1.14-.65-2-1.55-2-2.25,0-2.4,3.92-2.4,6s.17,5.81,2.29,5.81c1.11,0,1.78-1.06,1.79-2.42h1.11c-.12,2.23-1.17,3.62-2.94,3.62-2.93,0-3.35-4.13-3.35-7s.48-7.2,3.48-7.2c1.48,0,2.59,1.33,2.68,3.23Z" transform="translate(-50 -138.09)"/><path class="cls-1" d="M274.1,257.11h3.69v-6h1.11v13.72h-1.11v-6.52H274.1v6.52H273V251.11h1.11Z" transform="translate(-50 -138.09)"/><path class="cls-1" d="M284.8,250.85c3.11,0,3.27,4.57,3.27,7.12,0,1.83.1,7.12-3.27,7.12s-3.26-5.18-3.26-7.12C281.54,252.24,283,250.85,284.8,250.85ZM287,258c0-1.26.15-5.92-2.16-5.92s-2.15,5.12-2.15,5.92c0,1.56-.06,5.92,2.15,5.92C285.91,263.89,287,262.94,287,258Z" transform="translate(-50 -138.09)"/><path class="cls-1" d="M296,253.59c-.65-.74-1.39-1.54-2.31-1.54a1.87,1.87,0,0,0-1.71,2.09c0,.72.1,1.37,1.53,2.5l.85.66c1.95,1.55,2.48,2.27,2.48,3.87,0,2.46-1.27,3.92-3.13,3.92a3.78,3.78,0,0,1-3.22-2.23l.85-.87a2.88,2.88,0,0,0,2.37,1.9,2.28,2.28,0,0,0,2-2.53c0-1.11-.06-1.49-1.94-2.93l-1-.75a4.1,4.1,0,0,1-2-3.44c0-2.16,1.27-3.39,2.87-3.39a4.1,4.1,0,0,1,2.92,1.71Z" transform="translate(-50 -138.09)"/><path class="cls-1" d="M300.08,251.11h2.55c1.92,0,3,1.49,3,4.19,0,2.9-1.47,4.14-3.56,4.14h-.93v5.39h-1.1Zm2.33,7.13c1.29,0,2.16-1,2.16-2.92,0-2.15-.77-3-2.09-3h-1.3v5.93Z" transform="translate(-50 -138.09)"/><path class="cls-1" d="M313.38,252.31h-1.44v11.32h1.44v1.2h-4v-1.2h1.43V252.31H309.4v-1.2h4Z" transform="translate(-50 -138.09)"/><path class="cls-1" d="M323.81,252.31h-3v12.52h-1.1V252.31h-3v-1.2h7.1Z" transform="translate(-50 -138.09)"/><path class="cls-1" d="M332.9,264.83h-1.2l-.95-4h-3.23l-.95,4h-1.19L329.13,250Zm-5.11-5.24h2.7l-1.36-5.54Z" transform="translate(-50 -138.09)"/><path class="cls-1" d="M336.94,263.63h4.61v1.2h-5.71V251.11h1.1Z" transform="translate(-50 -138.09)"/><path class="cls-1" d="M349.16,253.59c-.65-.74-1.39-1.54-2.31-1.54a1.87,1.87,0,0,0-1.71,2.09c0,.72.1,1.37,1.54,2.5l.84.66c2,1.55,2.48,2.27,2.48,3.87,0,2.46-1.27,3.92-3.13,3.92-1.38,0-2.39-.85-3.22-2.23l.86-.87a2.86,2.86,0,0,0,2.36,1.9,2.28,2.28,0,0,0,2-2.53c0-1.11-.06-1.49-1.93-2.93l-1-.75a4.09,4.09,0,0,1-2-3.44c0-2.16,1.27-3.39,2.87-3.39a4.07,4.07,0,0,1,2.92,1.71Z" transform="translate(-50 -138.09)"/><path class="cls-1" d="M69.26,265.6H66.87L65,261H58.52l-1.89,4.63H54.24l7.49-17Zm-10.21-6h5.4l-2.72-6.35Z" transform="translate(-50 -138.09)"/><path class="cls-1" d="M86.42,251.26H77.25v5.46h6.87v1.37H77.25v7.51H75V249.88H86.42Z" transform="translate(-50 -138.09)"/><path class="cls-1" d="M92.12,249.88h5.51c5.31,0,5.78,3.54,5.78,4.46,0,1.61-.82,3.1-3.77,4.34l5.72,6.92h-2.68l-5.17-6.55c-1.06,0-2.12,0-3.18.05v6.5H92.12Zm4.3,7.82c3,0,4.78-1.14,4.78-3.45,0-2.09-1.18-3-4.69-3H94.33v6.44Z" transform="translate(-50 -138.09)"/><path class="cls-1" d="M118.78,251.26h-2.89v13h2.89v1.37h-8v-1.37h2.86v-13h-2.86v-1.38h8Z" transform="translate(-50 -138.09)"/><path class="cls-1" d="M136.33,253.29c0-1.31-1.29-2.34-3.09-2.34-4.49,0-4.78,4.5-4.78,6.92s.32,6.66,4.57,6.66c2.21,0,3.54-1.22,3.57-2.77h2.21c-.23,2.55-2.33,4.15-5.87,4.15-5.84,0-6.69-4.74-6.69-8.08s1-8.25,7-8.25c2.95,0,5.16,1.53,5.34,3.71Z" transform="translate(-50 -138.09)"/><path class="cls-1" d="M157.75,265.6h-2.39L153.47,261H147l-1.89,4.63h-2.39l7.5-17Zm-10.21-6h5.4l-2.71-6.35Z" transform="translate(-50 -138.09)"/><line class="cls-1" x1="122.36" x2="122.36" y2="127.51"/><rect class="cls-1" x="122.06" width="0.59" height="127.51"/><path class="cls-1" d="M67.87,217.12c-.32,0-.53-.16-.64-.57-.31-1.25-.84-1.87-1.59-1.87-.53,0-.79.42-.79.93,0,1.67,2.49,3.54,5.67,5.67,3.45,2.28,6,6,6,9.86,0,7-4.24,12.52-11.19,12.52-8.07,0-11.78-5.71-11.78-14a.56.56,0,0,1,.63-.52l7.33-.37c.37,0,.58.21.63.68.22,2.08,1.12,4.31,2.39,4.31.74,0,1.22-.47,1.22-1.66s-3-3.53-6.53-6.34A13.29,13.29,0,0,1,54,215.51a11,11,0,0,1,11.14-11.06c7.11,0,11.52,5.45,11.52,11.63a.62.62,0,0,1-.64.68Z" transform="translate(-50 -138.09)"/><path class="cls-2" d="M65.38,244.72c-8.16,0-12.84-5.5-12.84-15.08a1.6,1.6,0,0,1,1.66-1.58l5.93-.3-1.05-.83-.46-.36a14.38,14.38,0,0,1-5.71-11.06,12,12,0,0,1,12.2-12.12,12.35,12.35,0,0,1,12.57,12.69A1.68,1.68,0,0,1,76,217.82l-8,.35c1.06.86,2.29,1.68,3.1,2.23,4,2.66,6.52,6.78,6.52,10.74C77.63,239.14,72.59,244.72,65.38,244.72ZM54.66,230.16c.1,4.88,1.71,12.44,10.72,12.44,6,0,10.13-4.71,10.13-11.46,0-3.21-2.18-6.74-5.57-9s-6.15-4.3-6.15-6.55a1.86,1.86,0,0,1,1.85-2c.85,0,2,.43,2.55,2.43l7.37-.33c-.16-5.14-3.74-10.21-10.45-10.21a9.94,9.94,0,0,0-10.08,10,12.28,12.28,0,0,0,4.9,9.4l.46.36c4.37,3.45,6.47,5.17,6.47,6.81,0,2.52-1.74,2.72-2.28,2.72-1.93,0-3.08-2.45-3.41-5Zm8.8.39c.33,1.33.89,2.13,1.12,2.13h.07a1.37,1.37,0,0,0,.09-.6A4.55,4.55,0,0,0,63.46,230.55Zm1.22,2.12Zm1.23-17.12Z" transform="translate(-50 -138.09)"/><path class="cls-1" d="M78.11,216.39c0-8,5.15-11.94,11-11.94s11,3.89,11,11.94v15.38c0,8-5.2,11.89-11,11.89s-11-3.84-11-11.89ZM88.3,231.61c0,.78.26,1.35.85,1.35s.85-.57.85-1.35V216.55c0-.68-.27-1.4-.85-1.4s-.85.67-.85,1.4Z" transform="translate(-50 -138.09)"/><path class="cls-2" d="M89.15,244.72c-6,0-12.1-4-12.1-12.95V216.39c0-9,6.08-13,12.1-13s12.09,4,12.09,13v15.38C101.24,240.71,95.17,244.72,89.15,244.72Zm0-39.21c-4.61,0-10,2.85-10,10.88v15.38c0,8,5.37,10.83,10,10.83s10-2.84,10-10.83V216.39C99.13,208.36,93.75,205.51,89.15,205.51Zm0,28.51c-.88,0-1.91-.63-1.91-2.41V216.55c0-1.47.77-2.46,1.91-2.46s1.9,1,1.9,2.46v15.06C91.05,233.39,90,234,89.15,234Z" transform="translate(-50 -138.09)"/><path class="cls-1" d="M121.57,232.75a.54.54,0,0,1,.58.52v9.66a.58.58,0,0,1-.58.57h-19a.64.64,0,0,1-.58-.67V205.28a.79.79,0,0,1,.69-.73h9a.54.54,0,0,1,.53.57v27.27a.35.35,0,0,0,.32.36Z" transform="translate(-50 -138.09)"/><path class="cls-2" d="M121.57,244.56h-19a1.69,1.69,0,0,1-1.64-1.73V205.28a1.85,1.85,0,0,1,1.75-1.79h9a1.59,1.59,0,0,1,1.59,1.63v26.57h8.34a1.6,1.6,0,0,1,1.64,1.58v9.66A1.64,1.64,0,0,1,121.57,244.56Zm-18.52-2.12h18v-8.63h-8.6a1.4,1.4,0,0,1-1.37-1.42V205.61h-8.07Z" transform="translate(-50 -138.09)"/><path class="cls-1" d="M124.75,243.5a.75.75,0,0,1-.69-.78V205.07a.52.52,0,0,1,.48-.52h9.07c.37,0,.64.21.64.52v37.76a.68.68,0,0,1-.64.67Z" transform="translate(-50 -138.09)"/><path class="cls-2" d="M133.61,244.56h-8.86a1.82,1.82,0,0,1-1.75-1.84V205.07a1.58,1.58,0,0,1,1.54-1.58h9.07a1.61,1.61,0,0,1,1.7,1.58v37.76A1.75,1.75,0,0,1,133.61,244.56Zm-8.49-2.12h8.07V205.61h-8.07Z" transform="translate(-50 -138.09)"/><path class="cls-1" d="M137,243.5a.58.58,0,0,1-.64-.62V205.33a.72.72,0,0,1,.69-.78h9.5c8.43,0,13.42,5.25,13.42,14.7v9.66c0,8.41-4.83,14.59-13,14.59Zm12.31-27.26a1.48,1.48,0,0,0-.48-1.2,1.94,1.94,0,0,0-.9-.31c-.22,0-.32.16-.32.47v17.24c0,.31.1.42.32.42s1.38,0,1.38-1.51Z" transform="translate(-50 -138.09)"/><path class="cls-2" d="M146.93,244.56H137a1.63,1.63,0,0,1-1.7-1.68V205.33a1.78,1.78,0,0,1,1.75-1.84h9.5c9.07,0,14.48,5.89,14.48,15.76v9.66C161,238.27,155.37,244.56,146.93,244.56Zm-9.5-2.12h9.5c7.28,0,12-5.31,12-13.53v-9.66c0-8.79-4.39-13.64-12.36-13.64h-9.13Zm10.51-8.53a1.35,1.35,0,0,1-1.38-1.47V215.2a1.39,1.39,0,0,1,1.38-1.53,2.85,2.85,0,0,1,1.52.52l0,0a2.53,2.53,0,0,1,.86,2v15.11A2.32,2.32,0,0,1,147.94,233.91Z" transform="translate(-50 -138.09)"/><path class="cls-1" d="M149.5,156.14c.69,0,18.07-1.92,9.22-3.58-1.66-1.54-7.82-.05-9.41.09a1,1,0,0,1-.12-.36c-3.86-.86-7.71,1.21-9.88-1.49,3.54.9,5.91-2,9.25-.05-.59-2.8-5.46-1.95-6.82-4.09-2.81.31-3.84-.89-6.78-.47-1.31-.62-1.81-1.93-3.72-2.05-1.31,1-3.29-.66-5.55-.48-3.23,1.66-10.93,3.68-12.94.6,4.62,1,5.82-1,8.61-2.64-4.17-2.54-9.18-.87-12.94.08-1.41,1.63,1.13,1.45,0,2.07-1.84-.49-3.75-.11-4.32-.49.61-2.07,3.58-2.18,6.15-2.62-1.75-3.42-8.8-3.09-11.72-1,1.77.74,1.46,3.59-1.21,3.1-.61,1.06-5.87.92-3.68,2.61a4.61,4.61,0,0,1,5.55,0c-4.29.29-4.92,1.36-8.63,0-5,1.93-8.2.14-14.16,1.64-2.08,4.18-8.3,4.24-13.53,3.7-1.55,1.29-7,2.07-5.51,4.16,0-.68,1.7-.67,1.85,0-2.19,2-8.53.48-9.22,3.67,3.08-1.09,3.87-.68,6.78.47a20.42,20.42,0,0,1,8.85-1.92c1.6,2.05,3.92.49,5.33,2.35,3.48-1.27,7.66.1,8.66,2.53-.4,1.24-4.68,1.91-2.44,3.63,1.55-1.36,3.75-.67,6.77-1.59A61.52,61.52,0,0,1,96,174.91c1.14,1.49,1.18,4.65,1.35,8A8.92,8.92,0,0,1,93,191.35a13.7,13.7,0,0,0,12.48-.2c-2.4-.72-4.61-2-4.66-4.27,0-.23,0-.47,0-.74a18.88,18.88,0,0,1,4.83-12.93c2.88-3.26,9.21-4.63,13.63-6.63,4.6-2.37,6.43,2.6,9.73-.23,5.63.55,4,0,1.2-1.4,4.18-.15,7.31,1.59,9.89.05,5.29-3.33,10.56-.24,10.33-2-8.66-3.86-9.36-1.58-14.46-4-6.22-.27,6.52,1.19,9.81.4a6.63,6.63,0,0,1,3.77-3.29m-72.66-3.08c-2.91,1.11-4.39,1.26-6,.1a10.15,10.15,0,0,0,6.91-3c.85-.85-.83,2.28-.9,2.91m3.09,5.37c5.27-.94,2.09-4,2.42,2.93a7.87,7.87,0,0,0-2.42-2.93m20.16-8.61c-1.2,4.2-5.83,4-11.38,3.3,1.75-2.21,9.15-2.06,11.38-3.3M87.78,161.57c1.29.47,2.7,3.65,3,5-1.66-.78-4.07-4-3-5M96.64,171c-2-2.21-7.1-6.36-4.16-9.41a11.76,11.76,0,0,1,6.27,4c0,1.51-1.39,1.92-2.44,2.59.16,1.1,1.83-1.18,2.46,0A5.63,5.63,0,0,1,96.64,171m1.33,2c-.4-.84,1-2,1.59-2.91,0,0,1.17,2-1.59,2.91M103.25,160c-.59,3.7-.77,5.74-1.73,4.7-6.14-6.13,0-4.79,1.73-4.7m-1.4,9.92a4.18,4.18,0,0,0-.39-2.68c1.16,1,.8-.11,2.23-.27-.77,1.06-.13,2.39-1.84,2.95m4.32-1.87c2.69-4.43-1.71-1.54,1.27-4.91,5.33,1.27,2.07,4.76-1.27,4.91m5.53-1.58c1.24-1.71,1.91-3,5.07-2.74-2.33,1.89-2.6,2-5.07,2.74m5.52-4.16c.11-.42.61-.52.61-1-9,4.44-7.83-3.29-10.13-3.62-.55-1.65,13,.5,14.28-.38,1.67.55-3.72,6.62-4.76,5m7.61-11c-.27-1.42,6.92-.4,7.08-1.46.72.08.52.94.63,1.54-1,0-6.68-.09-7.71-.08" transform="translate(-50 -138.09)"/><path class="cls-1" d="M103.92,174.34c-2.62.29-3.75,8-3.93,10.46a6.72,6.72,0,0,0,4.53,7.35,10.58,10.58,0,0,0,2.57-1.42c.4.27-.38.62-.3,1a4.59,4.59,0,0,0,2.26,1.16c-4.4,1.89-7.76-2-11.62-1.68-2.76.2-2.72,3-6,3a7.42,7.42,0,0,0,2.11-2.45c-3.3-.15-7.78,1.19-10.57-.26,1.3-.92,3.8-2.15,5.14-.52,8.42-.21,8.51-12.17,5.43-17.55m3.63.52c.68-1.61,1.67-3,2.26-4.65a3.54,3.54,0,0,1-2.57-1.81,4.41,4.41,0,0,0,.31,6.46M94,172.41c.36-.74-.35-1.68-.3-2.58H93.2c.19.91.08,2.08.75,2.58" transform="translate(-50 -138.09)"/></svg>