<svg id="Layer_1" data-name="Layer 1" xmlns="http://www.w3.org/2000/svg" viewBox="0 0 850.32 850.32"><defs><style>.cls-1{fill:#d40707;}.cls-2{fill:#daf007;}.cls-3{fill:#fff;}.cls-4{fill:#fffffe;}</style></defs><title>Chikenstore PNG Jaune (1)</title><rect class="cls-1" width="850.32" height="850.32"/><path class="cls-2" d="M641.1,431.32A43.89,43.89,0,0,1,625.16,437a3.7,3.7,0,0,0-2.89,2.12,23.86,23.86,0,0,1-8.17,8.62,9.87,9.87,0,0,1-4.69,1.67,5.77,5.77,0,0,1-6.37-4.62,15.56,15.56,0,0,1-.27-1.64c-.87-.2-1.12.54-1.53,1a74.16,74.16,0,0,1-13.39,11.22,28.19,28.19,0,0,1-9.35,4.2c-5,1.05-8.15-1.36-8.47-6.42a19,19,0,0,1,1.61-7.93c3.39-9,7.84-17.5,12.36-26a8.17,8.17,0,0,0,1.34-3c-.63-.62-1.05-.08-1.43.25-1.73,1.55-3.41,3.15-5.14,4.7a342.94,342.94,0,0,1-36.39,28.16,11.42,11.42,0,0,1-1.4.94c-1.2.58-1.06,1.28-.45,2.29a38.72,38.72,0,0,1,4.7,11.49c1.47,6.49.35,12.73-2,18.79a55.92,55.92,0,0,1-17.15,23.6,70.2,70.2,0,0,1-32.45,15.12c-7.29,1.29-14.36.76-21-2.84-4.94-2.68-8-6.69-8.59-12.47a13.81,13.81,0,0,1,2.29-8.88,40.24,40.24,0,0,1,8.62-9.28c6.6-5.48,13.87-10,21.15-14.49,11-6.82,22-13.57,33.07-20.37,2.43-1.5,2.54-1.15.61-3.61-5.55-7.06-12-13.3-18.31-19.65a202.74,202.74,0,0,1-16.11-17.43,62.41,62.41,0,0,1-7-10.85,26.79,26.79,0,0,1,0-24.71,49.4,49.4,0,0,1,13.74-16.74c9.1-7.38,19.41-12.58,30.38-16.56a124.6,124.6,0,0,1,30.92-7.37c7.3-.68,14.53-.51,21.52,2.13,13.92,5.26,17.27,19.33,12.24,30.32a34.54,34.54,0,0,1-10.29,12.46c-1.92,1.54-3.94,3-6,4.53.53.53,1.08.31,1.56.27,6.53-.61,13-1.41,19.59-1.75,2.91-.15,4.93-1,6.48-3.46a27,27,0,0,1,3.46-4c2-2.08,3.46-2.35,4.9-1s1.15,2.75-.67,4.78c-.54.59-1.05,1.21-1.55,1.83-.08.1,0,.29-.08.59a3.43,3.43,0,0,0,2,.12c12.3-.58,24.61-1.16,36.93-.59,2.63.12,5.26.35,7.9.54a2.72,2.72,0,0,1,2.27,1.13,2.14,2.14,0,0,1,.13,2.28,2.17,2.17,0,0,1-2.17,1.21c-1.84-.15-3.67-.34-5.5-.46-12.4-.85-24.78-.29-37.17.3-2.39.11-4.79.3-7.18.39a2.91,2.91,0,0,0-2.53,1.48c-11.63,17.36-22.23,35.3-30.82,54.38a46.61,46.61,0,0,0-2.55,7,14.78,14.78,0,0,0-.39,1.87c-.26,2.23.2,2.72,2.5,2.54a14.18,14.18,0,0,0,5.65-1.86A59.79,59.79,0,0,0,599.06,441c1.52-1.64,2.93-3.39,4.35-5.12a10.78,10.78,0,0,0,2.83-5.67,7.83,7.83,0,0,1,2.7-4.7,15.4,15.4,0,0,1,10.38-4.35c4.22-.15,6.89,2.55,7,6.79a32,32,0,0,1-.56,4.42,2.13,2.13,0,0,0,2,.07,37.72,37.72,0,0,0,9.64-3.54c1.87-1,2-1.17.92-2.85a6.64,6.64,0,0,1-.17-6.45,5.84,5.84,0,0,1,6.27-3.42c2.29.39,4,2.44,4.23,5.18a6.63,6.63,0,0,1-1.52,4.91c-.48.61-.81,1.11-.22,1.88,1.76,2.28,1.14,4.49-.36,6.62-.74,1.05-1.52,2.06-2.28,3.09a12,12,0,0,0-2.25,4.73c-.47,2.2.53,3.57,2.77,3.85a9.4,9.4,0,0,0,5.14-.84,28.83,28.83,0,0,0,13.35-12c.8-1.39,1.4-2.73,3.43-2,.76.27,1-.66,1.32-1.13a19.21,19.21,0,0,1,6.31-5.79c2.34-1.27,4.31-1.15,5.46.32s.8,3.47-1,5.37a14.49,14.49,0,0,1-7.41,4.19,2.82,2.82,0,0,0-2.33,2.34,10.13,10.13,0,0,0-.34,4.27c.29,1.78.9,2.32,2.69,2.43a19.25,19.25,0,0,0,7.52-1.24,50.3,50.3,0,0,0,16.64-9.3c.47-.4.85-1.09,1.52-.26s0,1.16-.45,1.59a14.66,14.66,0,0,1-1.3,1.06,86.21,86.21,0,0,1-18.42,10.17,15.28,15.28,0,0,1-5.34,1.26c-3.75,0-5.78-1.59-6.48-5.31-.17-.86-.24-1.74-.35-2.63-.83-.19-1,.59-1.4,1a38,38,0,0,1-14.26,10.29,17.13,17.13,0,0,1-3.92,1.08,7.68,7.68,0,0,1-8.89-9.22,17.71,17.71,0,0,1,3.78-7.93,9.29,9.29,0,0,0,1.65-2.33c.29-.21.68-.48.29-.83S641.35,431.08,641.1,431.32Zm-38.73-42.51c-1.29,0-2-.05-2.72,0-6.76.58-13.52,1.22-20.26,2.12a86.91,86.91,0,0,0-11.55,2,2.21,2.21,0,0,1-2.75-1.33,2.34,2.34,0,0,1,1.11-2.85c.2-.13.42-.22.62-.35,5.12-3.28,10.41-6.29,15.1-10.18a36.32,36.32,0,0,0,8.63-9.57,18.37,18.37,0,0,0,2.69-8.6c.27-7.63-4.26-13.61-12-15.86a41.19,41.19,0,0,0-14.49-1.34A109.6,109.6,0,0,0,541.18,348c-11.1,3.53-21.68,8.15-31.17,15-6,4.35-11.3,9.4-14.76,16.12-3.32,6.48-3.67,12.95-.2,19.51a58.41,58.41,0,0,0,6.05,9.2c5.1,6.39,11,12.05,16.71,17.85,6.4,6.49,12.93,12.86,18.4,20.2,1.34,1.8,1.36,1.8,3.33.47q12.33-8.31,24-17.61a256.81,256.81,0,0,0,32.15-30.5A95.21,95.21,0,0,0,602.37,388.81ZM486.88,515.29c1.67-.16,3.35-.22,5-.48a61.61,61.61,0,0,0,26-11A51.13,51.13,0,0,0,535.44,483a35.63,35.63,0,0,0,3.15-11c.58-5.56-1.3-10.54-4-15.29-.87-1.56-.9-1.55-2.5-.54Q515.47,466.56,498.82,477c-7.31,4.59-14.6,9.21-21.15,14.87a28,28,0,0,0-6.58,7.55c-2.56,4.7-1.53,9.07,2.86,12.16a16.32,16.32,0,0,0,2.7,1.53A22.86,22.86,0,0,0,486.88,515.29Zm128.49-81.8a2.58,2.58,0,0,0,1.6.33c4.37.06,5.61-1.17,5.62-5.57,0-.24,0-.48,0-.72a2.61,2.61,0,0,0-2.32-2.61c-2.75-.57-7.39,1.52-9,4.21,1.51-.7,2.91-.94,4.07.3S616.1,432,615.37,433.49Zm3.1,4.35c-1.52-.14-2.71-.22-3.88-.37-3.67-.44-4.11-.19-5.41,3.33-.11.3-.2.61-.28.91-.59,2.22.17,3.05,2.38,2.54a6.27,6.27,0,0,0,2-.81A16.7,16.7,0,0,0,618.47,437.84ZM677,427.47a13.46,13.46,0,0,0-5.94,5.54A9.85,9.85,0,0,0,677,427.47Zm-33.7-6.4c-.79.43-.76,1.2-.63,2,.06.39.27.94.7.73a1.74,1.74,0,0,0,.78-2A.73.73,0,0,0,643.29,421.07Zm-57.92-5.74.34.32a3.87,3.87,0,0,0,.37-.56s-.19-.19-.29-.29Z"/><path class="cls-2" d="M318.54,445.43a10.49,10.49,0,0,0,6-1.56,32.56,32.56,0,0,0,11.25-10.23,13.62,13.62,0,0,1,1.12-1.55,1.68,1.68,0,0,1,2.39-.16,1.7,1.7,0,0,1,.71,2.28,5.91,5.91,0,0,1-.62,1,55.65,55.65,0,0,1-13,12.71,18.23,18.23,0,0,1-7.24,3c-.32.06-.63.12-1,.15-2.22.16-4.41.07-5.81-2s-.53-3.84.4-5.66c.62-1.21,1.33-2.38,2-3.56a4.77,4.77,0,0,0,1-2.32,4,4,0,0,0-3,1.24A38.78,38.78,0,0,0,303.57,450c-.87,1.51-1.48,1.85-2.84,1.6A1.9,1.9,0,0,1,299,449a18.26,18.26,0,0,1,1.07-2.92c3.22-7.34,7.23-14.25,11.11-21.24a8,8,0,0,0,1.44-3.16c-1.17,0-1.57.86-2.08,1.43-4,4.48-7.95,9-11.94,13.47-17.43,19.52-35.43,38.48-54.69,56.22a273.35,273.35,0,0,1-32.1,25.87c-7.44,5-15.11,9.61-23.69,12.45-5,1.66-10.16,2.85-15.53,2.25-9.83-1.1-16.18-6.69-19.82-15.58-2.23-5.45-2.45-11.21-2.07-17a82.81,82.81,0,0,1,4.69-21.25c4.31-12.7,10.4-24.57,17.24-36.05,10.68-17.92,23.26-34.45,36.9-50.19a318.61,318.61,0,0,1,35.79-35.73c7.6-6.39,15.35-12.58,24.26-17.09a93.47,93.47,0,0,1,18.61-7.59A27.82,27.82,0,0,1,299.8,332c7.88,1.28,12.7,5.95,15,13.4,1.73,5.62,1.59,11.36.79,17.11a75.89,75.89,0,0,1-8.36,25.12c-.29.56-.84,1.07-.64,1.75.44,1.61-.44,2.57-1.52,3.48s-2.26,2.05-3.44,3-2.14.91-3,.09a2.25,2.25,0,0,1-.33-3c.37-.61.87-1.14,1.28-1.73,7.69-11.16,12-23.43,12-37.06a26.84,26.84,0,0,0-1-7.34c-2.41-8.65-8.92-11.54-16.63-10.62A39.48,39.48,0,0,0,277,342.68a252.44,252.44,0,0,0-33.38,25.77C215.3,394.6,191.13,424.14,172,457.71a142.21,142.21,0,0,0-13.84,31.8,57.33,57.33,0,0,0-2.55,18,26.46,26.46,0,0,0,3,12A17.59,17.59,0,0,0,174,529a35.18,35.18,0,0,0,14.5-2.75c8.65-3.32,16.46-8.13,24-13.45,14.54-10.28,27.64-22.25,40.39-34.63,19.93-19.35,38.51-40,56.75-60.88q10-11.49,20-23a3.83,3.83,0,0,0,.75-.93c1.54-3.92,4.78-6.64,7.07-10a10.74,10.74,0,0,1,3.27-3.13,4,4,0,0,1,5.1.33,4.2,4.2,0,0,1,1,4.83,8.92,8.92,0,0,1-2.09,2.9,30.57,30.57,0,0,1-8.37,5.94,9.31,9.31,0,0,0-3.52,3.08,365.92,365.92,0,0,0-21.61,34.83,23.73,23.73,0,0,0-1.05,2.15.55.55,0,0,0,.16.65.53.53,0,0,0,.65,0c.53-.35,1-.75,1.54-1.13a6.72,6.72,0,0,1,4-1.48c3.79,0,6.07,2.83,5.2,6.53a13.65,13.65,0,0,1-1.66,4C319.61,443.6,319.18,444.35,318.54,445.43Zm-5.75-24.06.17-.17a2.3,2.3,0,0,0-.32-.15s-.11.1-.16.15Zm-3,14c0,.05-.16.12-.15.16a2.3,2.3,0,0,0,.15.32c.05,0,.16-.12.15-.16A2.3,2.3,0,0,0,309.84,435.36Z"/><path class="cls-2" d="M367.92,441.33a93.8,93.8,0,0,1-11.33,7.61,12.32,12.32,0,0,1-5.88,1.81c-4,0-6.23-2.55-5.81-6.51a18.93,18.93,0,0,1,2-6.12,60.78,60.78,0,0,1,4.31-7.19c1.1-1.67,2.66-2,4.1-1.12s1.66,2.28.75,4c-1.19,2.26-2.49,4.47-3.72,6.71a17.11,17.11,0,0,0-1,2.17c-.33.86-1.11,1.86-.35,2.64s1.85.22,2.74,0a22.52,22.52,0,0,0,6.27-3,85.9,85.9,0,0,0,12.32-9.88,18.94,18.94,0,0,0,3.46-4.76c8.29-15,17.09-29.64,27.4-43.34a34.56,34.56,0,0,1,5.09-5.72c1.57-1.34,3.24-2.52,5.4-1.3s2.16,3.2,1.93,5.26a18.41,18.41,0,0,1-2,6.12,124,124,0,0,1-11,17.4q-6.35,8.75-13.36,17a3.68,3.68,0,0,0-1.06,1.67c.75.42,1.45,0,2.1,0a3.75,3.75,0,0,1,4.16,3.67c.25,2.92-2.55,7.25-5.33,8.21a1.89,1.89,0,0,1-2.52-.73,2,2,0,0,1,.46-2.6c2.06-2.08,2.05-2.09,2.56-3.7a5.07,5.07,0,0,0-2.82,1.19c-1.36,1-2.6,2.13-4,3.11a4.27,4.27,0,0,0-1.66,5,17.07,17.07,0,0,0,2.09,5.57,5.38,5.38,0,0,0,5.31,2.56,17.07,17.07,0,0,0,8.78-3.51,36.63,36.63,0,0,0,8.76-9.77c.69-1.06,1.15-2.28,2.7-2.46.67-.08.87-.89,1.23-1.4a20.43,20.43,0,0,1,5.6-5.52,14.07,14.07,0,0,1,2.54-1.35,4.62,4.62,0,0,1,5.43,1.28,4.67,4.67,0,0,1-.12,5.6,12.43,12.43,0,0,1-3.46,3.28,15.17,15.17,0,0,1-5,2.26,2.59,2.59,0,0,0-2.14,2.21c-1,4.11.17,5.45,4.27,4.7,7.65-1.4,14.26-5,20.29-9.8,1.52-1.21,3.24-2.14,4.45-3.79.85-1.16,2.62-1,3.67-.06a2.71,2.71,0,0,1,.6,3.47c-.15.28-.4.51-.56.78-.28.44-.89.94-.33,1.42s1-.14,1.44-.45a15.87,15.87,0,0,1,3.92-2.28c1.57-.54,3.16-.68,4.48.63,1.13,1.11,1.26,2.81.34,4.68-.42.86-1,1.65-1.45,2.48a7.7,7.7,0,0,0-1.31,2.45,4.48,4.48,0,0,0,2.71-.17c6.21-1.61,11.63-4.8,16.85-8.4.52-.37,1-.81,1.54-1.14a1.85,1.85,0,0,1,2.55.38,1.94,1.94,0,0,1-.2,2.79,3.47,3.47,0,0,1-.57.44c-5.32,3.4-10.58,6.9-16.42,9.38a18.27,18.27,0,0,1-6.68,1.75,7.43,7.43,0,0,1-3.06-.46,3.77,3.77,0,0,1-2.59-4.33c.05-.55.38-1.07.12-1.63a2,2,0,0,0-.14-.22c-1-.06-1.56.7-2.26,1.19-1.64,1.14-3.24,2.33-4.88,3.48a4.59,4.59,0,0,1-2.91.92A2.72,2.72,0,0,1,434,443a25.7,25.7,0,0,1,.34-2.6c0-.19.2-.47.12-.57-.23-.3-.49-.08-.72.09a111.8,111.8,0,0,1-11.23,5.86,23.6,23.6,0,0,1-7.07,2.13c-4.91.4-7.49-1.55-8.43-6.37-.09-.46-.26-.9-.4-1.42-1.06.37-1.5,1.28-2.11,2a45.54,45.54,0,0,1-9.17,8,16.67,16.67,0,0,1-4.06,2c-5.85,1.88-11-.54-13.44-6.33-.48-1.14-.8-2.36-1.29-3.83a28.9,28.9,0,0,0-3,5.06,5.4,5.4,0,0,1-1.8,2.18,2.83,2.83,0,0,1-3.35.11,2.56,2.56,0,0,1-1.18-2.9c.38-1.54.9-3.05,1.36-4.57.12-.23.39-.47.07-.71S368.14,441.19,367.92,441.33Zm20.85-23.75c.62.17.82-.36,1.09-.7,1.51-1.86,3-3.72,4.5-5.61a150.32,150.32,0,0,0,15-22.49,19.33,19.33,0,0,0,2-5.13,54.66,54.66,0,0,0-5.23,6.45c-6.15,8.47-11.47,17.48-16.91,26.41a1.7,1.7,0,0,0-.39,1.1c-.38,0-.46.3-.51.6,0,0,.24.15.28.11A.52.52,0,0,0,388.77,417.58Zm55.68,18.07c.13-.17.1-.31-.09-.38-.48-.2-.62.2-.82.48s-.1.31.08.38C444.11,436.34,444.23,435.92,444.45,435.65Zm2.69,4.48.18-.15-.16-.17L447,440Z"/><path class="cls-2" d="M355.21,426c.18-2.46,1.67-4.2,3.33-5.82a1.34,1.34,0,0,1,1.76,0,3.51,3.51,0,0,1,1.23,4.41,29.64,29.64,0,0,1-2.24,3.64c-1.09,1.58-2.3,1.56-3.35,0A4.13,4.13,0,0,1,355.21,426Z"/><path class="cls-3" d="M585.37,415.33l.42-.53c.1.1.31.24.29.29a3.87,3.87,0,0,1-.37.56Z"/><path class="cls-3" d="M312.79,421.37l-.31-.17c0-.05.12-.16.16-.15a2.3,2.3,0,0,1,.32.15Z"/><path class="cls-3" d="M309.84,435.36a2.3,2.3,0,0,1,.15.32s-.1.11-.15.16a2.3,2.3,0,0,1-.15-.32S309.79,435.41,309.84,435.36Z"/><path class="cls-4" d="M388.77,417.58a.52.52,0,0,1-.19.74s-.29-.09-.28-.11c.05-.3.13-.58.51-.6Z"/><path class="cls-3" d="M433.69,439.91c.23-.17.49-.39.72-.09.08.1-.07.38-.12.57Z"/><path class="cls-3" d="M447.14,440.13,447,440l.18-.23.16.17Z"/><path class="cls-3" d="M367.92,441.33c.22-.14.4-.46.71-.22s.05.48-.07.71Z"/></svg>