<svg id="Layer_1" data-name="Layer 1" xmlns="http://www.w3.org/2000/svg" viewBox="0 0 400 400"><defs><style>.cls-1{fill:#708238;}.cls-2,.cls-3{fill:none;stroke:#708238;stroke-linecap:round;}.cls-2{stroke-miterlimit:10;}.cls-3{stroke-linejoin:round;}</style></defs><title>Logo2_Mike_Stenbock_Gemura_Kitchen_by_Solid&amp;apos;Africa</title><path d="M86.07,238.17,83,242.32H82.6l-3-4.17v6.95h-1.8v-9.56h2.07l3,4.11,3-4.11h2.06v9.56h-1.8Z"/><path d="M103.13,235.6l-4.24,4.57,4.6,4.82v.11h-2.23l-4-4.23v4.23h-1.8v-9.56h1.8v4.05l3.63-4.05h2.24Z"/><path d="M111.54,245.1h-7.16v-9.56h7.16v1.75h-5.37v2.2h5.18v1.68h-5.18v2.16h5.37Z"/><path d="M122.8,237.89a2.76,2.76,0,0,0-2.27-1.06c-1.34,0-2,.56-2,1.27s1,1.06,2.13,1.2c2,.25,3.85.76,3.85,3,0,2.13-1.89,3-4,3-2,0-3.45-.6-4.16-2.35l1.5-.78a2.73,2.73,0,0,0,2.69,1.52c1.13,0,2.2-.4,2.2-1.44s-.94-1.26-2.21-1.4c-2-.23-3.76-.75-3.76-2.9,0-2,1.94-2.77,3.7-2.78a3.87,3.87,0,0,1,3.76,1.89Z"/><path d="M128.4,237.18h-3v-1.64h7.87v1.64h-3v7.92H128.4Z"/><path d="M141.47,245.1h-7.16v-9.56h7.16v1.75H136.1v2.2h5.17v1.68H136.1v2.16h5.37Z"/><path d="M149.43,235.53h1.81v9.57h-1.12v0l-5-6.46v6.44h-1.8v-9.56h1.46l4.68,5.93Z"/><path d="M160.67,238.31a2,2,0,0,1-1.24,1.85,2.32,2.32,0,0,1,1.52,2.13c0,2.13-1.59,2.81-3.57,2.81h-4.54v-9.56h4.54C159.26,235.54,160.67,236.39,160.67,238.31Zm-6,1.07h2.76c1.13,0,1.5-.48,1.5-1s-.36-1.18-1.5-1.18h-2.76Zm0,4h2.76c.73,0,1.79-.24,1.79-1.14s-1.06-1.31-1.79-1.31h-2.76Z"/><path d="M181.54,243.89a5,5,0,0,1-3.63,1.42,4.7,4.7,0,0,1-5.07-4.93,4.81,4.81,0,0,1,5.07-5,5,5,0,0,1,3.51,1.46L180.21,238a3.28,3.28,0,0,0-2.3-.9,3.14,3.14,0,0,0-3.3,3.32,3.07,3.07,0,0,0,3.3,3.23,3.51,3.51,0,0,0,2.4-1Z"/><path d="M190.25,235.6,186,240.17l4.6,4.82v.11h-2.23l-4-4.23v4.23h-1.8v-9.56h1.8v4.05l3.64-4.05h2.24Z"/><path d="M201.39,237.91a3.66,3.66,0,0,0-2.43-1,3.27,3.27,0,0,0-3.3,3.52,3,3,0,0,0,3.3,3.2,3.12,3.12,0,0,0,2.15-.77v-1.69h-2.44V239.6h4.09v4a4.75,4.75,0,0,1-3.8,1.72c-3.6,0-5.06-2.36-5.06-4.88A4.86,4.86,0,0,1,199,235.3a5.06,5.06,0,0,1,3.55,1.46Z"/><path d="M211.38,245.1h-7.16v-9.56h7.16v1.75H206v2.2h5.18v1.68H206v2.16h5.37Z"/><path d="M221.11,238.17,218,242.32h-.35l-3-4.17v6.95h-1.8v-9.56h2.08l3,4.11,3-4.11h2.06v9.56h-1.8Z"/><path d="M233,235.45v5.47c0,2.83-1.74,4.28-4.14,4.28a4,4,0,0,1-4.25-4.28v-5.47h1.79v5.47a2.35,2.35,0,0,0,2.48,2.64c1.48,0,2.33-1,2.33-2.64v-5.47Z"/><path d="M243.25,245.11h-2.14l-2.79-3.2h-1.73v3.2h-1.81v-9.57h4.55a3.17,3.17,0,0,1,3.44,3.17,2.83,2.83,0,0,1-2.42,3l2.9,3.27Zm-6.66-7.88v3.06h2.74a1.53,1.53,0,1,0,0-3.06Z"/><path d="M250.78,243.3h-5l-.81,1.8h-2l4.29-9.56h2l4.29,9.56h-2Zm-2.5-5.75-1.77,4.07h3.55Z"/><path d="M265.86,235.6l-4.24,4.57,4.6,4.82v.11H264l-4-4.23v4.23h-1.8v-9.56H260v4.05l3.63-4.05h2.24Z"/><path d="M275.94,237.18h-3v-1.64h7.87v1.64h-3v7.92h-1.8Z"/><path d="M290.3,243.89a5.06,5.06,0,0,1-3.64,1.42,4.69,4.69,0,0,1-5.06-4.93,4.81,4.81,0,0,1,5.06-5,4.92,4.92,0,0,1,3.51,1.46L289,238a3.3,3.3,0,0,0-2.31-.9,3.14,3.14,0,0,0-3.29,3.32,3.07,3.07,0,0,0,3.29,3.23,3.52,3.52,0,0,0,2.41-1Z"/><path d="M297.83,245.1v-3.86h-4.7v3.86h-1.8v-9.56h1.8v4h4.7v-4h1.79v9.56Z"/><path d="M308.45,245.1h-7.16v-9.56h7.16v1.75h-5.37v2.2h5.18v1.68h-5.18v2.16h5.37Z"/><path d="M316.42,235.53h1.8v9.57H317.1v0l-5-6.46v6.44h-1.81v-9.56h1.46l4.69,5.93Z"/><polygon class="cls-1" points="140.31 151.12 140.31 166.55 152.57 167.51 152.57 153.54 140.31 151.12"/><polygon class="cls-1" points="166.54 156.94 166.54 168.12 173.95 168.28 173.95 158.77 166.54 156.94"/><polygon class="cls-1" points="184.15 161.32 184.15 167.51 193.75 166.66 193.75 163.26 184.15 161.32"/><path class="cls-1" d="M163.26,154.45v13.06s1,1.34,3.28.61v-13Z"/><polyline class="cls-2" points="222.57 166.32 200.59 166.32 154.67 170.63 116.09 179.68"/><path class="cls-1" d="M212.48,201.45a3.12,3.12,0,0,1,1.67-1.7c.3,0,8-1,4.07-1.85-.73-.8-3.46,0-4.16,0a.78.78,0,0,1-.05-.18c-1.71-.45-3.41.62-4.37-.77,1.56.46,2.61-1.05,4.09,0-.26-1.45-2.42-1-3-2.12-1.24.16-1.7-.46-3-.24-.58-.32-.8-1-1.64-1.06-.58.5-1.46-.34-2.46-.25-1.43.86-4.83,1.91-5.72.31,2,.51,2.58-.5,3.81-1.36-1.84-1.32-4.07-.45-5.73,0-.62.84.51.75,0,1.07-.82-.26-1.66-.06-1.91-.26.27-1.06,1.58-1.12,2.72-1.35-.78-1.77-3.89-1.6-5.19-.5.79.39.65,1.86-.53,1.61-.27.55-2.6.47-1.63,1.35a1.81,1.81,0,0,1,2.46,0c-1.9.15-2.18.7-3.82,0-2.23,1-3.63.08-6.27.85-.91,2.16-3.67,2.19-6,1.91-.69.67-3.09,1.07-2.44,2.16,0-.35.75-.35.82,0-1,1-3.77.25-4.08,1.9,1.36-.56,1.72-.35,3,.25a7.93,7.93,0,0,1,3.92-1c.71,1.06,1.73.25,2.36,1.22a2.9,2.9,0,0,1,3.82,1.31c-.17.64-2.07,1-1.07,1.87.68-.7,1.65-.34,3-.82a31.79,31.79,0,0,1,4.84,4.92l-.61-.06c1.36,2.78,1.32,9-2.41,9.08-.59-.84-1.7-.21-2.27.27,1.23.75,3.21.06,4.68.13a3.79,3.79,0,0,1-.94,1.27c.94,0,1.27-.58,1.71-1a5.22,5.22,0,0,0,3.08.08,3.25,3.25,0,0,0,3,.28,1.92,1.92,0,0,1-1-.6c0-.21.31-.39.13-.53a4.39,4.39,0,0,1-1.13.73,2.49,2.49,0,0,1-.28-.15,6.69,6.69,0,0,0,.69-.37c-1.06-.37-2-1-2.07-2.21v-.38a10.63,10.63,0,0,1,2.14-6.69c1.27-1.69,4.07-2.4,6-3.43,2-1.22,2.85,1.34,4.31-.12,2.49.29,1.77,0,.53-.72,1.85-.08,3.23.82,4.37,0,2.34-1.72,4.68-.12,4.57-1-3.62-1.89-4.09-.94-6-1.89A14.84,14.84,0,0,0,212.48,201.45ZM182,198.15c-1.29.58-1.95.66-2.66.06a4.15,4.15,0,0,0,3.05-1.56C182.78,196.21,182,197.83,182,198.15Zm1.36,2.78a2.25,2.25,0,0,0,1.25-.58,5.87,5.87,0,0,0-.18,2.1A4,4,0,0,0,183.37,200.93Zm8,7.16.13-.27c.17-.3.44-.62.57-.89a1.06,1.06,0,0,1-.7,1.51A.53.53,0,0,1,191.35,208.09Zm.17-1.69a1.72,1.72,0,0,1-.47-.46c.24-.15.51-.33.66,0Zm1.55.47a2.51,2.51,0,0,0-.17-1.38c.51.52.35-.06,1-.14C193.54,205.9,193.82,206.59,193.07,206.87Zm.62-5.13c-.26,1.92-.34,3-.77,2.43C190.21,201,192.91,201.7,193.69,201.74Zm-1.4-5.26c-.53,2.17-2.58,2.09-5,1.7C188,197,191.3,197.12,192.29,196.48Zm-5.45,6.08c.58.24,1.2,1.89,1.32,2.59C187.42,204.75,186.36,203.08,186.84,202.56Zm2.08,0a5.14,5.14,0,0,1,2.78,2,1.33,1.33,0,0,1-.79,1.14l-.07-.11a3,3,0,0,0-.2.29l0,0h0a2.29,2.29,0,0,0-.31.91C189.29,205.66,187.81,203.89,188.92,202.55Zm6.06,3.36c1.19-2.3-.76-.8.56-2.54C197.9,204,196.46,205.83,195,205.91Zm2.45-.82c.54-.89.84-1.53,2.24-1.42A4.3,4.3,0,0,1,197.43,205.09Zm2.44-2.16c0-.21.27-.26.26-.53-4,2.29-3.46-1.71-4.47-1.87-.25-.86,5.75.25,6.31-.2C202.71,200.61,200.33,203.75,199.87,202.93Zm3.36-5.69c-.12-.74,3.06-.21,3.13-.76.32,0,.24.48.28.8C206.19,197.28,203.69,197.23,203.23,197.24Z"/><path class="cls-1" d="M169.83,240.32a2.93,2.93,0,1,1-2.93-2.93A2.93,2.93,0,0,1,169.83,240.32Z"/><path class="cls-1" d="M166.9,235.53a4.8,4.8,0,1,0,4.79,4.79A4.79,4.79,0,0,0,166.9,235.53Zm0,8.26a3.47,3.47,0,1,1,3.46-3.47A3.47,3.47,0,0,1,166.9,243.79Z"/><path class="cls-1" d="M271.37,227.43c-.33.13-1.21.45-1.22.69l-.28,10.25a2.4,2.4,0,0,1,1.84,2.65c0,1.89-1.07,4.08-2.47,4.08s-2.47-2.19-2.47-4.08a2.41,2.41,0,0,1,1.85-2.65l-.28-10.25c0-.24-.92-.57-1.24-.69"/><path class="cls-1" d="M93.8,227.47c-.43.26-1.22.41-1.23.65l-.28,10.28c.9.29,1.45,1.22,1.53,2.64v3.75a.3.3,0,0,1-.3.31.31.31,0,0,1-.31-.31v-3.08h-.62v3.08a.31.31,0,0,1-.62,0v-3.08h-.62v3.08a.31.31,0,1,1-.61,0v-3.08h-.62v3.08a.31.31,0,1,1-.62,0v-3.7a.43.43,0,0,1,0-.05c.08-1.42.63-2.35,1.53-2.64l-.28-10.28c0-.24-.54-.42-1.23-.65"/><path class="cls-3" d="M111.54,227.43H77.6V161.79l42.5-19.49c1.71-1.25,5.77,0,5.77,0l-.16,3a2,2,0,0,1,1.87-1.25l95,22.31,101-1.72c0,1.87-3.7,3-3.7,3l-3.12.16v59.71H258.19"/><path d="M76.41,258.16v-5.67h2.53a1.42,1.42,0,0,1,1.58,1.44,1.28,1.28,0,0,1-1,1.3,1.44,1.44,0,0,1,1.11,1.4A1.48,1.48,0,0,1,79,258.16ZM79.79,254a.88.88,0,0,0-1-.91h-1.7v1.82h1.7A.88.88,0,0,0,79.79,254Zm.11,2.52a1,1,0,0,0-1.05-1H77.12v2h1.73A.94.94,0,0,0,79.9,256.55Z"/><path d="M83.15,258.16v-2.4l-2.23-3.27h.82l1.76,2.63,1.76-2.63h.82l-2.22,3.27v2.4Z"/><path d="M88.68,257.36l.41-.54a2.41,2.41,0,0,0,1.79.81c1,0,1.33-.55,1.33-1,0-1.46-3.35-.65-3.35-2.68,0-.93.83-1.57,1.94-1.57a2.69,2.69,0,0,1,2,.79l-.43.52a2.15,2.15,0,0,0-1.64-.68c-.68,0-1.16.37-1.16.9,0,1.28,3.35.55,3.35,2.66,0,.83-.56,1.67-2.09,1.67A2.81,2.81,0,0,1,88.68,257.36Z"/><path d="M93.77,255.33a2.82,2.82,0,1,1,2.81,2.93A2.77,2.77,0,0,1,93.77,255.33Zm4.89,0a2.09,2.09,0,1,0-2.08,2.3A2.1,2.1,0,0,0,98.66,255.33Z"/><path d="M100.5,258.16v-5.67h.71v5h2.63v.63Z"/><path d="M104.84,258.16v-5.67h.7v5.67Z"/><path d="M106.87,258.16v-5.67h1.93a2.84,2.84,0,1,1,0,5.67Zm4.11-2.83a2.07,2.07,0,0,0-2.18-2.21h-1.23v4.41h1.23A2.09,2.09,0,0,0,111,255.33Z"/><path d="M112.87,254.33l-.32-.26a1.3,1.3,0,0,0,.56-.79H113a.4.4,0,0,1-.41-.43.46.46,0,0,1,.45-.46c.28,0,.53.23.53.65A1.63,1.63,0,0,1,112.87,254.33Z"/><path d="M117.85,258.16l-.5-1.26h-2.82l-.51,1.26h-.8l2.27-5.67h.88l2.29,5.67Zm-1.91-4.94-1.21,3h2.4Z"/><path d="M119.4,258.16v-5.67h3.71v.63h-3v1.82h3v.63h-3v2.59Z"/><path d="M127.35,258.16l-1.44-2.26h-1.13v2.26h-.71v-5.67h2.28a1.64,1.64,0,0,1,1.77,1.71,1.55,1.55,0,0,1-1.47,1.64l1.53,2.32Zm0-4a1,1,0,0,0-1.13-1.08h-1.48v2.16h1.48A1.05,1.05,0,0,0,127.39,254.2Z"/><path d="M129.24,258.16v-5.67h.7v5.67Z"/><path d="M131,255.33a2.84,2.84,0,0,1,2.92-2.94,2.54,2.54,0,0,1,2.15,1.13l-.6.33A1.9,1.9,0,0,0,134,253a2.31,2.31,0,0,0,0,4.61,1.88,1.88,0,0,0,1.55-.83l.6.34a2.56,2.56,0,0,1-2.15,1.12A2.83,2.83,0,0,1,131,255.33Z"/><path d="M141,258.16l-.51-1.26h-2.82l-.5,1.26h-.81l2.28-5.67h.88l2.28,5.67Zm-1.92-4.94-1.2,3h2.4Z"/><path d="M144.78,258.16v-5.67h.7v5.67Z"/><path d="M150.82,258.16l-3.31-4.53v4.53h-.7v-5.67h.72l3.26,4.42v-4.42h.71v5.67Z"/><path d="M155,258.16v-5.67h2.28a1.71,1.71,0,1,1,0,3.41h-1.58v2.26Zm3.32-4a1.05,1.05,0,0,0-1.13-1.08h-1.49v2.16h1.49A1.06,1.06,0,0,0,158.34,254.2Z"/><path d="M163.4,258.16l-.5-1.26h-2.82l-.51,1.26h-.8l2.28-5.67h.87l2.29,5.67Zm-1.91-4.94-1.21,3h2.41Z"/><path d="M168.23,258.16l-1.45-2.26h-1.13v2.26H165v-5.67h2.27A1.65,1.65,0,0,1,169,254.2a1.55,1.55,0,0,1-1.47,1.64l1.53,2.32Zm0-4a1.05,1.05,0,0,0-1.13-1.08h-1.49v2.16h1.49A1.06,1.06,0,0,0,168.27,254.2Z"/><path d="M171.43,258.16v-5h-1.79v-.63h4.3v.63h-1.8v5Z"/><path d="M178.89,258.16l-3.31-4.53v4.53h-.71v-5.67h.73l3.26,4.42v-4.42h.71v5.67Z"/><path d="M180.89,258.16v-5.67h3.72v.63h-3v1.82h3v.63h-3v2h3v.63Z"/><path d="M189,258.16l-1.45-2.26h-1.13v2.26h-.7v-5.67H188a1.65,1.65,0,0,1,1.77,1.71,1.55,1.55,0,0,1-1.47,1.64l1.53,2.32Zm0-4a1.05,1.05,0,0,0-1.13-1.08h-1.49v2.16h1.49A1.06,1.06,0,0,0,189.05,254.2Z"/><path d="M190.56,257.36l.41-.54a2.41,2.41,0,0,0,1.79.81c1,0,1.33-.55,1.33-1,0-1.46-3.35-.65-3.35-2.68,0-.93.83-1.57,1.94-1.57a2.69,2.69,0,0,1,2,.79l-.43.52a2.15,2.15,0,0,0-1.64-.68c-.68,0-1.16.37-1.16.9,0,1.28,3.35.55,3.35,2.66,0,.83-.56,1.67-2.09,1.67A2.81,2.81,0,0,1,190.56,257.36Z"/><path d="M199.9,258.16v-2.6h-3.32v2.6h-.7v-5.67h.7v2.44h3.32v-2.44h.7v5.67Z"/><path d="M201.93,258.16v-5.67h.7v5.67Z"/><path d="M204,258.16v-5.67h2.28a1.71,1.71,0,1,1,0,3.41h-1.57v2.26Zm3.33-4a1.06,1.06,0,0,0-1.14-1.08h-1.48v2.16h1.48A1.06,1.06,0,0,0,207.29,254.2Z"/><path d="M215.48,258.16l-1.25-4.58L213,258.16h-.77l-1.61-5.67h.78l1.26,4.72,1.3-4.72h.59l1.3,4.72,1.25-4.72h.78l-1.62,5.67Z"/><path d="M218.65,258.16v-5.67h.7v5.67Z"/><path d="M222.08,258.16v-5h-1.79v-.63h4.3v.63h-1.8v5Z"/><path d="M229.55,258.16v-2.6h-3.32v2.6h-.7v-5.67h.7v2.44h3.32v-2.44h.7v5.67Z"/><path d="M233.77,258.16v-5.67h.71v5.67Z"/><path d="M240.65,258.16v-4.67l-1.93,4.67h-.29l-1.92-4.67v4.67h-.71v-5.67h1l1.76,4.26,1.77-4.26h1v5.67Z"/><path d="M242.68,258.16v-5.67h2.52a1.43,1.43,0,0,1,1.59,1.44,1.28,1.28,0,0,1-1,1.3,1.43,1.43,0,0,1,1.1,1.4,1.48,1.48,0,0,1-1.64,1.53Zm3.38-4.13a.89.89,0,0,0-1-.91h-1.7v1.82h1.7A.88.88,0,0,0,246.06,254Zm.11,2.52a1,1,0,0,0-1-1h-1.74v2h1.74A.94.94,0,0,0,246.17,256.55Z"/><path d="M248,256v-3.47h.7v3.45a1.61,1.61,0,1,0,3.21,0v-3.45h.71V256a2.31,2.31,0,0,1-4.62,0Z"/><path d="M255.38,258.16v-5h-1.8v-.63h4.3v.63h-1.8v5Z"/><path d="M258.36,255.33a2.82,2.82,0,1,1,2.81,2.93A2.77,2.77,0,0,1,258.36,255.33Zm4.9,0a2.1,2.1,0,1,0-2.09,2.3A2.11,2.11,0,0,0,263.26,255.33Z"/><path d="M267.29,258.16v-5.67H271v.63h-3v1.82h2.95v.63H268v2.59Z"/><path d="M271.73,255.33a2.82,2.82,0,1,1,2.81,2.93A2.77,2.77,0,0,1,271.73,255.33Zm4.9,0a2.1,2.1,0,1,0-2.09,2.3A2.11,2.11,0,0,0,276.63,255.33Z"/><path d="M278.46,256v-3.47h.71v3.45a1.61,1.61,0,1,0,3.21,0v-3.45h.71V256a2.32,2.32,0,0,1-4.63,0Z"/><path d="M288.42,258.16l-3.3-4.53v4.53h-.71v-5.67h.73l3.26,4.42v-4.42h.7v5.67Z"/><path d="M290.43,258.16v-5.67h1.94a2.84,2.84,0,1,1,0,5.67Zm4.11-2.83a2.07,2.07,0,0,0-2.17-2.21h-1.23v4.41h1.23A2.08,2.08,0,0,0,294.54,255.33Z"/><path d="M300.11,258.16l-.5-1.26h-2.82l-.5,1.26h-.81l2.28-5.67h.87l2.29,5.67Zm-1.91-4.94-1.21,3h2.41Z"/><path d="M302.49,258.16v-5H300.7v-.63H305v.63h-1.8v5Z"/><path d="M305.94,258.16v-5.67h.7v5.67Z"/><path d="M307.74,255.33a2.81,2.81,0,1,1,2.81,2.93A2.77,2.77,0,0,1,307.74,255.33Zm4.89,0a2.09,2.09,0,1,0-2.08,2.3A2.1,2.1,0,0,0,312.63,255.33Z"/><path d="M318.48,258.16l-3.31-4.53v4.53h-.7v-5.67h.72l3.27,4.42v-4.42h.7v5.67Z"/></svg>