<svg id="Layer_1" data-name="Layer 1" xmlns="http://www.w3.org/2000/svg" viewBox="0 0 963.76 1308.29"><defs><style>.cls-1{fill:#2fc145;}</style></defs><title>HuzaMart_logo</title><path class="cls-1" d="M1164.25,860.28c0-90.55.76-181.12-.23-271.66-.89-81.52-30.71-146.92-112.26-176.54-65.52-23.81-127.57-13.63-180.5,33-31.93,28.1-52.55,65.11-54.49,107.88-2.95,64.88-1.95,130-1.9,195,0,22-.62,24-23.07,24-71.1.1-142.22-.56-213.31.46-17.79.25-25.83-6.46-27.78-22.82a157.36,157.36,0,0,1-1-18.16c-.06-56.52,1.32-113.08-.38-169.55-1.88-62.24-34.85-109.08-86-139.59C426.71,400.33,383.47,394,340,404.3c-49.4,11.69-88.26,37.12-114.54,82.15-21.68,37.14-23.77,77.38-23.88,118-.48,179.9-.86,359.8.34,539.68.24,36.63.53,73.67,23.45,107.35,22.41,32.92,49.87,59.29,85.61,73.32,101.6,39.87,219.18-23.24,234.29-123.11,6.12-40.4,3.61-82.15,4.32-123.3.58-34.1.12-33.81,33.24-33.71,69.29.21,138.58.5,207.85-.21,17.24-.18,23.78,5.31,23.6,22.93-.38,37,.56,74.1,1.82,111.12,1.12,33.16,13,63.51,33.25,88.87,45.55,57,105.95,81.37,177.32,64.46,29.6-7,61.42-21.31,83-41.95,40.34-38.59,56.4-89.6,55.14-147.05C1162.75,1048.72,1164.25,954.48,1164.25,860.28Z" transform="translate(-201.12 -28.85)"/><path class="cls-1" d="M232.09,171.63c-.36,81.58,58.49,140.51,140.69,143.46,78,2.79,145.54-55.84,148.5-135.8C524.58,90.61,457.6,28.79,378,29.18,294.35,29.58,234.78,80.38,232.09,171.63Z" transform="translate(-201.12 -28.85)"/><path class="cls-1" d="M1133.56,169.44c-.81-92.3-79.44-145.07-150.68-140.29-90.3,6.06-146.06,71.21-138,156.76C852.55,268.26,910.93,317.55,997,314.6,1078.94,311.79,1137.33,244.55,1133.56,169.44Z" transform="translate(-201.12 -28.85)"/></svg>