<svg id="Layer_1" data-name="Layer 1" xmlns="http://www.w3.org/2000/svg" viewBox="0 0 289.76 117.95"><defs><style>.cls-1{fill:#fa8017;}.cls-2{fill:#04356c;}.cls-3{fill:#03356c;}.cls-4{fill:#04366c;}.cls-5{fill:#05356c;}.cls-6{fill:#fa8018;}.cls-7{fill:#fa811c;}.cls-8{fill:#15386e;}.cls-9{fill:#10366d;}.cls-10{fill:#062e67;}.cls-11{fill:#264175;}</style></defs><title>logo</title><path class="cls-1" d="M254.38,204.73c.07-9.15,6.32-15.34,15.43-15.3s15.37,6.5,15.25,15.71c-.12,9-6.41,15.12-15.48,15.06S254.31,213.92,254.38,204.73Zm23.77.25a13,13,0,0,0-1.12-5.57,7.52,7.52,0,0,0-7.25-4.52c-3.29,0-5.91,1.3-7.33,4.36a13,13,0,0,0-.14,10.94,7.15,7.15,0,0,0,5.18,4.33C273.64,215.92,278.13,211.9,278.15,205Z" transform="translate(-46.62 -126.39)"/><path class="cls-2" d="M220.14,214.53c-3.47,3.91-7.83,4.08-12.34,2.43-5-1.84-7.43-5.87-8.11-11a17,17,0,0,1,.72-7.68,13,13,0,0,1,19.36-6.87,9.52,9.52,0,0,1,3.27,3.46,2.7,2.7,0,0,1-.84,3.73,2.74,2.74,0,0,1-3.89-.82,6,6,0,0,0-6.84-3.16c-3.19.57-4.81,2.8-5.52,5.77a12.57,12.57,0,0,0,.81,8.84,6.76,6.76,0,0,0,7.11,3.6,5.61,5.61,0,0,0,5.27-4.43c.26-1,.14-1.5-1.06-1.38a14.82,14.82,0,0,1-2.58,0,2.08,2.08,0,0,1-2.12-2.14,2,2,0,0,1,2.14-2.28c2.77-.07,5.55,0,8.33,0,.73,0,1,.26,1,1,0,3.39,0,6.78,0,10.18,0,1.73-1.57,3.47-3.06,3.44C220,217.12,221.17,215.28,220.14,214.53Z" transform="translate(-46.62 -126.39)"/><path class="cls-2" d="M156.27,214.4c-5.24,6.38-17.88,3.83-20.27-6.46a17.72,17.72,0,0,1,.32-9.5,13,13,0,0,1,19-7.31,9.82,9.82,0,0,1,3.65,3.59,2.79,2.79,0,1,1-4.67,3,6,6,0,0,0-6.85-3.13c-3.11.56-4.75,2.71-5.46,5.6a12.23,12.23,0,0,0,1,9.33c1.52,2.66,4,3.56,6.92,3.26a5.56,5.56,0,0,0,5.21-4.25c.35-1.2.1-1.72-1.24-1.55a13.58,13.58,0,0,1-2.21,0,2.11,2.11,0,0,1-2.27-2.18,2.06,2.06,0,0,1,2.17-2.26c2.78-.06,5.55,0,8.33,0,.76,0,.92.31.92,1,0,3.4,0,6.79,0,10.18a3.46,3.46,0,0,1-1,2.32,2.84,2.84,0,0,1-2.42,1.15c-.88-.15-.47-1.27-.74-1.92C156.45,215.06,156.4,214.82,156.27,214.4Z" transform="translate(-46.62 -126.39)"/><path class="cls-3" d="M125.87,207.71V194.46c0-.55,0-1.11,0-1.66a2.83,2.83,0,0,1,2.73-2.73,2.76,2.76,0,0,1,2.83,2.63q.08,9.63,0,19.25a5.25,5.25,0,0,1-2.29,4.07c-2.23,1.74-3.46,1.53-4.93-.83q-4.33-7-8.68-14c-.34-.55-.71-1.1-1.38-2.13v6.35c0,3,0,5.93,0,8.89a2.79,2.79,0,1,1-5.58,0q0-9.27,0-18.52a5.58,5.58,0,0,1,2.29-4.45c2.21-1.77,3.46-1.56,4.92.79l9.76,15.66Z" transform="translate(-46.62 -126.39)"/><path class="cls-4" d="M246.3,190.38a6.78,6.78,0,0,1,5.72,5.76c.64,3.51-.41,6.43-3.93,8.3,2.56,1.08,3.39,3.14,3.66,5.48.22,2,.15,3.94.56,5.89a1.11,1.11,0,0,1-.13.87c-1.24,1.22-2.8.44-4.22.58-.89.09-1.27-.59-1.36-1.42-.21-1.84-.37-3.68-.66-5.5-.41-2.57-1.65-3.63-4.26-3.66-2,0-4.54-.69-5.72.29s-.27,3.69-.39,5.64c0,.67.05,1.36,0,2a3,3,0,0,1-3.06,2.63c-1.58-.15-2.81-1-2.83-2.66,0-6.34-.22-12.69.09-19,1.16-.58,1-1.74,1.22-2.74l0,0c.24,0,.33-.1.25-.34l.12-.13c.24.09.33,0,.22-.23a.17.17,0,0,1,.16-.16c.25.11.33,0,.26-.23l.1-.09c.24.07.36,0,.38-.27l.1.11-.09-.11c3.85-1.09,7.8-.48,11.7-.65C244.89,190.68,245.67,191,246.3,190.38Zm-6.58,4.4h0c-1,0-2,.07-3,0s-1.25.31-1.21,1.26c.07,1.72.06,3.45,0,5.17,0,.84.16,1.23,1.1,1.2,2-.07,3.94,0,5.91-.06,2.52-.11,3.7-1.42,3.65-3.89s-1.25-3.54-3.72-3.65C241.57,194.74,240.64,194.78,239.72,194.78Z" transform="translate(-46.62 -126.39)"/><path class="cls-5" d="M67.9,217.86a14.08,14.08,0,0,1-7.81-2,8,8,0,0,1-3.21-3.71A2.86,2.86,0,0,1,62,209.67c2,3.22,4.6,4.28,8.27,3.29,1.51-.4,2.78-1.17,2.9-2.93s-1-2.49-2.35-2.95c-2.1-.71-4.25-1.26-6.38-1.87a17.16,17.16,0,0,1-3.62-1.36,7.09,7.09,0,0,1-1.66-11.44c3.83-3.88,12.6-4,16.51-.17A8.85,8.85,0,0,1,77,193.82a2.7,2.7,0,0,1-.82,4,3,3,0,0,1-4-1,5.76,5.76,0,0,0-6.83-2.49,2.94,2.94,0,0,0-2.4,2.7c-.11,1.56.92,2.22,2.16,2.58,2.72.8,5.49,1.43,8.2,2.26,3.53,1.09,5.63,3.69,5.75,6.89a7.93,7.93,0,0,1-5.3,8.06,12.79,12.79,0,0,1-4,.93C69.05,217.82,68.37,217.84,67.9,217.86Z" transform="translate(-46.62 -126.39)"/><path class="cls-4" d="M292.5,208.52a6.06,6.06,0,0,0,9.35,3.4c1.64-1.2,1.78-3,1.8-4.83,0-4.57,0-9.13,0-13.7a3,3,0,0,1,1.74-3,2.76,2.76,0,0,1,3.11.38,3.09,3.09,0,0,1,1.15,2.61c0,4.81.07,9.62,0,14.43-.13,5.51-3,8.86-8.45,9.81a16.16,16.16,0,0,1-8.58-.6,8.53,8.53,0,0,1-5.92-8.12c.41-.3.38-.74.38-1.16V193.4a1.33,1.33,0,0,0-.35-1.18,2.62,2.62,0,0,1,2.77-2.12,2.57,2.57,0,0,1,2.77,2.12c-.13.26-.36.53-.36.8,0,4.85,0,9.7,0,14.55C291.85,208,292,208.42,292.5,208.52Z" transform="translate(-46.62 -126.39)"/><path class="cls-4" d="M104.94,214.24a2.91,2.91,0,0,1-2.14,2.91A2.67,2.67,0,0,1,99.73,216a5.7,5.7,0,0,1-.67-1.51c-1.2-3.33-1.19-3.33-4.79-3.33a9.13,9.13,0,0,1-1.48,0c-3.41-.54-5.88.12-6.53,4.16a2.5,2.5,0,0,1-3.5,1.75,2.72,2.72,0,0,1-1.66-3.61c2.31-6.22,4.61-12.46,7.08-18.62,1.14-2.85,3.55-4.3,6.57-4.77,1-.15,1.41.19,1.75,1.11,2.65,7.22,5.35,14.42,8,21.62C104.72,213.35,104.84,213.89,104.94,214.24Zm-12-17.52c-1.15,3.22-2.13,6-3.17,8.85-.31.85-.23,1.22.8,1.18,1.88-.06,3.76,0,5.8,0Z" transform="translate(-46.62 -126.39)"/><path class="cls-3" d="M171.46,195.51c0,1.78,0,3.57.07,5.36.31.92,1.09.59,1.7.6,2.49,0,5,0,7.48,0,.76,0,1.59.31,2.26-.36a2,2,0,0,1,1.64,2.62,2.3,2.3,0,0,1-2.59,1.86c-2.83,0-5.66.12-8.48-.05-1.79-.11-2.21.54-2,2.15a18.3,18.3,0,0,1,0,3.31c-.08,1,.28,1.26,1.24,1.24,3.5-.05,7-.05,10.51,0,2.4,0,3.35,1.5,2.49,3.78-.25,0-.38.15-.31.42a.16.16,0,0,1-.14.13c-.25-.11-.34,0-.31.24l0,0c-.74-.05-1.47-.14-2.2-.15-5.72,0-11.44,0-17.16,0,0-7-.05-14,0-21,0-2.64,1.45-4.41,4.06-5.25.56.57,1.28.35,1.93.35,3.82,0,7.63,0,11.45,0,1.28,0,2.18.34,2.2,1.82s-.88,2-2.26,1.95c-3.32,0-6.65,0-10,0C172.23,194.46,171.4,194.35,171.46,195.51Z" transform="translate(-46.62 -126.39)"/><path class="cls-3" d="M330.75,190.71c4,1.33,6,4.59,5.57,9.23a7.88,7.88,0,0,1-7.21,7.41,39.75,39.75,0,0,1-6.27.13c-1.59-.08-2.33.25-2.13,2a29.58,29.58,0,0,1,0,4.8,3,3,0,0,1-2.94,3,2.91,2.91,0,0,1-3-2.9c0-6.64,0-13.29.09-19.93.91-.41.94-1.17.8-2l.08-.1c.73,0,1.12-.24,1-1a.21.21,0,0,1,.22-.16c.24.15.3.05.27-.18l0,0a1.56,1.56,0,0,0,.55.1c3.61-.65,7.25-.14,10.88-.32C329.39,190.67,330.07,191.51,330.75,190.71Zm-10,8c0,1.05,0,2.1,0,3.14,0,.62,0,1.11.85,1.07a40.47,40.47,0,0,0,5.72-.2,4,4,0,0,0-.12-7.83,15.82,15.82,0,0,0-2.39-.11C320.74,194.75,320.74,194.76,320.74,198.7Z" transform="translate(-46.62 -126.39)"/><path class="cls-6" d="M266.08,172.93a7.4,7.4,0,1,1-7.55,7.23A7.38,7.38,0,0,1,266.08,172.93Z" transform="translate(-46.62 -126.39)"/><path class="cls-3" d="M52.61,203.71c0,3.33,0,6.65,0,10,0,2.22-1.25,3.65-3.07,3.59s-2.9-1.4-2.91-3.56q0-10.08,0-20.15c0-2.13,1.19-3.49,3-3.5s3,1.37,3,3.48C52.63,196.93,52.61,200.32,52.61,203.71Z" transform="translate(-46.62 -126.39)"/><path class="cls-6" d="M258.75,155.38a5.44,5.44,0,1,1-5.4,5.4A5.45,5.45,0,0,1,258.75,155.38Z" transform="translate(-46.62 -126.39)"/><path class="cls-6" d="M240.78,144.66a5.14,5.14,0,0,1,5.2-4.94,5,5,0,1,1-5.2,4.94Z" transform="translate(-46.62 -126.39)"/><path class="cls-7" d="M293.7,235.15c0-1.42,0-2.84,0-4.26,0-1.25,1.08-1.24,1.4-.75.62,1,.94.41,1.51.12,1.54-.81,3.11-.93,4.4.45.54.58.74.29,1.14-.05a3.93,3.93,0,0,1,4.5-.52c1.55.76,1.48,2.27,1.46,3.71,0,1.79,0,3.58,0,5.37,0,.66-.14,1.05-.91,1.05s-.88-.43-.88-1.07c0-1.85,0-3.7,0-5.55,0-1.37-.43-2.36-1.94-2.35a2.3,2.3,0,0,0-2.6,2.3c-.08,1.72,0,3.45,0,5.18,0,.6.33,1.45-.81,1.48s-.9-.9-.92-1.56c0-1.6,0-3.21,0-4.81,0-1.35-.2-2.53-1.89-2.6a2.59,2.59,0,0,0-2.65,2.54c-.08,1.72,0,3.45,0,5.18,0,.63.09,1.25-.87,1.26s-.9-.59-.89-1.23C293.71,237.74,293.7,236.44,293.7,235.15Z" transform="translate(-46.62 -126.39)"/><path class="cls-7" d="M261.93,230.86c0-1.44,0-2.66,0-3.87,0-.74.31-1,1-1s.78.4.78,1c0,4.12,0,8.24,0,12.36,0,1.14-1.12,1.13-1.33.81-.67-1-1.16-.36-1.79-.08a4.56,4.56,0,0,1-6.2-2.61c-1-2.71-.24-5.85,1.84-7.12C258.14,229.2,260,229.69,261.93,230.86Zm-6.1,4.19c0,2.33,1.12,3.82,3,3.88s3.14-1.34,3.19-3.68-1.19-4-3.1-4S255.85,232.69,255.83,235.05Z" transform="translate(-46.62 -126.39)"/><path class="cls-8" d="M149.11,235.4c.29,1.2-.71,2.87,1,3.94.21.13.14.8-.25.95-.64.24-1.52.39-1.88-.23-.57-.95-1-.65-1.65-.19a4,4,0,0,1-2.3.56c-2.08,0-3.31-.83-3.53-2.48s.71-2.87,2.71-3.36c1-.25,2.07-.34,3.09-.57.55-.12,1.06-.4,1.1-1.07a1.33,1.33,0,0,0-.94-1.44c-1.42-.41-2.9-.58-3.68,1a1,1,0,0,1-1.47.6c-.84-.39-.22-1.08,0-1.54.79-1.59,3.23-2.28,5.59-1.73,1.92.45,2.31,1.81,2.23,3.5C149.09,234,149.11,234.62,149.11,235.4Zm-1.72.77c-.16-.32.31-1.09-.4-.93-1.3.28-2.73.11-3.91.85a1.47,1.47,0,0,0,.1,2.66A3,3,0,0,0,147.39,236.17Z" transform="translate(-46.62 -126.39)"/><path class="cls-1" d="M228.17,129.89a4.26,4.26,0,0,1,4.26,4.21,4.34,4.34,0,0,1-4.22,4.28,4.27,4.27,0,0,1-4.24-4.24A4.22,4.22,0,0,1,228.17,129.89Z" transform="translate(-46.62 -126.39)"/><path class="cls-9" d="M109.45,230.84a17,17,0,0,1,2.17-1c2.58-.72,4.47.58,4.6,3.22.09,2,0,4.07,0,6.1,0,.66-.11,1-.89,1s-.91-.36-.9-1c0-1.78,0-3.57,0-5.36,0-1.42-.36-2.5-1.93-2.59s-2.75.58-2.95,2.18c-.22,1.76-.11,3.56-.18,5.34,0,.6.36,1.43-.82,1.46s-.88-.76-.88-1.38q0-5.73,0-11.46c0-.62-.28-1.41.88-1.38s.79.87.82,1.46C109.48,228.54,109.45,229.59,109.45,230.84Z" transform="translate(-46.62 -126.39)"/><path class="cls-9" d="M139.13,237.11a3.62,3.62,0,0,1-2.94,3.16,4.84,4.84,0,0,1-4.95-1.24,6.2,6.2,0,0,1,.32-8.09,4.67,4.67,0,0,1,5.16-.78,5.56,5.56,0,0,1,2.64,4.79c-.07.8-.55.67-1,.67-1.85,0-3.7,0-5.55,0-1,0-1.16.47-.92,1.25a2.71,2.71,0,0,0,2.19,2c1.2.21,2.44.16,3.07-1.09C137.62,236.8,138.25,236.84,139.13,237.11Zm-4.65-3a4.81,4.81,0,0,0,.93,0c.67-.14,1.76.44,1.94-.38.22-1-.68-1.79-1.63-2.22a2.6,2.6,0,0,0-2.79.31c-.66.49-1.32,1.16-1,2,.24.67,1.09.2,1.66.3A5.64,5.64,0,0,0,134.48,234.11Z" transform="translate(-46.62 -126.39)"/><path class="cls-6" d="M277.62,235.63c-.86,0-1.72,0-2.59,0-1.37-.07-1.41.62-1,1.61a3.07,3.07,0,0,0,5.08.63c.19-.24.28-.57.5-.76a1.13,1.13,0,0,1,1.23-.09c.57.3.14.75,0,1.1a3.86,3.86,0,0,1-3.52,2.3,4.46,4.46,0,0,1-4.59-2.13,6.21,6.21,0,0,1-.41-5.52,4.74,4.74,0,0,1,5.36-3,5.16,5.16,0,0,1,3.73,4.94c0,.62-.2.91-.84.9C279.6,235.62,278.61,235.63,277.62,235.63Zm-1-1.52a5.64,5.64,0,0,0,.92,0c.66-.13,1.74.43,1.91-.4s-.6-1.69-1.48-2.12a2.73,2.73,0,0,0-3.24.46c-.5.45-1,1.09-.83,1.73s1.06.23,1.62.32A6.72,6.72,0,0,0,276.59,234.11Z" transform="translate(-46.62 -126.39)"/><path class="cls-7" d="M291.12,235.34c.49,1.07-.95,2.84,1,3.87.24.12.22.77-.13,1-.61.38-1.51.51-1.87-.06-.7-1.09-1.2-.54-2-.16-2.66,1.34-5.52.14-5.61-2.27a2.69,2.69,0,0,1,2.22-3c1.14-.29,2.3-.45,3.45-.69.63-.14,1.2-.42,1.18-1.2a1.31,1.31,0,0,0-1-1.36c-1.36-.3-2.78-.51-3.52,1.06a1,1,0,0,1-1.48.61c-.85-.4-.25-1.08,0-1.57.8-1.57,3.32-2.28,5.62-1.7,1.9.48,2.28,1.84,2.17,3.54C291.09,234,291.12,234.53,291.12,235.34Zm-1.75.8c-.16-.2.22-1-.41-.85-1.32.25-2.76.05-3.92.88a1.42,1.42,0,0,0,0,2.46,3.13,3.13,0,0,0,3-.1A2.26,2.26,0,0,0,289.37,236.14Z" transform="translate(-46.62 -126.39)"/><path class="cls-7" d="M314.29,240.44c-1.74,0-3.35-.32-4.12-2.16-.18-.42-.53-1,.13-1.26.47-.18,1.11-.28,1.42.43.78,1.81,2.33,1.55,3.79,1.34a1.34,1.34,0,0,0,1.24-1.2,1.22,1.22,0,0,0-1-1.36c-1.05-.33-2.13-.58-3.2-.89-1.4-.42-2.54-1.16-2.43-2.81s1.2-2.33,2.65-2.68c2-.46,4.11.09,4.87,1.35.29.49.87,1.16.24,1.62s-1.2.28-1.68-.5c-.72-1.19-1.93-1.16-3.13-.89a1.2,1.2,0,0,0-1.08,1.09,1.11,1.11,0,0,0,.87,1.08c.87.31,1.77.53,2.66.76,2.39.64,3.25,1.53,3.08,3.23s-1.49,2.68-3.75,2.83Z" transform="translate(-46.62 -126.39)"/><path class="cls-9" d="M84.16,235.12c0,3.3-1.92,5.34-5,5.31s-4.9-2.06-4.93-5.26,2-5.44,5-5.47S84.16,231.84,84.16,235.12Zm-1.81.06c0-2.25-1.21-3.86-3-3.94S76,232.86,76,235.12s1.31,3.8,3.16,3.82S82.33,237.46,82.35,235.18Z" transform="translate(-46.62 -126.39)"/><path class="cls-6" d="M214.08,235c0-3.25,2.08-5.38,5.1-5.31s4.92,2.32,4.85,5.57-2,5.19-5,5.17S214.05,238.34,214.08,235Zm1.81,0c0,2.34,1.26,4,3.17,3.94s3.14-1.56,3.15-3.8-1.26-3.82-3.1-3.88S215.93,232.77,215.89,235Z" transform="translate(-46.62 -126.39)"/><path class="cls-5" d="M181.49,235c0-3.23,2.12-5.38,5.11-5.3s4.92,2.31,4.85,5.56-2,5.18-5,5.16S181.45,238.3,181.49,235Zm8.15.14c0-2.25-1.25-3.85-3.08-3.91s-3.27,1.59-3.26,3.92,1.31,3.79,3.18,3.78S189.63,237.4,189.64,235.15Z" transform="translate(-46.62 -126.39)"/><path class="cls-9" d="M175.17,230.05c-1.62,4.15-3.17,8.16-4.74,12.16a2.81,2.81,0,0,1-2.92,2.1c-.52,0-1-.14-1-.84s.16-.73.84-.77a2.44,2.44,0,0,0,1.86-3.4c-1.18-3-2.4-6.05-3.61-9.11,1.33-.58,2-.15,2.39,1.19.66,2.16,1.49,4.27,2.43,6.91.92-2.61,1.66-4.76,2.42-6.91C173.36,230,173.36,230,175.17,230.05Z" transform="translate(-46.62 -126.39)"/><path class="cls-7" d="M203.68,230.15c1.42-.45,2,0,2.39,1.16.68,2.2,1.54,4.35,2.48,6.94.91-2.62,1.74-4.78,2.4-7,.37-1.23,1-1.6,2.24-1.09-1.59,4.09-3.15,8.17-4.77,12.22a2.7,2.7,0,0,1-3,1.9.84.84,0,0,1-.82-1c0-.45.22-.55.68-.63,2-.37,2.7-1.79,1.93-3.73C206,236,204.86,233.12,203.68,230.15Z" transform="translate(-46.62 -126.39)"/><path class="cls-9" d="M96.58,235.17c0-4,2.93-6.33,6.57-5.2a3.55,3.55,0,0,1,2.3,2c.17.38.72.95,0,1.26A1.26,1.26,0,0,1,104,233c-1.85-1.95-3.24-2.19-4.58-.87s-1.37,4.61-.07,6a2.72,2.72,0,0,0,4.47-.67c.4-.86.92-1.28,1.64-.91.9.47.12,1.19-.11,1.69-.81,1.72-2.31,2.27-4.12,2.23a4.3,4.3,0,0,1-4.16-2.55A6.12,6.12,0,0,1,96.58,235.17Z" transform="translate(-46.62 -126.39)"/><path class="cls-6" d="M211.7,130.12a3.74,3.74,0,0,1-7.47.12,3.74,3.74,0,1,1,7.47-.12Z" transform="translate(-46.62 -126.39)"/><path class="cls-10" d="M94.6,235.2c0,1.35,0,2.71,0,4.06,0,1.1-1,1.26-1.22.89-.79-1.56-1.42-.3-2.05,0-2.7,1.16-5.09-.26-5.19-3.16-.07-1.91,0-3.82,0-5.73,0-.57-.23-1.26.81-1.28s.87.6.87,1.21c0,1.66,0,3.33,0,5,0,1.43.21,2.62,1.94,2.78a2.69,2.69,0,0,0,3.09-2.49c.16-1.65,0-3.32.11-5,0-.55-.49-1.44.73-1.49s.88.9.9,1.53C94.63,232.73,94.6,234,94.6,235.2Z" transform="translate(-46.62 -126.39)"/><path class="cls-7" d="M234.47,235.17c0,1.36-.05,2.71,0,4.07,0,1-1,1.36-1.19.93-.76-1.51-1.37-.35-2-.07-2.75,1.25-5.26-.23-5.33-3.2,0-1.91,0-3.82,0-5.73,0-.65-.06-1.23.91-1.21s.86.65.86,1.26c0,1.67,0,3.33,0,5,0,1.45.24,2.61,2,2.7a2.66,2.66,0,0,0,3-2.64c.11-1.66,0-3.33,0-5,0-.71-.08-1.38,1-1.33s.75.77.77,1.32C234.48,232.58,234.46,233.87,234.47,235.17Z" transform="translate(-46.62 -126.39)"/><path class="cls-6" d="M187.61,136.9a3.6,3.6,0,0,1-3.57-3.49,3.56,3.56,0,1,1,7.11,0A3.56,3.56,0,0,1,187.61,136.9Z" transform="translate(-46.62 -126.39)"/><path class="cls-5" d="M194.07,235.74V233c0-.77.22-1.68-1.12-1.48-.45.07-.62-.28-.61-.71s0-.85.54-.78c1.46.2,1.14-.81,1.2-1.62a2.59,2.59,0,0,1,3.21-2.44c.49.09.76.26.78.81s-.2.78-.76.72c-1-.1-1.45.28-1.51,1.35s.38,1.28,1.28,1.17c.59-.08.7.27.71.79s-.26.81-.77.72c-1.26-.21-1.21.56-1.2,1.43,0,2,0,4.07,0,6.1,0,.64.08,1.22-.88,1.25s-.9-.56-.9-1.2C194.08,238,194.07,236.85,194.07,235.74Z" transform="translate(-46.62 -126.39)"/><path class="cls-8" d="M161.09,235.27c0-.8,0-1.6,0-2.4s.14-1.54-1.06-1.38c-.55.08-.74-.27-.72-.8s.16-.77.62-.71c1.27.17,1.14-.64,1.19-1.48,0-.59-.53-1.57.81-1.59s.89.91.89,1.54c0,.93,0,1.77,1.3,1.52.57-.11.76.19.74.73s-.08.91-.69.8c-1.53-.29-1.35.74-1.33,1.67,0,1.17,0,2.34,0,3.51s-.2,2.2,1.48,2c.52,0,.54.39.53.77s0,.57-.38.74a2.48,2.48,0,0,1-3.36-2c-.05-1,0-2,0-2.95Z" transform="translate(-46.62 -126.39)"/><path class="cls-10" d="M153.46,233.12c0,2,0,4.06,0,6.09,0,.64-.06,1-.87,1s-.83-.46-.83-1.07c0-4,0-8,0-12,0-.55-.12-1.1.76-1.13s.94.49.93,1.16C153.45,229.18,153.46,231.15,153.46,233.12Z" transform="translate(-46.62 -126.39)"/><path class="cls-11" d="M69.13,227.81c-1.29,0-2.59-.07-3.88-.05-.63,0-.88-.2-.87-.84s.15-.9.83-.9c3.2,0,6.4,0,9.6,0,.56,0,.93.1,1,.79s-.28,1-1,.93c-1.22,0-2.46,0-3.69,0-.76.11-.74.67-.73,1.24l.06,11.15a.78.78,0,0,1-.82,0l.06-11.1C69.65,228.58,69.74,228,69.13,227.81Z" transform="translate(-46.62 -126.39)"/><path class="cls-6" d="M169.52,146.28a3,3,0,1,1,3-3A3,3,0,0,1,169.52,146.28Z" transform="translate(-46.62 -126.39)"/><path class="cls-1" d="M238.76,231.54a4.3,4.3,0,0,1,2.53-1.76c.42-.06.93-.25,1,.42,0,.45.28,1.23-.29,1.3-4.05.56-3.25,3.65-3.37,6.27,0,.37,0,.74,0,1.12,0,.65.18,1.4-.93,1.38s-.79-.75-.79-1.31c0-2.47,0-4.94,0-7.41,0-.55-.47-1.42.67-1.58S238.32,230.92,238.76,231.54Z" transform="translate(-46.62 -126.39)"/><path class="cls-1" d="M268,231.59a4.37,4.37,0,0,1,2.35-1.74c.51-.09,1.16-.46,1.24.48.06.61.13,1.2-.82,1.31-2.14.27-2.8,1.78-2.85,3.69,0,1.3,0,2.59,0,3.89,0,.64-.09,1.06-.89,1.05s-.85-.5-.85-1.1c0-2.53,0-5.07,0-7.59,0-.56-.49-1.43.64-1.61S267.64,230.87,268,231.59Z" transform="translate(-46.62 -126.39)"/><path class="cls-8" d="M125.92,231.64c.78-.85,1.4-1.63,2.45-1.8.46-.07,1.06-.42,1.17.35.08.51.33,1.12-.61,1.43-2.71.9-3,1.43-3,4.25,0,1.17,0,2.34,0,3.51,0,.64-.23.88-.86.88s-.93-.14-.92-.82c0-2.89,0-5.78,0-8.68,0-.7.33-.79.9-.81C126.2,229.92,125.62,230.9,125.92,231.64Z" transform="translate(-46.62 -126.39)"/><path class="cls-6" d="M158.69,158.88a2.7,2.7,0,0,1-2.82,2.58,2.66,2.66,0,0,1-2.53-2.85,2.74,2.74,0,0,1,2.7-2.52A2.78,2.78,0,0,1,158.69,158.88Z" transform="translate(-46.62 -126.39)"/><path class="cls-11" d="M171.46,195.51c-.06-1.16.77-1,1.51-1,3.32,0,6.65,0,10,0,1.38,0,2.29-.38,2.26-1.95s-.92-1.83-2.2-1.82c-3.82,0-7.63,0-11.45,0-.65,0-1.37.22-1.93-.35a5.74,5.74,0,0,1,2.9-.31c3.45,0,6.89,0,10.34,0,1.85,0,3,1,3,2.51s-1.18,2.6-3.12,2.61c-3.2,0-6.4,0-9.6,0C172.61,195.19,171.94,194.91,171.46,195.51Z" transform="translate(-46.62 -126.39)"/><path class="cls-10" d="M157.84,235.22c0,1.35,0,2.69,0,4,0,.7-.17,1-.91,1s-.77-.39-.77-.95q0-4.23,0-8.46c0-.61.17-.88.83-.88s.87.2.85.84C157.82,232.27,157.84,233.74,157.84,235.22Z" transform="translate(-46.62 -126.39)"/><path class="cls-1" d="M148.61,180.45a2.44,2.44,0,1,1,2.44-2.48A2.52,2.52,0,0,1,148.61,180.45Z" transform="translate(-46.62 -126.39)"/><path class="cls-11" d="M165.59,216.66c5.72,0,11.44,0,17.16,0,.73,0,1.46.1,2.2.15a2.39,2.39,0,0,1-1.73.48c-5.49,0-11,0-16.46,0C166.31,217.31,165.54,217.66,165.59,216.66Z" transform="translate(-46.62 -126.39)"/><path class="cls-10" d="M292.5,208.52c-.54-.1-.65-.48-.65-1,0-4.85,0-9.7,0-14.55,0-.27.23-.54.36-.8.53,1.05.24,2.17.25,3.25C292.52,199.82,292.5,204.17,292.5,208.52Z" transform="translate(-46.62 -126.39)"/><path class="cls-11" d="M246.3,190.38c-.63.58-1.41.3-2.12.33-3.9.17-7.85-.44-11.7.65a3.36,3.36,0,0,1,2.27-1.08A48,48,0,0,1,246.3,190.38Z" transform="translate(-46.62 -126.39)"/><path class="cls-11" d="M330.75,190.71c-.68.8-1.36,0-2.05,0-3.63.18-7.27-.33-10.88.32a1.56,1.56,0,0,1-.55-.1c.37-.2.73-.54,1.12-.57C322.52,190,326.66,189.56,330.75,190.71Z" transform="translate(-46.62 -126.39)"/><path class="cls-10" d="M70.41,240.16,70.35,229c0-.57,0-1.13.73-1.24q0,5.76-.11,11.5l-.21.81Z" transform="translate(-46.62 -126.39)"/><path class="cls-10" d="M286.69,192.22a1.33,1.33,0,0,1,.35,1.18v14.33c0,.42,0,.86-.38,1.16l0-.93v-.77a124.13,124.13,0,0,1,0-13.64v-1A.21.21,0,0,1,286.69,192.22Z" transform="translate(-46.62 -126.39)"/><path class="cls-9" d="M157.86,226.86c0,.73.2,1.36-.74,1.34-.68,0-1.05-.14-1-.91.07-.58-.19-1.27.84-1.26C157.78,226.05,158,226.4,157.86,226.86Z" transform="translate(-46.62 -126.39)"/><path class="cls-10" d="M69.13,227.81c.61.23.52.77.52,1.25l-.06,11.1-.33-.17-.07-.49Z" transform="translate(-46.62 -126.39)"/><path class="cls-10" d="M183,201.11c-.67.67-1.5.34-2.26.36-2.49,0-5,0-7.48,0-.61,0-1.39.32-1.7-.6,3.14,0,6.28,0,9.43.07A4.72,4.72,0,0,1,183,201.11Z" transform="translate(-46.62 -126.39)"/><path class="cls-11" d="M231,192.84c-.21,1-.06,2.16-1.22,2.74A4.22,4.22,0,0,1,231,192.84Z" transform="translate(-46.62 -126.39)"/><path class="cls-11" d="M315.68,192.45c.14.83.11,1.59-.8,2A3,3,0,0,1,315.68,192.45Z" transform="translate(-46.62 -126.39)"/><path class="cls-11" d="M316.73,191.32c.15.79-.24,1.07-1,1A2,2,0,0,1,316.73,191.32Z" transform="translate(-46.62 -126.39)"/><path class="cls-4" d="M286.63,192.51v1A.89.89,0,0,1,286.63,192.51Z" transform="translate(-46.62 -126.39)"/><path class="cls-11" d="M70.76,240.08l.21-.81C71.07,239.59,71.22,239.91,70.76,240.08Z" transform="translate(-46.62 -126.39)"/><path class="cls-4" d="M286.63,207.19V208A.57.57,0,0,1,286.63,207.19Z" transform="translate(-46.62 -126.39)"/><path class="cls-11" d="M317.22,191c0,.23,0,.33-.27.18A.27.27,0,0,1,317.22,191Z" transform="translate(-46.62 -126.39)"/><path class="cls-11" d="M185,216.8c0-.25.06-.35.31-.24Z" transform="translate(-46.62 -126.39)"/><path class="cls-11" d="M231.23,192.47c.08.24,0,.34-.25.34C231.06,192.7,231.15,192.59,231.23,192.47Z" transform="translate(-46.62 -126.39)"/><path class="cls-11" d="M231.57,192.11c.11.25,0,.32-.22.23A.29.29,0,0,1,231.57,192.11Z" transform="translate(-46.62 -126.39)"/><path class="cls-11" d="M232,191.72c.07.25,0,.34-.26.23A.31.31,0,0,1,232,191.72Z" transform="translate(-46.62 -126.39)"/><path class="cls-11" d="M232.47,191.36c0,.24-.14.34-.38.27Z" transform="translate(-46.62 -126.39)"/><path class="cls-11" d="M185.44,216.43c-.07-.27.06-.39.31-.42Z" transform="translate(-46.62 -126.39)"/><path class="cls-11" d="M69.19,239.5l.07.49C69,239.86,69,239.69,69.19,239.5Z" transform="translate(-46.62 -126.39)"/></svg>