<?xml version="1.0" encoding="utf-8"?>
<!-- Generator: Adobe Illustrator 23.0.3, SVG Export Plug-In . SVG Version: 6.00 Build 0)  -->
<svg version="1.1" id="Layer_1" xmlns="http://www.w3.org/2000/svg" xmlns:xlink="http://www.w3.org/1999/xlink" x="0px" y="0px"
	 viewBox="0 0 400 400" style="enable-background:new 0 0 400 400;" xml:space="preserve">
<style type="text/css">
	.st0{fill:#3A566E;}
	.st1{fill:url(#XMLID_2_);}
	.st2{fill:#EFEFEF;}
	.st3{fill:#FFFFFF;}
	.st4{fill:#8C8B87;}
	.st5{fill:#92918D;}
	.st6{fill:#4DB148;}
	.st7{opacity:0.53;fill:#4DB148;}
	.st8{fill:#927F52;}
	.st9{fill:#B09862;}
</style>
<g id="XMLID_231_">
	<g>
		<path class="st0" d="M124.1,79.5c0.3,0.1,0.6,0.3,0.9,0.5c0.2,0.2,0.4,0.5,0.6,0.7c0.2,0.3,0.2,0.6,0.1,1.1c0,0.4-0.3,0.9-0.8,1.3
			c-0.5,0.4-1.1,0.7-1.8,1c-0.7,0.3-1.6,0.4-2.5,0.4c-0.9,0-1.9-0.1-2.8-0.5c-1-0.3-1.9-0.9-2.9-1.7c-1-0.8-1.9-1.9-2.7-3.4
			c-0.9-1.4-1.6-3.1-2.2-5.1c-0.6-2-1.1-3.9-1.5-5.8c-0.4-1.9-0.7-3.5-0.9-4.9c-0.2-1.4-0.3-2.1-0.3-2.2c0-0.1,0-0.2-0.1-0.3
			c-0.2-1.5-0.6-2.8-1.1-3.9c-0.5-1.1-1.1-1.9-1.7-2.6c-0.7-0.7-1.4-1.2-2.2-1.6c-0.8-0.4-1.5-0.6-2.3-0.7c-1.9,3.4-3.8,6.3-5.7,8.6
			c-1.9,2.3-3.9,4.2-5.8,5.8c-1.9,1.5-3.8,2.7-5.7,3.4c-1.9,0.8-3.6,1.3-5.2,1.6c-3.9,0.7-7.7,0.4-11.3-1c-2.1-0.9-3.7-2.1-4.7-3.7
			c-0.4-0.7-0.8-1.5-1-2.4c-0.3-0.9-0.3-2-0.2-3.1c0.1-1.2,0.4-2.5,1-4c0.6-1.5,1.4-3.1,2.7-5c0.4-0.6,0.9-1.2,1.3-1.7
			c0.3-0.4,0.7-0.7,1.1-0.8c0.4-0.2,0.8-0.1,1.1,0.3c0.3,0.3,0.5,0.7,0.7,1.1c0.1,0.3,0.2,0.8,0.1,1.3c0,0.5-0.3,1.1-0.8,1.7
			c-1.2,1.7-2.1,3.1-2.6,4.4c-0.5,1.3-0.8,2.3-0.8,3.2c0,0.9,0.2,1.7,0.6,2.3c0.4,0.6,0.9,1.1,1.4,1.5c1.3,0.9,3.3,1.4,5.8,1.4
			c2.7,0,5.1-0.5,7.3-1.4c2.2-0.9,4.3-2.2,6.1-3.7c1.9-1.5,3.5-3.2,5-5.2c1.5-2,2.9-4,4.1-6c0.8-1.3,1.7-3,2.5-4.9
			c0.8-1.9,1.6-4,2.2-6.1c0.6-2.1,1.2-4.2,1.6-6.3c0.4-2.1,0.6-4,0.5-5.7c0-1.7-0.4-3.1-1-4.2c-0.6-1.1-1.6-1.7-2.9-1.7
			c-1.3-0.1-2.3,0.2-3,0.7c-0.8,0.6-1.4,1.3-1.9,2.3c-0.5,0.9-0.9,1.9-1.3,3c-0.4,1.1-0.7,2.1-1.1,3c-0.4,0.9-0.9,1.7-1.4,2.4
			c-0.5,0.6-1.2,0.9-2.1,0.9c-1.4,0-2.3-0.3-2.8-0.9c-0.5-0.5-0.8-1.1-1-1.7c-0.2-0.7-0.1-1.5,0.2-2.4c0.5-1.6,1-2.9,1.7-4
			c0.6-1.1,1.3-2.1,2.1-2.9c0.8-0.8,1.5-1.4,2.3-1.9c0.8-0.5,1.5-0.9,2.3-1.2c1.7-0.7,3.5-0.9,5.4-0.8c0.4,0,1.1,0.1,2,0.3
			c0.9,0.2,1.9,0.6,3,1.3c1,0.7,2,1.6,2.9,2.8c0.9,1.2,1.6,2.8,1.9,4.8c0.3,2,0.3,4.4-0.1,7.3c-0.4,2.9-1.5,6.3-3.1,10.3
			c4-3.3,7.2-6.2,9.5-8.6c2.3-2.5,4.1-4.6,5.2-6.5c1.1-1.9,1.8-3.4,2-4.8c0.2-1.3,0.2-2.4,0-3.4c-0.2-0.9-0.5-1.7-0.8-2.3
			c-0.3-0.6-0.5-1.1-0.5-1.6c0-0.6,0.4-1,0.9-1.1c0.6-0.1,1.1-0.1,1.6,0c0.7,0.2,1.3,0.5,1.7,0.9c0.3,0.2,0.5,0.5,0.8,0.7
			c1.7,2,2.4,4.3,2.1,6.8c-0.3,2.6-1.5,5.3-3.4,8.1c-1.9,2.8-4.5,5.6-7.7,8.4c-3.2,2.8-6.8,5.5-10.9,8c0.8,0.2,1.7,0.5,2.5,0.8
			c0.9,0.4,1.7,0.9,2.4,1.7c0.8,0.7,1.4,1.6,2,2.7c0.6,1.1,1,2.4,1.4,4c1.1,5.4,2.6,10,4.5,13.6C118.7,75.8,121.1,78.2,124.1,79.5z
			 M95.4,53.7c0.1-0.2,0.2-0.4,0.3-0.5c0.1-0.2,0.2-0.3,0.3-0.5c0.3-0.5,0.6-1,0.8-1.5c0.3-0.5,0.5-1,0.8-1.5v-0.1h0.1
			c0.1-0.2,0.2-0.4,0.2-0.5c0.1-0.2,0.1-0.3,0.2-0.6c0.3-0.6,0.7-1.3,0.9-2c0.3-0.7,0.6-1.3,0.8-2c0.2-0.6,0.4-1.3,0.6-1.9
			c0.2-0.6,0.4-1.2,0.6-1.8c0.3-1.2,0.6-2.4,0.8-3.4c0.2-1.1,0.4-2.1,0.5-3c0.1-0.5,0.1-0.9,0.2-1.3c0-0.4,0.1-0.8,0.1-1.1
			c0-0.3,0.1-0.7,0.1-1c0-0.3,0-0.6,0-0.9v-1.2v-0.3v-0.1c0,0.3,0,0.5,0,0.8c0,0.3-0.1,0.5-0.1,0.8c0,0.3,0,0.5,0,0.8
			c0,0.3-0.1,0.5-0.1,0.8c-0.1,0.5-0.2,1-0.3,1.6c-0.1,0.5-0.2,1-0.3,1.6c-0.1,0.5-0.2,1-0.4,1.5c-0.1,0.5-0.2,1-0.4,1.5
			c-0.1,0.5-0.3,0.9-0.4,1.4c-0.2,0.5-0.3,0.9-0.5,1.4c-0.3,0.9-0.6,1.9-1,2.8c-0.3,0.9-0.7,1.8-1.1,2.6c-0.8,1.8-1.7,3.4-2.5,4.8
			c0,0.1-0.2,0.3-0.3,0.6c-0.1,0.1-0.1,0.2-0.2,0.3c0,0.1-0.1,0.2-0.2,0.3c-0.1,0.2-0.2,0.4-0.4,0.6c-0.1,0.2-0.2,0.3-0.4,0.5
			c0,0.1-0.1,0.2-0.1,0.3c0,0.1-0.1,0.2-0.2,0.3c-0.2,0.3-0.3,0.4-0.3,0.5c-0.2,0.3-0.3,0.4-0.4,0.5c-0.1,0.1-0.1,0.2-0.2,0.3
			c0,0.1-0.1,0.2-0.2,0.3c-0.5,0.7-1,1.3-1.5,1.9c-0.5,0.6-1,1.2-1.5,1.8c-1,1.1-2.1,2.1-3.2,3c-1.1,0.9-2.2,1.7-3.2,2.4
			c-1.1,0.7-2.2,1.3-3.2,1.7c-1,0.4-2,0.8-3,1c-1.1,0.3-2,0.5-2.7,0.5c-0.4,0.1-0.8,0.1-1.2,0.1c-0.4,0-0.8,0-1.1,0
			c-0.7,0-1.4,0-1.9-0.1c-0.5-0.1-0.9-0.1-1.3-0.2c-0.3,0-0.6-0.1-0.8-0.2c-0.1,0-0.1,0-0.1,0c0,0,0,0-0.1,0h-0.1
			c0.1,0,0.3,0.1,0.5,0.2c0,0,0.1,0,0.1,0c0,0,0.1,0,0.1,0c0,0,0.1,0.1,0.1,0.1s0.1,0,0.1,0.1c0.1,0,0.3,0,0.6,0.1
			c0.1,0,0.2,0.1,0.3,0.1s0.2,0,0.3,0.1c0.4,0.1,0.8,0.2,1.1,0.2c0.4,0,0.8,0.1,1.2,0.1c0.1,0,0.2,0,0.3,0.1h0.3h0.6
			c0.2,0,0.4,0,0.6,0s0.4,0,0.6-0.1h0.3h0.1h0.2c0.1,0,0.3-0.1,0.6-0.1c0.1,0,0.2-0.1,0.3-0.1l0.3-0.1c0.1,0,0.2,0,0.3,0
			c0.1,0,0.2,0,0.3,0c0.3-0.1,0.5-0.1,0.6-0.1l0.6-0.2l0.3-0.1c0,0,0.1,0,0.1,0c0,0,0.1,0,0.1,0c0.1,0,0.2-0.1,0.3-0.1
			c0.1,0,0.2-0.1,0.3-0.1l0.6-0.2l0.3-0.1c0,0,0.2,0,0.3-0.1l0.6-0.2c0.1-0.1,0.2-0.1,0.3-0.2c0.1,0,0.2-0.1,0.3-0.1
			c0.8-0.3,1.5-0.7,2.2-1.2c0.7-0.5,1.4-0.9,2.1-1.4c1.4-1,2.7-2.1,3.8-3.3c0.6-0.6,1.2-1.2,1.7-1.8c0.5-0.6,1-1.3,1.5-1.9
			c0.1-0.2,0.3-0.3,0.4-0.5c0.1-0.2,0.2-0.3,0.3-0.5c0.1-0.2,0.2-0.4,0.4-0.6c0.1-0.2,0.2-0.3,0.4-0.5c0.1-0.2,0.2-0.3,0.3-0.5
			C95.1,54,95.2,53.8,95.4,53.7z M89.6,21.4c-0.3,0.1-0.5,0.2-0.7,0.4c-0.2,0.2-0.5,0.3-0.7,0.5c-0.5,0.4-0.9,0.8-1.3,1.3
			c-0.4,0.5-0.7,1-1,1.5c-0.3,0.5-0.5,1.1-0.7,1.6c-0.2,0.5-0.4,0.9-0.5,1.4c-0.1,0.5-0.2,0.9-0.3,1.2c0,0.2-0.1,0.3-0.1,0.5
			s0,0.2-0.1,0.3v0.3v0.1c0.1-0.2,0.2-0.4,0.2-0.6c0-0.2,0.1-0.3,0.2-0.5c0-0.2,0.1-0.4,0.2-0.6c0.1-0.2,0.1-0.3,0.2-0.5
			c0.3-0.7,0.5-1.3,0.8-1.9c0.6-1.2,1.2-2.2,1.7-2.8c0.3-0.3,0.6-0.6,0.8-0.9c0.2-0.3,0.5-0.5,0.7-0.7c0.1-0.1,0.2-0.2,0.3-0.2
			l0.2-0.2L89.6,21.4z M118.3,82.3C118.3,82.3,118.3,82.3,118.3,82.3c0.1,0.1,0.1,0.1,0.1,0.1h0.1c-0.8-0.3-1.5-0.8-2.1-1.2
			c-0.6-0.6-1.2-1.2-1.7-1.9c-0.3-0.3-0.5-0.7-0.7-1.1c-0.2-0.4-0.5-0.8-0.7-1.2c-0.2-0.4-0.4-0.9-0.6-1.3c-0.2-0.4-0.3-0.8-0.5-1.3
			c-0.3-0.9-0.6-1.7-0.9-2.6c-0.3-0.9-0.5-1.7-0.7-2.6c-0.2-0.9-0.4-1.7-0.6-2.6c-0.2-0.8-0.3-1.6-0.5-2.4c-0.1-0.4-0.2-0.8-0.2-1.2
			c-0.1-0.4-0.1-0.8-0.2-1.1c0-0.2-0.1-0.4-0.1-0.6c0-0.2-0.1-0.3-0.1-0.5c0-0.1-0.1-0.2-0.1-0.3c0-0.1,0-0.2-0.1-0.3
			c0-0.1,0-0.3-0.1-0.5c-0.1-0.7-0.3-1.3-0.5-1.9c-0.2-0.6-0.4-1.1-0.6-1.6c-0.2-0.5-0.4-0.9-0.6-1.3c-0.2-0.4-0.4-0.7-0.6-0.9
			c-0.1-0.1-0.2-0.2-0.2-0.3c-0.1-0.1-0.1-0.2-0.2-0.3c0,0-0.1,0-0.1-0.1l-0.1-0.1c0.1,0.1,0.2,0.1,0.2,0.2c0,0,0.1,0.1,0.1,0.2
			c0.1,0.1,0.1,0.2,0.1,0.2l0.1,0.2c0.1,0.1,0.1,0.2,0.1,0.2c0.1,0.1,0.1,0.2,0.1,0.2l0.1,0.2c0,0,0,0.1,0,0.1c0,0,0,0.1,0,0.1
			c0,0.1,0.1,0.2,0.1,0.2c0,0,0.1,0.1,0.1,0.2l0.2,0.4l0.2,0.4c0,0,0,0.1,0,0.1c0,0,0,0.1,0,0.1l0.1,0.2c0.2,0.6,0.4,1.1,0.5,1.7
			c0.1,0.5,0.2,1.1,0.3,1.6c0.1,0.3,0.1,0.6,0.2,0.8c0,0.3,0.1,0.5,0.1,0.8c0,0.3,0.1,0.5,0.1,0.8c0,0.3,0.1,0.5,0.1,0.8
			c0.1,0.5,0.2,1,0.3,1.6c0.1,0.5,0.2,1,0.3,1.5c0.2,1,0.4,1.9,0.6,2.8c0.2,0.9,0.4,1.8,0.6,2.6c0.3,0.9,0.5,1.7,0.8,2.4
			c0.3,0.7,0.6,1.4,0.9,2.1c0.2,0.3,0.3,0.7,0.5,0.9c0.2,0.3,0.3,0.6,0.5,0.9c0.2,0.3,0.3,0.6,0.5,0.8c0.2,0.3,0.3,0.5,0.5,0.7
			c0.8,0.9,1.5,1.6,2.1,2c0.2,0.1,0.3,0.2,0.5,0.3c0.2,0.1,0.3,0.2,0.4,0.3c0.3,0.2,0.6,0.3,0.7,0.3c0,0,0.1,0,0.1,0
			c0,0,0.1,0,0.2,0C118.2,82.2,118.2,82.2,118.3,82.3z M108.2,44.9c-0.3,0.3-0.6,0.5-0.8,0.7c-0.2,0.2-0.4,0.4-0.6,0.5
			c-0.2,0.2-0.3,0.3-0.5,0.4c1.4-0.9,2.8-1.8,4.3-2.9c1.5-1.1,2.9-2.2,4.3-3.4c0.2-0.2,0.3-0.3,0.5-0.5c0.2-0.2,0.3-0.3,0.6-0.5l1-1
			l0.5-0.5l0.3-0.3c0,0,0.1-0.1,0.1-0.1c0,0,0.1-0.1,0.2-0.1c0.1-0.2,0.3-0.3,0.4-0.5c0.2-0.2,0.3-0.3,0.5-0.5
			c1.1-1.3,2.2-2.7,3.1-4.2c0.5-0.7,0.9-1.4,1.2-2.1c0.3-0.7,0.6-1.4,0.8-2c0.4-1.3,0.7-2.5,0.8-3.6c0-0.1,0-0.3,0-0.4
			c0-0.1,0-0.2,0-0.3v-0.3V23c0-0.2-0.1-0.4-0.1-0.6c0-0.2,0-0.3-0.1-0.5c0-0.2-0.1-0.3-0.1-0.4c0-0.1,0-0.2,0-0.3
			c0,0-0.1-0.1-0.1-0.2h-0.1V21c0.1,0.3,0.1,0.4,0.1,0.5c0,0.1,0.1,0.3,0.1,0.5c0,0.1,0.1,0.2,0.1,0.5v0.5c0,0.3,0,0.6,0,0.9
			c0,0.3,0,0.6-0.1,0.9c-0.1,0.6-0.2,1.1-0.4,1.6c-0.2,0.5-0.3,1-0.5,1.6c-0.2,0.5-0.4,0.9-0.7,1.4c-0.2,0.5-0.5,0.9-0.8,1.4
			c-0.1,0.2-0.2,0.4-0.4,0.6l-0.1,0.2l-0.1,0.1c0,0.1-0.1,0.1-0.1,0.2c0,0-0.1,0.1-0.1,0.2c0,0.1-0.1,0.1-0.1,0.2
			c0,0-0.1,0.1-0.1,0.2c0,0-0.1,0.2-0.2,0.3c-0.2,0.3-0.3,0.5-0.5,0.6c-0.6,0.8-1.2,1.5-1.8,2.2c-0.6,0.7-1.2,1.3-1.8,1.9
			c-0.6,0.6-1.2,1.2-1.7,1.7c-0.6,0.6-1.1,1.1-1.6,1.6c-1.1,0.9-2,1.8-2.9,2.5C109.5,43.8,108.8,44.4,108.2,44.9z"/>
		<path class="st0" d="M133.2,49c0.2,0.2,0.4,0.3,0.6,0.5c0.2,0.2,0.3,0.4,0.5,0.6c0.2,0.3,0.3,0.5,0.4,0.8c0.1,0.4,0.2,0.9,0.2,1.4
			c0,0.5,0,1.2-0.3,1.9c-0.3,0.9-0.5,2.1-0.8,3.3c-0.3,1.3-0.5,2.4-0.6,3.5c-0.1,1.1,0,1.9,0.2,2.4c0.2,0.5,0.8,0.5,1.6-0.1
			c1.2-0.8,2.2-1.9,3.2-3.3c0.9-1.4,1.8-2.9,2.4-4.5c0.7-1.6,1.2-3.3,1.6-5c0.4-1.7,0.7-3.3,0.8-4.8c0.1-1.5,0.1-2.8-0.1-3.9
			c-0.2-1.1-0.6-1.8-1.1-2.1c-0.2-0.1-0.4-0.3-0.6-0.5c-0.1-0.1-0.2-0.3-0.2-0.5c0-0.2,0.1-0.5,0.3-0.8c0.3-0.3,0.7-0.5,1.3-0.6
			c0.6-0.2,1.2-0.1,1.8,0c0.6,0.2,1.3,0.5,1.8,1.1c0.6,0.6,0.9,1.4,1.1,2.5c0.3,2,0.3,4.2-0.1,6.4c-0.4,2.2-1,4.4-1.8,6.6
			c-0.8,2.1-1.8,4.1-3,6c-1.1,1.8-2.3,3.4-3.5,4.6c-0.8,0.8-1.6,1.4-2.4,1.9c-0.7,0.5-1.6,0.8-2.5,1.1c-0.9,0.3-1.8,0.2-2.8-0.1
			c-0.9-0.3-1.5-0.7-2-1.3c-0.5-0.6-0.8-1.2-1-1.8c-0.2-0.7-0.3-1.5-0.4-2.3c-0.7,1.2-1.4,2.2-2.1,2.9c-0.7,0.7-1.4,1.3-2,1.6
			c-0.7,0.5-1.4,0.8-2,0.9c-1,0.3-1.9,0.3-2.7,0c-0.8-0.3-1.4-0.7-2-1.3c-0.6-0.6-1-1.2-1.3-1.9c-0.3-0.7-0.5-1.4-0.6-2
			c-0.1-1.1-0.1-2.3,0.1-3.5c0.2-1.2,0.4-2.3,0.7-3.5c0.5-1.5,1.1-3,1.8-4.4c0.8-1.4,1.7-2.8,2.8-4c0.7-0.9,1.6-1.9,2.7-2.8
			c1-0.9,2.3-1.4,3.7-1.6c0.3,0,0.7-0.1,1.1-0.1c0.4,0,0.9,0.1,1.3,0.2c0.4,0.1,0.8,0.3,1,0.5c0.3,0.2,0.4,0.4,0.4,0.7
			c0,0.2-0.1,0.4-0.3,0.6c-0.1,0.1-0.2,0.2-0.3,0.2c-1,0.5-2,1.2-2.8,2c-0.8,0.8-1.5,1.7-2.2,2.6c-0.6,0.9-1.2,1.8-1.7,2.8
			c-0.5,1-0.9,1.9-1.3,2.8c-0.4,1-0.8,2-1.1,3.1c-0.3,1.1-0.5,2.2-0.5,3.2c0,0.1,0,0.4,0,0.8c0,0.4,0,0.8,0.1,1.2
			c0.1,0.4,0.2,0.8,0.5,1.1c0.2,0.3,0.5,0.4,1,0.3c0.8-0.4,1.7-1.2,2.6-2.3c0.8-0.9,1.6-2.3,2.6-4c0.9-1.7,1.9-4.1,2.8-7
			c0.2-0.6,0.4-1.2,0.6-1.6c0.2-0.3,0.5-0.6,0.9-0.8C132.1,48.6,132.6,48.7,133.2,49z M118.8,53c0.9-1.6,1.7-3,2.4-4.1
			c0.8-1.1,1.4-2,2-2.8c0.7-0.8,1.4-1.4,2-1.9c-0.9,0.6-1.8,1.3-2.7,2.1c-0.8,0.7-1.6,1.7-2.5,2.9c-0.9,1.2-1.7,2.8-2.4,4.6
			c-0.6,1.5-1,2.9-1.2,4.3c-0.2,1.2-0.2,2.4,0,3.7c0.2,1.3,0.7,2.4,1.6,3.4c-0.4-1.1-0.7-2.3-0.9-3.6c-0.1-1.1-0.1-2.4,0.1-3.9
			C117.4,56.2,117.9,54.7,118.8,53z M142,59.1c1.4-2.8,2.4-5.2,3.1-7.2c0.6-2,1-3.7,1.3-5c0.2-1.6,0.2-2.9,0-3.9
			c-0.1,2.1-0.4,4.1-0.8,6c-0.5,1.9-1,3.6-1.5,5.1C143.4,55.8,142.8,57.5,142,59.1z"/>
		<path class="st0" d="M163.5,56.3c0.5,0,0.7,0.5,0.8,1.3c0.1,0.8-0.1,1.6-0.4,2.6c-0.3,0.9-0.8,1.9-1.5,2.8
			c-0.6,0.9-1.4,1.7-2.3,2.5c-0.9,0.7-2,1.3-3.2,1.6c-1.2,0.4-2.6,0.5-4.1,0.4c-1.4-0.1-2.7-0.6-3.8-1.3c-0.9-0.6-1.7-1.5-2.4-2.8
			c-0.7-1.2-1-3-0.7-5.3c0.1-1.5,0.5-3,1-4.5c0.5-1.3,1.2-2.7,2.2-4.2c1-1.5,2.3-2.9,4-4.2c0.8-0.6,1.7-1.1,2.5-1.6
			c0.7-0.3,1.5-0.6,2.4-0.8c0.9-0.2,1.7-0.1,2.4,0.2c1.3,0.6,2.1,1.4,2.3,2.5c0.3,1.1,0.2,2.1-0.2,3c-0.2,0.5-0.5,1-0.9,1.7
			c-0.4,0.7-0.9,1.4-1.7,2.1c-0.8,0.7-1.8,1.5-3.1,2.2c-1.3,0.7-3,1.4-5,1.9c-0.5,1.4-0.8,2.6-1,3.8c-0.1,1,0,1.9,0.2,2.8
			c0.2,0.9,0.9,1.5,2,1.8c1,0.3,2,0.3,2.9,0c0.9-0.3,1.8-0.9,2.5-1.6c0.8-0.7,1.4-1.5,1.9-2.4c0.5-0.9,0.9-1.7,1.2-2.5
			c0.1-0.2,0.2-0.4,0.3-0.6c0.1-0.3,0.2-0.5,0.4-0.8c0.2-0.3,0.3-0.5,0.5-0.6C163.2,56.3,163.3,56.3,163.5,56.3z M147.3,57.7
			c0.4-1.3,0.9-2.5,1.6-3.8c0.6-1.1,1.3-2.2,2.1-3.4c0.8-1.2,1.9-2.3,3.1-3.3c1.6-1.3,3-2.2,4-2.5c1.1-0.3,1.9-0.3,2.4-0.1
			c-0.2-0.2-0.4-0.3-0.6-0.5c-0.5-0.3-1.1-0.4-1.9-0.3c-0.5,0.1-1.3,0.4-2.2,1c-1,0.6-2,1.5-3.1,2.6c-1.1,1.1-2.1,2.5-3.1,4.2
			C148.7,53.4,147.9,55.4,147.3,57.7z M159,50c0.3-0.3,0.4-0.7,0.5-1c0.1-0.3,0-0.6-0.1-0.8c-0.2-0.2-0.4-0.3-0.8-0.3
			c-0.4,0-0.9,0.2-1.4,0.5c-0.6,0.3-1.1,0.8-1.6,1.4c-0.5,0.6-1,1.2-1.4,1.7c-0.4,0.6-0.7,1-0.9,1.5c-0.2,0.4-0.3,0.6-0.2,0.6
			c0.3,0,0.8-0.1,1.4-0.3c0.6-0.2,1.2-0.5,1.7-0.9c0.6-0.4,1.1-0.8,1.7-1.2C158.3,50.8,158.7,50.4,159,50z"/>
		<path class="st0" d="M183.4,28.2c-0.2,0.2-0.3,0.5-0.5,0.7c-0.1,0.2-0.3,0.5-0.4,0.7c-0.2,0.3-0.3,0.6-0.4,0.9
			c2.2-0.1,4.6-0.1,7.3,0.1c2.7,0.2,5.9,0.7,9.5,1.5c0.4,0.1,0.8,0.2,1.2,0.4c0.3,0.1,0.6,0.3,0.8,0.5c0.2,0.2,0.3,0.4,0.3,0.6
			c0,0.2-0.2,0.3-0.4,0.5s-0.5,0.2-0.9,0.1c-1.8-0.2-3.8-0.3-5.9-0.3c-1.8,0-3.9,0-6.3,0.1c-2.4,0.1-5,0.4-7.8,0.9
			c-1.8,3.6-3.3,7.2-4.7,10.8c-1.4,3.6-2.5,6.9-3.4,9.8c-0.9,3-1.6,5.5-2,7.5c-0.5,2-0.7,3.3-0.7,3.8c0,0.9-0.1,1.5-0.4,1.8
			c-0.3,0.3-0.6,0.4-0.9,0.3c-0.3-0.1-0.7-0.3-1.1-0.6c-0.4-0.3-0.7-0.7-1-1c-0.2-0.3-0.3-0.6-0.4-1c0-0.4,0-0.9,0-1.4
			c0-0.5,0.1-1.1,0.3-1.7c0.4-2.1,0.9-4.3,1.5-6.7c0.6-2.4,1.3-4.7,2.1-7.1c0.8-2.4,1.6-4.7,2.4-6.9s1.6-4.4,2.4-6.4
			c-0.3,0.1-0.6,0.2-0.9,0.3c-0.3,0.1-0.6,0.2-1,0.3c-0.8,0.2-1.5,0.3-2.1,0.4c-0.5,0-1,0-1.3-0.2c-0.4-0.2-0.5-0.5-0.4-1.1
			c0.3-0.7,0.8-1.4,1.5-2.1c0.6-0.6,1.3-1.1,2.2-1.6c0.9-0.5,2-0.8,3.4-0.9c0.1,0,0.2,0,0.4,0c0.1,0,0.2,0,0.3,0
			c0.6-1.5,1.2-2.8,1.6-3.8c0.5-1,0.8-1.8,1-2.2c0.4-0.9,0.9-1.5,1.5-2c0.6-0.5,1.2-0.8,1.9-0.9c0.6-0.2,1.3-0.2,1.9-0.2
			c0.6,0,1.1,0.1,1.6,0.3c0.5,0.2,0.9,0.5,1,1c0.2,0.5,0.2,0.9,0,1.2c-0.1,0.3-0.3,0.6-0.5,0.8c-0.1,0.1-0.2,0.2-0.3,0.3
			C184.7,26.3,183.9,27.3,183.4,28.2z M169.5,52.6c0.5-1.5,0.9-2.9,1.4-4.3c0.4-1.3,0.9-2.7,1.3-3.9c0.5-1.3,0.9-2.6,1.3-3.9
			c0.4-1.3,0.9-2.7,1.4-4.1c-1.4,3.2-2.6,6.4-3.8,9.6c-0.5,1.4-0.9,2.8-1.4,4.3c-0.5,1.5-0.9,3-1.3,4.5c-0.4,1.5-0.8,3-1,4.4
			c-0.3,1.4-0.5,2.8-0.6,4c0.2-1,0.5-2.1,0.8-3.2c0.2-1,0.5-2.1,0.8-3.4C168.7,55.3,169.1,54,169.5,52.6z M182.7,23
			c-0.7,0-1.3,0.1-1.7,0.4c-0.4,0.3-0.8,0.7-1,1c-0.3,0.5-0.5,1-0.6,1.5c0.3-0.5,0.6-0.9,1-1.2c0.4-0.3,0.7-0.6,1.1-0.9
			C181.9,23.5,182.3,23.2,182.7,23z"/>
		<path class="st0" d="M188,51.3c0.1-0.3,0.3-0.7,0.4-1.1c0.1-0.4,0.3-0.8,0.4-1.2c0.2-0.5,0.3-0.9,0.5-1.4c0.1-0.3,0.3-0.6,0.6-0.9
			c0.3-0.3,0.7-0.4,1.1-0.4c0.3,0.1,0.6,0.2,1,0.5c0.4,0.2,0.8,0.6,1.2,1c0.4,0.5,0.6,1,0.7,1.7c0.1,0.7,0,1.5-0.3,2.4
			c-0.1,0.4-0.3,0.9-0.6,1.6c-0.2,0.6-0.5,1.3-0.7,2c-0.2,0.7-0.5,1.3-0.7,1.9c-0.2,0.6-0.4,1.1-0.6,1.5c-0.9,2.5-1.5,4.5-1.7,5.9
			c-0.2,1.4-0.2,2.2,0.2,2.4c0,0,0.1,0.1,0.2,0.1c0,0,0.1,0.1,0.1,0.2c0,0.1,0.1,0.1,0.1,0.2c0.2,0.3,0.2,0.6,0,1
			c-0.3,0.4-0.8,0.7-1.7,0.9c-0.9,0.2-1.7,0-2.4-0.5c-0.2-0.1-0.4-0.3-0.5-0.5c-0.1-0.2-0.2-0.4-0.3-0.6c-0.1-0.2-0.2-0.5-0.3-0.7
			c-0.1-0.3-0.2-0.7-0.3-1c-0.1-0.3-0.1-0.6-0.2-0.9c0-0.3,0-0.6,0-0.8c0-0.6,0.1-1.4,0.3-2.5c-1,1.5-2.2,2.8-3.4,3.8
			c-1.3,1-2.5,1.4-3.8,1.2c-1.3-0.2-2.2-0.7-2.8-1.4c-0.6-0.7-1.1-1.5-1.3-2.4c-0.3-1-0.4-2.1-0.4-3.2c0-0.7,0.1-1.5,0.3-2.3
			c0.1-0.8,0.3-1.5,0.4-2.1c0.2-0.7,0.3-1.4,0.5-2.1c0.4-1.4,0.9-2.8,1.4-4.2c0.5-1.4,1.1-2.7,1.7-3.8c0.5-0.9,1-1.8,1.7-2.8
			c0.6-0.9,1.5-1.6,2.7-2c0.7-0.3,1.4-0.3,2.1-0.1c0.7,0.2,1.2,0.6,1.4,1c0.1,0.2,0.1,0.5,0,0.8c0,0.1-0.1,0.2-0.2,0.3
			c-0.5,0.5-1,1.2-1.6,2.1c-0.5,0.8-1,1.9-1.7,3.4c-0.6,1.4-1.3,3.2-2.1,5.4c-0.3,0.8-0.6,1.6-0.8,2.3c-0.2,0.6-0.4,1.3-0.6,2.1
			c-0.2,0.7-0.3,1.4-0.4,2c-0.2,1-0.2,1.8-0.2,2.4c0.1,0.5,0.2,0.9,0.4,1.2c0.2,0.3,0.4,0.5,0.6,0.5c0.6,0,1.2-0.3,1.9-0.8
			c0.6-0.5,1.3-1.2,1.9-2c0.6-0.8,1.3-1.7,1.8-2.7c0.6-1,1.1-2,1.6-2.9c0.5-0.9,0.9-1.8,1.3-2.6C187.6,52.2,187.9,51.7,188,51.3z
			 M176.7,65.8c-0.6-0.7-1-1.7-1.3-2.8c-0.2-1-0.3-2.3-0.3-3.8c0-1.6,0.4-3.5,1.1-5.8c1.1-3.4,2-6,2.8-7.8c0.4-1,0.8-1.9,1.2-2.6
			c-0.6,0.6-1.1,1.4-1.7,2.4c-0.5,0.9-1,2-1.6,3.5c-0.6,1.4-1.2,3.3-1.8,5.5c-0.6,2.2-0.9,4-0.8,5.5c0,1.5,0.2,2.6,0.6,3.5
			c0.3,0.9,0.7,1.5,1.1,1.9C176.3,65.6,176.6,65.8,176.7,65.8z M188.7,63.3c0.3-1.6,0.7-3.1,1.1-4.4c0.4-1.4,0.8-2.5,1.2-3.5
			c0.5-1.2,0.9-2.2,1.4-3.2c-0.9,1.2-1.5,2.4-2,3.7c-0.5,1.3-0.8,2.5-1.1,3.6C189,60.8,188.8,62.1,188.7,63.3z"/>
		<path class="st0" d="M258.1,19.8c1.4,0.9,2.7,2.1,3.8,3.6c0.9,1.2,1.7,2.7,2.3,4.5c0.6,1.8,0.7,3.9,0.3,6.4
			c-0.5,3.1-1.7,6.1-3.5,8.9c-1.8,2.8-4,5.2-6.5,7.2c-2.5,2-5.1,3.6-7.9,4.7c-2.8,1.1-5.4,1.4-7.8,1.1c-0.8-0.1-1.5-0.2-2.2-0.4
			c-0.6-0.2-1.2-0.4-1.6-0.6c-1.7,4.9-2.9,8.9-3.5,12.1c-0.6,3.1-0.9,5.6-0.9,7.4c0,1.8,0.3,3.2,0.9,4c0.5,0.8,1.2,1.4,1.8,1.7
			c0.7,0.3,1.3,0.5,2,0.6c0.6,0.1,1,0.4,1.3,0.7c0.3,0.6,0.3,1.1-0.2,1.5c-0.5,0.4-0.9,0.7-1.4,0.8c-0.3,0.1-0.7,0.1-1,0.2
			c-0.3,0-0.6,0-0.9,0c-0.3,0-0.7-0.1-1-0.1c-1.9-0.6-3.3-1.5-4.3-2.9c-1-1.4-1.7-3-2.1-4.9c-0.4-1.9-0.5-4-0.3-6.4
			c0.2-2.4,0.6-4.8,1.2-7.3c0.6-2.5,1.3-5.1,2.2-7.7c0.9-2.6,1.8-5.1,2.8-7.5c1.4-3.5,2.7-6.4,3.7-8.7c1.1-2.3,2-4.1,2.7-5.5
			c0.8-1.6,1.6-2.8,2.2-3.6c0.4-0.6,0.9-1,1.4-1.4c0.4-0.3,0.9-0.6,1.6-0.8c0.6-0.2,1.3-0.3,2.1-0.1c0.7,0.1,1.3,0.4,1.8,0.7
			c0.4,0.3,0.6,0.7,0.8,1.2c0.1,0.5-0.1,1.2-0.7,2l-0.3,0.3c-0.1,0.1-0.2,0.2-0.3,0.4c-0.1,0.2-0.3,0.3-0.4,0.4
			c-0.1,0.1-0.4,0.5-0.9,1c-0.5,0.5-1.1,1.5-1.9,2.9c-0.8,1.4-1.8,3.4-3,6c-1.2,2.6-2.5,5.9-4,10.1c1.6,0.5,3.5,0.4,5.8-0.3
			c2.3-0.7,5-2.4,8.2-5c2.1-1.8,3.8-3.6,5.1-5.5c1.3-1.9,2.3-3.7,3.1-5.3c0.9-1.9,1.5-3.8,1.9-5.6c0.3-1.6,0.5-3,0.3-3.9
			c-0.1-1-0.4-1.7-0.7-2.3c-0.4-0.6-0.9-1-1.6-1.3c-1.3-0.7-3.1-0.9-5.6-0.7c-2.5,0.2-5.3,0.9-8.3,2c-3.1,1.1-6.2,2.7-9.5,4.7
			c-3.3,2-6.3,4.5-9,7.3c-2.5,2.5-4.3,4.9-5.6,7.1c-1.3,2.2-2.2,4.1-2.8,5.7c-0.7,1.9-1.1,3.6-1.1,5.2c-0.1,0.7-0.3,1.3-0.6,1.7
			c-0.2,0.4-0.6,0.7-1,0.8c-0.5,0.2-1,0-1.7-0.6c-0.7-0.5-1.2-1.5-1.5-2.8c-0.3-1.4-0.2-3,0.1-4.9c0.3-1.9,1-3.9,2.1-6.2
			c1.1-2.3,2.5-4.6,4.4-7c1.4-1.8,3.1-3.6,5.1-5.4c2-1.8,4.1-3.6,6.4-5.2c2.3-1.6,4.7-3,7.2-4.3c2.5-1.2,5-2.1,7.5-2.7
			c2.5-0.6,4.9-0.7,7.2-0.5C253.9,17.6,256.1,18.4,258.1,19.8z M230.6,27.3c2.7-1.8,5.2-3.3,7.7-4.4c2.5-1.1,4.7-2,6.6-2.7
			c2.2-0.8,4.3-1.3,6.3-1.7c-3.6,0.3-6.9,1-9.8,2c-3,1-5.7,2.2-8.1,3.6c-2.4,1.4-4.6,3-6.5,4.7c-1.9,1.7-3.6,3.4-5,5
			c-3.4,4-6,8.4-7.9,13.3c1.3-2.5,2.7-4.9,4.4-7.2c1.4-2.1,3.2-4.2,5.2-6.5C225.4,31.2,227.8,29.1,230.6,27.3z M232.4,51.3
			c0.1-0.3,0.2-0.7,0.3-1c0.1-0.3,0.3-0.7,0.4-1c0.1-0.2,0.1-0.3,0.2-0.5c0-0.2,0.1-0.3,0.2-0.5l0.4-1c0.2-0.4,0.3-0.8,0.3-1
			c0.1-0.2,0.2-0.5,0.4-0.9c0.1-0.3,0.2-0.6,0.4-0.9c0.1-0.3,0.2-0.6,0.4-0.9c0-0.3,0.2-0.5,0.3-0.8c0.1-0.2,0.2-0.5,0.4-0.8
			c0-0.2,0.2-0.5,0.3-0.8c0.1-0.1,0.1-0.3,0.2-0.4c0-0.1,0.1-0.3,0.2-0.4c0.2-0.6,0.4-1.1,0.6-1.6c0.2-0.5,0.4-0.9,0.6-1.4l0.6-1.4
			l0.6-1.2c0.4-0.8,0.7-1.5,1-2.1c0.3-0.6,0.6-1.1,0.8-1.5c0.1-0.2,0.2-0.4,0.3-0.6c0.1-0.2,0.1-0.3,0.2-0.4l0.1-0.1
			c0,0,0-0.1,0.1-0.1c0,0,0.1-0.1,0.1-0.1c-0.3,0.4-0.6,0.9-0.8,1.3c-0.3,0.4-0.5,0.8-0.8,1.3c-0.2,0.3-0.3,0.5-0.3,0.6
			c-0.1,0.2-0.2,0.4-0.4,0.6c-0.1,0.1-0.2,0.2-0.2,0.3c0,0.1-0.1,0.2-0.2,0.3c0,0.1-0.1,0.2-0.1,0.3c0,0.1-0.1,0.2-0.2,0.4
			c-0.5,0.8-0.9,1.6-1.4,2.5c-0.4,0.8-0.8,1.7-1.2,2.5c-1.5,3.2-2.9,6.4-4.1,9.6c-0.1,0.2-0.2,0.4-0.2,0.6c-0.1,0.2-0.1,0.4-0.2,0.6
			c-0.1,0.2-0.2,0.4-0.2,0.5c-0.1,0.2-0.1,0.3-0.2,0.6l-0.4,1.2c-0.1,0.2-0.2,0.3-0.2,0.5c0,0.2-0.1,0.4-0.2,0.6
			c-0.1,0.2-0.2,0.3-0.2,0.5c0,0.2-0.1,0.4-0.2,0.6c-0.1,0.2-0.1,0.3-0.2,0.5c0,0.2-0.1,0.3-0.2,0.5c-0.1,0.3-0.2,0.4-0.2,0.5
			c0,0.1-0.1,0.2-0.1,0.3c0,0.1,0,0.2-0.1,0.3c-0.2,0.4-0.3,0.7-0.3,1c-0.2,0.7-0.4,1.4-0.6,2c-0.2,0.7-0.3,1.3-0.5,2
			c-0.2,0.6-0.3,1.3-0.4,1.9c-0.1,0.6-0.2,1.2-0.3,1.8c-0.1,0.4-0.1,0.7-0.1,0.9c0,0.2-0.1,0.3-0.1,0.5c0,0.1,0,0.3-0.1,0.5
			c0,0.2,0,0.3-0.1,0.4v0.5c0,0.1,0,0.2,0,0.2c0,0,0,0.1,0,0.2v0.4c0,0.6-0.1,1.1-0.1,1.6c0,0.5,0,1,0,1.5c0,0.5,0.1,0.9,0.1,1.4
			c0,0.4,0.1,0.8,0.2,1.2c0.2,0.9,0.4,1.6,0.6,2.1c0.2,0.6,0.5,1.1,0.8,1.6c0.2,0.3,0.3,0.4,0.4,0.5c0,0.1,0.1,0.2,0.2,0.3
			c0,0,0.1,0,0.1,0.1l0.1,0.1c0.1,0.1,0.1,0.2,0.1,0.2c0,0,0.1,0,0.2,0.1c0,0,0.1,0,0.1,0c0,0,0,0,0.1,0l0.1,0.1
			c0,0,0.1,0.1,0.1,0.1l0.1,0.1c-0.5-0.4-0.9-0.9-1.2-1.6c-0.2-0.3-0.4-0.6-0.5-0.9c-0.1-0.3-0.2-0.7-0.3-1
			c-0.2-0.6-0.3-1.3-0.4-2.1c0-0.3,0-0.4-0.1-0.5v-0.3V74v-0.5v-0.6v-0.5v-0.6c0-0.2,0-0.3,0-0.5c0-0.2,0-0.4,0-0.6
			c0-0.1,0-0.2,0-0.3c0-0.1,0-0.2,0-0.3c0-0.1,0-0.2,0-0.3c0-0.1,0-0.2,0-0.3c0-0.2,0-0.4,0-0.5c0-0.2,0.1-0.3,0.1-0.6
			c0.1-0.7,0.2-1.5,0.4-2.2c0.2-0.8,0.3-1.5,0.5-2.2c0.3-1.5,0.7-3,1.1-4.4c0.4-1.4,0.9-2.9,1.3-4.2c0.1-0.2,0.1-0.4,0.2-0.5
			c0-0.2,0.1-0.3,0.2-0.5c0.1-0.2,0.2-0.4,0.2-0.6c0-0.2,0.1-0.3,0.2-0.5C231.9,52.7,232.1,52,232.4,51.3z M250,51.6
			c2.9-1.3,5.2-3,6.9-5c1.7-2,3-4,3.9-6c1.1-2.2,1.8-4.6,2.2-7c-0.9,3.1-2,5.7-3.5,8c-1.5,2.2-2.9,4.1-4.3,5.6
			C253.5,48.9,251.8,50.4,250,51.6z"/>
		<path class="st0" d="M276.3,51.2c0,0.8-0.1,1.6-0.3,2.3s-0.6,1.6-1.1,2.6c-1,2.1-1.6,3.7-1.9,4.9c-0.3,1.1-0.2,1.8,0.1,2
			c0,0,0.1,0,0.2,0c0.1,0,0.1,0,0.2,0c0.1,0,0.2,0,0.4,0c0.2,0,0.3,0.1,0.6,0.3c0.2,0.1,0.3,0.3,0.4,0.6c0,0.2,0,0.5-0.3,0.8
			c-0.9,0.7-1.8,1-2.7,0.8c-0.9-0.2-1.7-0.6-2.3-1.2c-0.5-0.6-0.8-1.3-0.9-2.1c-0.1-0.8-0.1-1.5-0.1-1.9c-0.8,0.8-1.6,1.6-2.4,2.5
			c-0.8,0.8-1.7,1.6-2.5,2.2c-0.8,0.6-1.6,1.2-2.3,1.6c-0.8,0.4-1.4,0.6-2,0.6c-1.3,0-2.2-0.5-2.9-1.5c-0.7-1-1-2.2-0.9-3.7
			c0-1.4,0.3-2.8,0.9-4.4c0.5-1.6,1.2-3.1,2.1-4.6c0.9-1.5,1.8-2.9,2.9-4.3c1.1-1.4,2.1-2.5,3.2-3.5c1.1-1,2.2-1.7,3.2-2.3
			c1-0.5,1.9-0.7,2.7-0.6c1.3,0.2,2.2,0.6,3,1.3c0.7,0.6,1.2,1.3,1.5,2c0.3,0.7,0.4,1.3,0.3,1.8c-0.1,0.5-0.3,0.8-0.7,0.9
			c-0.3,0-0.6,0-0.7-0.1c-0.1-0.1-0.2-0.2-0.3-0.4c0-0.2-0.1-0.3-0.1-0.5c0-0.2-0.1-0.3-0.3-0.4c-0.1-0.1-0.3-0.2-0.6-0.2
			c-0.3,0-0.6,0.1-1.1,0.3c-0.4,0.2-0.9,0.6-1.6,1.1c-0.6,0.5-1.3,1.3-2.1,2.2c-0.8,0.9-1.7,2.1-2.6,3.6c-0.9,1.4-1.7,2.8-2.5,4.2
			c-0.7,1.4-1.2,2.5-1.6,3.5c-0.3,1-0.3,1.5,0,1.5c0.2,0,0.6-0.1,1.2-0.5c0.6-0.4,1.2-0.9,1.9-1.6c0.7-0.7,1.5-1.4,2.4-2.3
			c0.8-0.9,1.7-1.7,2.5-2.7c0.8-0.9,1.5-1.8,2.1-2.7c0.6-0.9,1.1-1.7,1.5-2.4c0-0.2,0.1-0.4,0-0.5c0-0.2,0-0.3,0-0.6
			c0-0.1,0-0.2,0-0.3c0-0.2,0.1-0.4,0.5-0.6c0.3-0.1,0.6-0.2,1-0.2c0.4,0,0.7,0.1,1,0.2c0.3,0.2,0.6,0.4,0.8,0.8
			C276.1,50.2,276.3,50.6,276.3,51.2z M257.1,63.7c0-0.9,0.2-1.9,0.6-3.1c0.3-1,0.8-2.2,1.4-3.7c0.6-1.5,1.6-3.2,2.8-5.1
			c1.2-1.9,2.4-3.4,3.5-4.5c1.1-1,2.1-1.8,2.9-2.3c1-0.6,1.9-0.9,2.8-1c-0.1-0.2-0.4-0.3-1-0.4c-0.6-0.1-1.3,0.1-2.2,0.5
			c-0.9,0.4-2,1.2-3.1,2.3c-1.2,1.1-2.4,2.7-3.7,4.9c-1.3,2.2-2.3,4-2.8,5.5c-0.6,1.5-0.9,2.8-1.1,3.8
			C256.9,61.9,256.9,62.9,257.1,63.7z"/>
		<path class="st0" d="M286.5,63.5c-0.2,0.6-0.4,1.1-0.6,1.7c-0.2,0.5-0.5,1.1-0.7,1.8s-0.6,1.4-1,2.2c1.7-0.2,3.4-0.3,5.1-0.4
			c1.7,0,3.3,0,4.9,0.1c1.6,0.1,3,0.4,4.3,0.7c1.3,0.3,2.5,0.8,3.5,1.3c0.4,0.3,0.8,0.6,1.2,1c0.3,0.3,0.6,0.7,0.9,1.2
			c0.3,0.4,0.4,0.9,0.5,1.6c0,0.4,0,0.7-0.1,1c-0.1,0.3-0.2,0.5-0.3,0.7c-0.1,0.2-0.4,0.3-0.7,0.3c-0.3,0-0.5-0.1-0.6-0.3
			c-0.1-0.1-0.2-0.3-0.3-0.4c-0.1-0.2-0.3-0.4-0.5-0.5c-0.3-0.1-0.9-0.3-1.6-0.5c-0.8-0.2-1.7-0.5-2.9-0.7c-1.2-0.2-2.7-0.4-4.3-0.5
			c-1.7-0.1-3.6-0.1-5.9-0.1c-0.9,0-1.9,0.1-2.8,0.1c-0.9,0-1.9,0.1-2.8,0.2c-0.8,1.3-1.6,2.4-2.6,3.5c-0.9,1.1-1.9,2-2.9,2.8
			c-1,0.8-2.1,1.4-3.3,1.8c-1.1,0.4-2.3,0.6-3.6,0.5c-0.1,0-0.3,0-0.5-0.1c-0.1,0-0.3-0.1-0.5-0.1c-0.2,0-0.3-0.1-0.5-0.2
			c-0.5-0.2-0.9-0.5-1.1-0.9c-0.2-0.4-0.4-0.6-0.5-0.7c-0.1-0.4-0.2-0.9-0.2-1.4c0-0.6,0.1-1.2,0.4-1.8c0.3-0.6,0.8-1.3,1.5-2.1
			c0.7-0.7,1.7-1.5,3-2.3c1.7-1.1,3.9-2,6.8-2.7c1.7-3.5,3-6.4,3.7-8.8c0.8-2.4,1.2-4.3,1.4-5.7c0.2-1.5,0.1-2.6-0.1-3.3
			c-0.2-0.7-0.5-1.2-0.7-1.5c-0.1-0.2-0.2-0.4-0.2-0.6c0-0.2,0-0.4,0.1-0.6c0-0.2,0.1-0.4,0.2-0.6c0.1-0.3,0.4-0.7,0.7-1.2
			c0.3-0.3,0.6-0.7,1.1-1.2c0.5-0.4,1.2-0.9,2-1.4c0.2-0.1,0.4-0.2,0.6-0.3c0.2-0.1,0.5-0.3,0.7-0.4c0.3-0.2,0.5-0.3,0.8-0.5
			c0.2-0.1,0.3-0.2,0.4-0.3c0-0.1,0.1-0.2,0.1-0.2c0-0.1-0.1-0.2-0.3-0.4c-0.2-0.2-0.6-0.4-1-0.5c-0.5-0.1-0.9-0.1-1.4-0.1
			c-0.4,0-0.7,0-1-0.1c-1,1.4-2,2.7-3,3.9c-1,1.2-2,2.3-2.8,3.3c-0.1,0.1-0.2,0.2-0.4,0.2c-0.2,0.1-0.3-0.2-0.3-0.7
			c0-0.5,0.2-1,0.4-1.7c0.2-0.7,0.4-1.2,0.5-1.5c0,0,0-0.1,0.1-0.1c0,0,0.1-0.1,0.1-0.1c0,0,0-0.1,0.1-0.2c0.4-0.5,0.9-1,1.5-1.6
			c0.5-0.6,1.1-1.3,1.6-2c-0.9-0.4-1.4-1.1-1.6-2c-0.2-0.9-0.1-1.9,0.2-3c0.3-1.1,0.7-2.2,1.4-3.2c0.6-1.1,1.3-2,2.1-2.8
			c0.8-0.8,1.5-1.3,2.3-1.6c0.8-0.3,1.4-0.1,1.9,0.4c0.5,0.6,0.8,1.2,0.9,2c0.1,0.8,0,1.7-0.3,2.6c-0.3,0.9-0.7,1.9-1.2,3
			c-0.5,1-1.2,2.1-1.8,3.2c0.5,0,0.9,0.1,1.3,0c0.4,0,0.7-0.1,1-0.1c0.3,0,0.6-0.1,0.8-0.1c0.1,0,0.3-0.1,0.6-0.2
			c0.3-0.1,0.7-0.1,1,0c0.6,0.1,1.2,0.6,1.6,1.3c0.2,0.3,0.3,0.7,0.4,1.2c0.1,0.3,0.1,0.8,0.1,1.3c0,0.5-0.2,1-0.4,1.7
			c-0.2,0.4-0.4,0.9-0.8,1.4c-0.3,0.5-0.8,1-1.4,1.4c-0.7,0.4-1.4,0.7-2.1,0.8c-0.7,0.2-1.3,0.3-1.8,0.4c-0.2,0-0.4,0.1-0.6,0.1
			h-0.2c0.1,0.1,0.2,0.3,0.3,0.4c0.1,0.1,0.2,0.3,0.3,0.4c1.1,1.9,1.6,3.9,1.6,6.1C287.4,59.4,287.1,61.5,286.5,63.5z M268.4,79.6
			c0.3,0.1,0.6,0.2,1,0.2c0.4,0,0.9-0.1,1.4-0.3c0.5-0.3,1.1-0.7,1.8-1.4c0.7-0.7,1.4-1.6,2.3-2.9c-1.4,0.4-2.6,1-3.7,1.7
			C270.1,77.6,269.1,78.5,268.4,79.6z M284.3,39.7c0.6-0.9,1.1-1.7,1.6-2.5c0.5-0.8,0.8-1.6,0.9-2.3c0.2-0.9,0.2-1.2-0.1-1.1
			c-0.3,0.1-0.6,0.5-1,1.1c-0.4,0.6-0.8,1.4-1.1,2.3C284.3,38.1,284.2,39,284.3,39.7z M284.6,50.7c0.7,1.6,1.1,3.4,1.2,5.2
			c0.1,1.8,0,3.5-0.2,5.1c-0.3,1.9-0.7,3.7-1.2,5.5c1.1-2.9,1.8-5.3,1.9-7.4c0.2-2,0.1-3.7-0.1-4.9C286,52.8,285.4,51.6,284.6,50.7z
			 M285.9,70.2c2.9-0.1,5.4,0,7.4,0.2c2,0.2,3.7,0.4,4.9,0.7c1.5,0.3,2.7,0.7,3.6,1.2c-1.3-0.9-2.9-1.5-4.7-1.8
			c-1.8-0.3-3.6-0.5-5.2-0.5C290,69.9,288,70,285.9,70.2z"/>
		<path class="st0" d="M305,51.3c0.1-0.3,0.3-0.7,0.4-1.1c0.1-0.4,0.3-0.8,0.4-1.2c0.2-0.5,0.3-0.9,0.5-1.4c0.1-0.3,0.3-0.6,0.6-0.9
			c0.3-0.3,0.7-0.4,1.1-0.4c0.3,0.1,0.6,0.2,1,0.5c0.4,0.2,0.8,0.6,1.2,1c0.4,0.5,0.6,1,0.7,1.7c0.1,0.7,0,1.5-0.3,2.4
			c-0.1,0.4-0.3,0.9-0.6,1.6c-0.2,0.6-0.5,1.3-0.7,2c-0.2,0.7-0.5,1.3-0.7,1.9c-0.2,0.6-0.4,1.1-0.6,1.5c-0.9,2.5-1.5,4.5-1.7,5.9
			c-0.2,1.4-0.2,2.2,0.2,2.4c0,0,0.1,0.1,0.2,0.1c0,0,0.1,0.1,0.1,0.2c0,0.1,0.1,0.1,0.1,0.2c0.2,0.3,0.2,0.6,0,1
			c-0.3,0.4-0.8,0.7-1.7,0.9c-0.9,0.2-1.7,0-2.4-0.5c-0.2-0.1-0.4-0.3-0.5-0.5c-0.1-0.2-0.2-0.4-0.3-0.6c-0.1-0.2-0.2-0.5-0.3-0.7
			c-0.1-0.3-0.2-0.7-0.3-1c-0.1-0.3-0.1-0.6-0.2-0.9c0-0.3,0-0.6,0-0.8c0-0.6,0.1-1.4,0.3-2.5c-1,1.5-2.2,2.8-3.4,3.8
			c-1.3,1-2.5,1.4-3.8,1.2c-1.3-0.2-2.2-0.7-2.8-1.4c-0.6-0.7-1.1-1.5-1.3-2.4c-0.3-1-0.4-2.1-0.4-3.2c0-0.7,0.1-1.5,0.3-2.3
			c0.1-0.8,0.3-1.5,0.4-2.1c0.2-0.7,0.3-1.4,0.5-2.1c0.4-1.4,0.9-2.8,1.4-4.2c0.5-1.4,1.1-2.7,1.7-3.8c0.5-0.9,1-1.8,1.7-2.8
			c0.6-0.9,1.5-1.6,2.7-2c0.7-0.3,1.4-0.3,2.1-0.1c0.7,0.2,1.2,0.6,1.4,1c0.1,0.2,0.1,0.5,0,0.8c0,0.1-0.1,0.2-0.2,0.3
			c-0.5,0.5-1,1.2-1.6,2.1c-0.5,0.8-1,1.9-1.7,3.4c-0.6,1.4-1.3,3.2-2.1,5.4c-0.3,0.8-0.6,1.6-0.8,2.3c-0.2,0.6-0.4,1.3-0.6,2.1
			c-0.2,0.7-0.3,1.4-0.4,2c-0.2,1-0.2,1.8-0.2,2.4c0.1,0.5,0.2,0.9,0.4,1.2c0.2,0.3,0.4,0.5,0.6,0.5c0.6,0,1.2-0.3,1.9-0.8
			c0.6-0.5,1.3-1.2,1.9-2c0.6-0.8,1.3-1.7,1.8-2.7c0.6-1,1.1-2,1.6-2.9c0.5-0.9,0.9-1.8,1.3-2.6C304.5,52.2,304.8,51.7,305,51.3z
			 M293.6,65.8c-0.6-0.7-1-1.7-1.3-2.8c-0.2-1-0.3-2.3-0.3-3.8c0-1.6,0.4-3.5,1.1-5.8c1.1-3.4,2-6,2.8-7.8c0.4-1,0.8-1.9,1.2-2.6
			c-0.6,0.6-1.1,1.4-1.7,2.4c-0.5,0.9-1,2-1.6,3.5c-0.6,1.4-1.2,3.3-1.8,5.5c-0.6,2.2-0.9,4-0.8,5.5c0,1.5,0.2,2.6,0.6,3.5
			c0.3,0.9,0.7,1.5,1.1,1.9C293.3,65.6,293.5,65.8,293.6,65.8z M305.6,63.3c0.3-1.6,0.7-3.1,1.1-4.4c0.4-1.4,0.8-2.5,1.2-3.5
			c0.5-1.2,0.9-2.2,1.4-3.2c-0.9,1.2-1.5,2.4-2,3.7c-0.5,1.3-0.8,2.5-1.1,3.6C305.9,60.8,305.7,62.1,305.6,63.3z"/>
		<path class="st0" d="M320,41c0.3,0,0.6,0.1,0.8,0c0.3,0,0.5-0.1,0.6-0.1c0.2,0,0.3-0.1,0.5-0.1c0.1,0,0.3-0.1,0.6-0.2
			c0.3-0.1,0.7-0.1,1,0c0.3,0.1,0.6,0.2,0.9,0.4c0.3,0.2,0.5,0.5,0.7,0.9c0.3,0.5,0.5,1.1,0.5,1.6c0,0.6-0.1,1.1-0.2,1.6
			c-0.1,0.5-0.3,1-0.5,1.4c-0.2,0.4-0.3,0.7-0.3,0.8c-0.7,1.6-1.6,3.3-2.6,5.2c-1,1.9-1.9,3.7-2.7,5.5c-0.8,1.8-1.3,3.3-1.5,4.7
			c-0.2,1.4,0.1,2.4,0.9,2.9c0,0,0.1,0.1,0.2,0.1c0.1,0.1,0.2,0.3,0.2,0.5c0,0.2-0.2,0.4-0.4,0.6c-0.2,0.2-0.5,0.3-0.9,0.4
			c-0.7,0.1-1.4,0-2.1-0.4c-0.7-0.4-1.3-1-1.8-1.8c-0.5-0.8-0.8-1.9-0.8-3.1c-0.1-1.3,0.2-2.8,0.8-4.4c0.6-1.5,1.2-3,2-4.4
			c0.8-1.4,1.5-2.8,2.2-3.9c0.7-1.2,1.3-2.2,1.9-3c0.6-0.8,0.9-1.4,1.1-1.8c0.3-0.5,0.3-0.9,0-1.1c-0.2-0.3-0.7-0.4-1.5-0.4
			c-0.4,0-0.8,0-1.1-0.1c-1,1.4-2,2.7-3,3.9c-1,1.2-2,2.3-2.8,3.3c-0.1,0.1-0.2,0.2-0.4,0.2c-0.2,0.1-0.3-0.2-0.3-0.7
			c0-0.5,0.1-1,0.3-1.7c0.2-0.7,0.4-1.2,0.5-1.5c0,0,0-0.1,0.1-0.1l0.1-0.3c0.5-0.5,1-1,1.5-1.6c0.5-0.6,1.1-1.3,1.7-2
			c-0.9-0.4-1.4-1.1-1.6-2c-0.2-0.9-0.1-1.9,0.2-3c0.3-1.1,0.7-2.2,1.4-3.2c0.6-1.1,1.3-2,2.1-2.8c0.8-0.8,1.5-1.3,2.3-1.6
			c0.8-0.3,1.4-0.1,1.9,0.4c0.5,0.6,0.8,1.2,0.9,2c0.1,0.8,0,1.7-0.3,2.6c-0.3,0.9-0.7,1.9-1.3,3C321.4,38.9,320.7,40,320,41z
			 M317.3,54.2c0.5-1.1,1-2.2,1.6-3.2c0.6-1.1,1.1-2.2,1.7-3.4c-1,1.3-2,2.8-2.8,4.3c-0.7,1.3-1.4,2.8-2.1,4.4
			c-0.7,1.6-1.1,3.3-1.3,5c0.3-0.7,0.5-1.4,0.8-2.2c0.3-0.6,0.6-1.4,0.9-2.2C316.5,56,316.9,55.2,317.3,54.2z M318.5,39.7
			c0.6-0.9,1.1-1.7,1.6-2.5c0.5-0.8,0.8-1.6,0.9-2.3c0.2-0.9,0.2-1.2-0.1-1.1c-0.3,0.1-0.6,0.5-1,1.1c-0.4,0.6-0.8,1.4-1.1,2.3
			C318.5,38.1,318.4,39,318.5,39.7z"/>
		<path class="st0" d="M325.7,50.4c0.1-0.3,0.3-0.7,0.4-1.1c0.1-0.4,0.2-0.7,0.3-0.9c0.1-0.3,0.3-0.6,0.4-0.9
			c0.1-0.3,0.3-0.6,0.5-0.9c0.3-0.3,0.6-0.5,1.1-0.3c0.3,0,0.6,0.2,1,0.4c0.4,0.2,0.8,0.6,1.2,1c0.4,0.4,0.6,1,0.7,1.7
			c0.1,0.7,0,1.5-0.3,2.5c-0.3,0.8-0.6,1.6-0.9,2.5c-0.3,0.8-0.6,1.6-0.9,2.4c-0.9,2.5-1.5,4.4-1.7,5.8c-0.2,1.4-0.2,2.2,0.2,2.5
			h0.1c0.2,0.1,0.3,0.2,0.4,0.4c0.2,0.3,0.2,0.7,0,1c-0.1,0.2-0.4,0.4-0.7,0.6c-0.3,0.2-0.7,0.3-1.1,0.4c-0.4,0.1-0.8,0.1-1.2,0
			c-0.4-0.1-0.8-0.3-1.1-0.5c-0.2-0.1-0.3-0.2-0.5-0.4c-0.2-0.2-0.3-0.4-0.4-0.6c-0.1-0.2-0.2-0.5-0.3-0.7c-0.1-0.3-0.2-0.7-0.3-1
			c-0.1-0.3-0.1-0.6-0.2-0.9c0-0.3,0-0.6,0-0.8c0-0.7,0.1-1.6,0.3-2.6c0.2-1,0.5-2,0.8-3.1c0.3-1.1,0.6-2.1,1-3.2
			C325,52.3,325.4,51.3,325.7,50.4z M326.2,53.3c0.3-1.1,0.7-2,0.9-2.8c0.3-0.8,0.5-1.5,0.7-2.3c-0.8,1.8-1.5,3.5-2.1,5.1
			c-0.5,1.4-0.9,2.8-1.3,4.3c-0.4,1.5-0.5,2.8-0.3,3.8c0.2-0.8,0.3-1.7,0.5-2.6c0.2-0.8,0.4-1.7,0.6-2.6
			C325.6,55.4,325.8,54.4,326.2,53.3z M335.7,37.2c0.4,0.2,0.7,0.5,0.8,0.8c0.1,0.3,0.2,0.6,0.1,0.9c0,0.2-0.2,0.5-0.3,0.7
			c-0.1,0.1-0.2,0.2-0.3,0.3c-0.6,0.7-1.1,1.4-1.6,2.2c-0.4,0.8-0.8,1.3-1,1.7c-0.1,0.1-0.2,0.3-0.4,0.6c-0.2,0.3-0.3,0.5-0.6,0.7
			c-0.2,0.2-0.5,0.4-0.7,0.6c-0.3,0.2-0.5,0.2-0.8,0.1c-0.8-0.4-1.4-0.9-1.7-1.4c-0.1-0.2-0.2-0.4-0.2-0.8c0-0.3,0.1-0.7,0.1-1
			c0.1-0.3,0.1-0.7,0.2-0.9c0.1-0.3,0.2-0.5,0.2-0.6c0.1-0.3,0.2-0.6,0.2-0.8c0.1-0.2,0.1-0.3,0.2-0.5c0.3-0.7,0.6-1.3,1.1-1.7
			c0.5-0.4,1-0.7,1.5-0.9c0.5-0.2,1.1-0.3,1.6-0.2C334.9,36.9,335.3,37.1,335.7,37.2z M330,43.2c0.3-0.8,0.6-1.5,0.9-2.1
			c0.4-0.6,0.7-1.2,1.1-1.7c0.4-0.5,0.8-1,1.2-1.4c-0.6,0.1-1.1,0.4-1.5,1c-0.4,0.6-0.7,1.1-1,1.7C330.4,41.5,330.2,42.3,330,43.2z"
			/>
	</g>
	<g>
		<path class="st0" d="M169.3,336.5l-2.2,6.9h-2.9c-2.8,0-5.2,0-7.3,0.1l2.1,1.1c-1.5,2.9-3.4,8-5.6,15.2c-0.8,2.7-1.8,6.4-3,11.1
			l-0.3,0.1c-2.1,0.4-5.1,1.1-8.8,2.1c1.2-4.5,2.5-8.9,4-13.4c0.9-2.8,2.4-6.4,4.5-11c0.5-1.1,1.3-2.8,2.4-5
			c-3,0.3-6.4,0.7-10.3,1.2l2.1-7.2c3.5-0.3,7.4-0.5,11.8-0.8C158.8,336.9,163.2,336.7,169.3,336.5z"/>
		<path class="st0" d="M200.2,343.9l-2.1,1.4c0.7,1.9,1,3.6,1,4.9c0,1-0.2,2.4-0.5,4.1c-1,5.6-3,10-6.2,13.3
			c-3.5,3.6-7.9,5.4-13.3,5.4c-4.4,0-7.9-1.5-10.4-4.6c-2.3-2.8-3.4-6.5-3.4-11c0-1,0.1-2,0.2-3.1c0.6-4.8,2.7-9,6.3-12.5
			c3.8-3.6,8-5.3,12.9-5.3C192,336.5,197.2,339,200.2,343.9z M190.7,355.2c0.1-0.7,0.2-1.2,0.2-1.6c0-1.8-0.6-3.3-1.7-4.2l1.5-0.8
			c-1.3-2.6-3.5-4-6.6-4c-3.1,0-5.7,1-7.8,3c-2,1.9-3.2,4.5-3.7,7.7c-0.1,0.7-0.2,1.4-0.2,1.9c0,2.4,0.7,4.4,2.1,6.1
			c1.5,1.8,3.4,2.7,5.7,2.7c2.8,0,5.2-1.1,7.1-3.3C189.1,360.6,190.2,358.2,190.7,355.2z"/>
		<path class="st0" d="M233.1,336.5c-0.6,1.5-1.7,4.7-3.2,9.5s-2.7,8.4-3.5,10.7c-2.3,6.4-4.8,10.8-7.7,13.2
			c-2.4,2.1-5.6,3.1-9.5,3.1c-2,0-3.9-0.7-5.9-2.1c-2.8-2-4.2-5-4.2-8.9c0-1.6,0.2-3.4,0.7-5.3c1.5-5.9,3.9-12.3,7.1-19.3l7.8-0.9
			c-1.7,4.2-2.9,6.9-3.4,8.2c-1.9,4.9-3.3,8.9-4.1,12.1c-0.3,1.2-0.4,2.3-0.4,3.5c0,3.5,1.3,5.2,3.8,5.2c2.9,0,5.4-2.9,7.5-8.7
			l7.5-20.2H233.1z"/>
		<path class="st0" d="M259.2,347.2c-1,5.3-4.4,8.6-10.2,10c3.7,4.1,6.8,8.1,9.3,12.2l-8.2,3c-2.4-4.8-5.5-9.5-9.5-14.1l-1.2-1
			l-0.8,2.5c-0.6,1.8-1.6,5.5-3,11.2l-0.3,0c-2.5,0.5-5.5,1.2-8.8,2.1c1.1-4.3,2.4-8.7,4-13.3c1-2.9,2.5-6.6,4.5-11
			c0.4-0.9,1-2.1,1.8-3.6c-0.7,0.2-1.2,0.4-1.7,0.5l-1.7-8.2c4.1-0.6,7.6-0.9,10.6-0.9c0.7,0,1.5,0,2.3,0.1c2.4,0.2,3.7,0.3,4.1,0.4
			c1.2,0.2,2.6,0.6,4.2,1.3c3.3,1.4,5,3.8,5,7.1C259.4,345.9,259.3,346.5,259.2,347.2z M251.9,346.4c0-1.3-0.9-2.2-2.6-2.8
			c-0.5-0.2-1.3-0.3-2.4-0.3h-0.6c-1,0-2.3,0.3-4,0.8l1.7,0.9c-0.6,1-1.2,2.3-1.8,3.7c0,0.1-0.4,1-1,2.6l2.1-0.1
			c2.1,0,3.9-0.4,5.4-0.9C250.8,349.5,251.9,348.2,251.9,346.4z"/>
	</g>
	<linearGradient id="XMLID_2_" gradientUnits="userSpaceOnUse" x1="239.1833" y1="103.0787" x2="75.45" y2="437.664">
		<stop  offset="0" style="stop-color:#FDD535"/>
		<stop  offset="1" style="stop-color:#F7BC3A"/>
	</linearGradient>
	<path id="XMLID_264_" class="st1" d="M189.9,98c-58.4,0-105.8,47.4-105.8,105.8c0,27.7,10.6,52.9,28,71.7c1,1.1,2,2.1,3,3.1
		c0.3,0.3,0.6,0.6,0.9,0.9c2.6,2.6,5.4,5,8.3,7.3c4,1,8.3,1.8,13.1,0.9c1.5,0,2.3-0.8,3.8-0.8c2.3,0,4.6-0.8,6.9-0.8h6.1
		c-1.5,0-15.3,2.3-10.7,3.1c3.4,0.7-7.4,3.2-10.6,3.7c0,0,0.1,0.1,0.1,0.1c8.9-0.1,20-2,31.2-3.7c10-1.5,20.1-2.8,28.9-2.4
		c3.7,0.7,14.3,2.9,19.9,3c0.2,0,0.5,0,0.7,0c-0.1,0-0.2-0.1-0.3-0.1c-10.6-4.2,0.6-3.5,9.3-3.1c2.1,0.1,4.1,0.2,5.5,0.2
		c9,0.6,17.5,0.7,25.9,0.7c3.3-2.5,6.5-5.3,9.4-8.2h0c0.1,0,0.1-0.1,0.2-0.2c0.3-0.2,0.5-0.5,0.8-0.7c0.7-0.7,1.3-1.3,1.9-2h0
		c1.6-1.6,3.1-3.3,4.5-5.1c15.3-18.3,24.5-41.9,24.5-67.6C295.7,145.4,248.3,98,189.9,98z M145.5,154.1c-0.5-0.1-0.8-0.4-1.2-0.7
		c-0.4-0.3-0.6-0.6-1-0.8c-0.4-0.3-0.5-0.8-0.6-1.2c-0.2-0.5,1-0.9,1.7-1.2c1-0.5,2.4-1.2,3.2-1.8c0.5-0.4,0.8-1.5,1-2
		c0.2-0.5,0-0.3-0.2-0.7c-0.2-0.5-0.1-0.6-0.7-0.7c-0.5-0.1-0.2-0.4-0.7-0.5c-0.5-0.1-0.4-0.4-0.9-0.7c-0.5-0.4,0-0.7-0.6-0.8
		c-0.6-0.1-0.3-0.7-1-0.9c-0.7-0.2-0.2-0.6-0.8-0.9c-0.6-0.3,0-0.9-0.6-1.2c0,0,0,0,0,0c-0.6-0.3-0.4-1-0.9-1.5
		c-0.1-0.1-0.1-0.1-0.2-0.2c-0.5-0.5,1.2,0.1,1.9,0.3c0.7,0.2,1.8,0.4,3.1,0.3c0,0,0.1,0,0.4,0c0-0.2-0.1-0.4-0.2-0.7
		c-0.1-0.5,0.4-0.5,0.2-1c-0.2-0.4,0.1-0.7,0.2-1.2c0.1-0.5,0.7-0.3,0.7-0.6c0-0.4,0.1-0.6,0.1-0.6c0.1-0.2,0.2-0.3,0.2-0.4
		c0.2-0.2,0.4,0.7,0.6,1.4c0.4,1.1,1.3,2,1.9,2.6c0.4,0.4,1.2,0.9,1.4,1.4c0.7-0.5,1.9-1.4,2.6-1.4c0,0,0.3,0,0.6,0.3
		c0.3,0.3,0.6,0.6,0.9,0.7c0.3,0.1-0.1,0.3-0.6,0.7c-0.6,0.5-1.2,1.3-1.2,2.6c0,0,0,3.2-3,4.8c-0.6,0.3-1.6,0.6-1.9,1
		c-0.1,0.2-0.2,0.5-0.3,0.8c0,0-0.5,2-2.1,4.6c0,0-0.3,0.6-0.7,0.5C146.4,154.4,146,154.2,145.5,154.1z M175.6,155.7
		c0,0-0.2,0.2-0.4,0.4c-0.2,0.3-0.4,0.9-0.7,1.2c-0.3,0.3-0.6,0.7-0.7,0.9c-0.1,0.2-0.5,0.3-0.4,0.5c0,0.1,0.1,0.2,0.1,0.3
		c0,0.2-0.2,0.3-0.3,0.4c-0.3,0.2-0.7,0.3-1.1,0.3c-0.3,0,0.1,0.5-0.1,0.7c-0.1,0.2-0.8,0.4-0.8,0.5c0,0,0,0.3-0.5,0.5
		c-0.4,0.1-0.8,0.5-1,0.9c-0.2,0.4-0.6,1-0.8,1.4c-0.1,0.2-0.3,0.4-0.5,0.6c0,0-0.2,0.2-0.3,0.3c0.1,0.3,0.1,0.6,0.1,0.9
		c0,0.1-0.1,1.2-0.1,1.1c0,0-0.4-0.3-0.8-0.4c-0.5-0.1-1.1,0.9-1.7,1.7c-0.6,0.8-1.5,1.8-3,2.7c0,0-1.7,1.1-5.1,2c0,0-1.2,0.3-2.4,3
		c-0.4,0.8-0.9,1.8-1.4,1.9c-0.4,0-0.8-0.4-1.1-0.5c-0.2-0.1-0.6-0.2-0.8-0.4c-0.3-0.2-0.4-0.5-0.7-0.6c-0.3-0.1-0.8-0.1-1.3-0.1
		c-0.5,0.1-1.4-0.2-2.3-0.3c-0.7,0-0.8-0.2,1.2-1.2c0,0,4.2-2,7.4-4.6c0,0,0.7-0.6,1.7-1.7c0.6-0.7,0.6-0.9,0.3-1.3
		c-0.3-0.4-0.5-0.4-0.7-0.9c-0.2-0.5-0.6-0.7-0.9-1.4c-0.4-0.7-0.5-1.4-1-2.2c-0.1-0.1-0.2-0.3-0.2-0.5c-0.2-0.9-0.2-2.1-0.1-2.7
		c0.1-0.6,0.2-1.2,0.2-1.9c0.1-0.7,0.5-1.5,0.3-2.2c-0.2-0.7,0.2-1,0.1-1.6c-0.1-0.6,0.5-1.1,0.4-1.7c0-0.6,0.4-1.7,0.8-1.3
		c0.3,0.4,0.6-0.2,1.4,0.2c0.8,0.4,1.6,1.3,2,1.5c0.4,0.2,0.3-0.7,0.2-1.2c-0.1-0.3,0-0.5,0.6,0.2c1.1,1.3,2.3,2.7,2.7,4.4
		c0.3,1.3,0.5,2.6,0.6,3.9c0.1,1.2,0.2,2.4,0.2,3.6c0,0.3,0.3,0.2,0.5,0.2c0,0,0.1,0,0.1,0c0-0.3,0.5-0.7,0.6-0.8
		c0.8-1,1.8-2,2.8-2.8c1-1,2.1-1.9,3.4-2.6c0,0,1.2-0.8,2.3-1.3c0.8-0.4,1.7-0.5,1.5-0.3C175.8,155.4,175.7,155.6,175.6,155.7z
		 M179,141.9C179,141.9,179,141.9,179,141.9c-0.3,0.2-0.4,0.6-0.4,0.9c0,0.2,0,0.4,0.1,0.7c0.1,0.5-0.3,1.1-0.6,1.4
		c-0.5,0.7-1.2,1.4-1.9,1.8c-0.3,0.2-0.7,0.3-1.1,0.4c-0.1,0-0.3,0.1-0.6,0.1c-0.2,0-0.4,0.3-0.5,0.5c-0.1,0.6-0.4,1.1-0.6,1.6
		c0,0-0.1,0.3-0.2,0.6c-0.1,0.2-0.2,0.6-0.3,0.7c-0.2,0.1-0.4,0.1-0.5,0c-0.1-0.1-0.1-0.1-0.2-0.1c-0.1,0-0.2,0.1-0.3,0.1
		c-0.1,0-0.2,0-0.3,0c-0.1,0-0.1,0.1-0.2,0c0,0-0.1-0.1-0.1-0.1c0-0.1-0.1-0.1-0.2-0.1c-0.1,0-0.2,0-0.3-0.1c0,0-0.1-0.1-0.1-0.2
		c0-0.1,0.2-0.3,0.1-0.3c-0.1,0-0.3,0.1-0.3-0.1c0-0.1,0-0.4,0.1-0.5c0-0.1,0.1-0.2,0.1-0.3c0.1-0.2,0.4-0.4,0.5-0.6
		c0.3-0.3,0.5-0.6,0.8-0.9c0.6-0.6,1.2-1.2,1.8-1.9c0.2-0.2,0.1-0.3-0.2-0.3c-0.7,0-1.9,0-2.4-0.3c0,0-0.2-0.1-0.3-0.3
		c-0.1-0.2-0.2-0.4-0.4-0.4c-0.4-0.1-0.9-0.2-1.3-0.3c-0.2-0.1-0.4-0.3-0.4-0.4c0-0.1-0.1-0.3-0.4-0.4c-0.3-0.1-0.8-0.4-1-0.7
		c-0.1-0.2-0.3-0.5-0.5-0.6c-0.2-0.1-0.4-0.3-0.5-0.4c-0.2-0.2-0.3-0.5-0.5-0.6c-0.2-0.2-0.4-0.3-0.5-0.5c-0.1-0.2,0-0.5-0.2-0.6
		c-0.3-0.3-0.7-0.8-0.4-1.2c0.2-0.4,2.1,1.2,2.2,1.4c0.6,0.5,1.3,0.8,1.9,1c0.4,0.2,0.9,0.3,1.3,0.5c0.2,0.1,0.5,0.2,0.8,0.3
		c0.2,0.1,0.2,0.1,0.1-0.1c-0.2-0.2-0.4-0.6-0.3-0.8c0.1-0.2,0.2-0.4,0.1-0.6c-0.2-0.4-0.5-0.9-0.5-1.5c0-0.2,0-0.6-0.1-0.9
		c-0.1-0.2-0.2-0.6-0.1-0.9c0-0.2,0-0.6,0-0.9c-0.1-0.3-0.1-0.6,0-0.9c0.1-0.2,0.3-0.5,0.3-0.7c0-0.2,0-0.3,0-0.5
		c0.1-0.2,0.3-0.6,0.3-0.8c0-0.1,0-0.2,0-0.2c0.1-0.2,0.4-0.2,0.5-0.1c0,0.1,0.1,0.2,0.1,0.4c0,0,0.3,1.2,0.7,1.7
		c0.2,0.3,0.4,0.6,0.6,0.9c0.2,0.3,0.3,0.6,0.4,0.9c0.1,0.3,0.3,0.7,0.3,1.1c0,0.3,0,0.6-0.1,1c-0.1,0.7,0.2,1.3,0.5,2
		c0.1,0.2,0.2,0.3,0.3,0.5c0.1,0.2,0.3,0.4,0.4,0.6c0,0,1,1.5,2.2,0.6c0,0,0.2-0.1,0.3-0.3c0.1-0.2,0.3-0.5,0.5-0.7
		c0.2-0.1,0.4-0.2,0.8-0.1c0,0,0.1,0,0.3,0.1c0.2,0,0.4,0.1,0.5,0.1c0.1,0,0.4,0,0.3,0.1C179.5,141.6,179.2,141.7,179,141.9z"/>
	<g id="XMLID_238_">
		<g id="XMLID_253_">
			<path id="XMLID_261_" class="st2" d="M230.4,186.9c5.2,0,9.6,3.5,11.3,8.7c17.4-4.3,20.9,24.3,2.6,24.3c-3.5,0-7-2.6-9.6-5.2
				c-2.6,7-11.3,10.4-18.3,7.8c-2.6,9.6-13.9,13-20.9,6.1c-1.7,0.9-2.6,1.7-3.5,1.7c-5.2,10.4-19.1,4.3-13.9-5.2
				c-6.1-9.6,0.9-21.7,11.3-20.9c0-14.8,19.1-20.9,27.8-9.6c0.9,0,0.9,0,1.7-0.9C220.9,189.5,225.2,186.9,230.4,186.9z"/>
			<g id="XMLID_254_">
				<path id="XMLID_260_" class="st3" d="M183.5,236.4c2.9,0,5.2,2.3,5.2,5.2c0,2.9-2.3,5.2-5.2,5.2c-2.9,0-5.2-2.3-5.2-5.2
					C178.3,238.7,180.6,236.4,183.5,236.4z"/>
				<path id="XMLID_259_" class="st3" d="M172.2,231.2c1,0,1.7,0.8,1.7,1.7s-0.8,1.7-1.7,1.7s-1.7-0.8-1.7-1.7
					S171.2,231.2,172.2,231.2z"/>
				<path id="XMLID_258_" class="st3" d="M194.8,234.7c1.4,0,2.6,1.2,2.6,2.6s-1.2,2.6-2.6,2.6c-1.4,0-2.6-1.2-2.6-2.6
					S193.4,234.7,194.8,234.7z"/>
				<path id="XMLID_257_" class="st3" d="M173.9,239c0.5,0,0.9,0.4,0.9,0.9s-0.4,0.9-0.9,0.9s-0.9-0.4-0.9-0.9S173.5,239,173.9,239z
					"/>
				<path id="XMLID_256_" class="st3" d="M209.6,238.1c0.5,0,0.9,0.4,0.9,0.9s-0.4,0.9-0.9,0.9c-0.5,0-0.9-0.4-0.9-0.9
					S209.1,238.1,209.6,238.1z"/>
				<path id="XMLID_255_" class="st3" d="M213.9,229.4c1,0,1.7,0.8,1.7,1.7s-0.8,1.7-1.7,1.7c-1,0-1.7-0.8-1.7-1.7
					S213,229.4,213.9,229.4z"/>
			</g>
		</g>
		<g id="XMLID_239_">
			<path id="XMLID_251_" class="st4" d="M292.3,303.6v1.4c-7.2-0.5-14.7-2.1-21.7-2.1c-6.9,0.8-13,3.8-20.6,2.3c-1.5,0-3.1,0-4.6,0
				c-8.4,0-16.9-0.1-25.9-0.7c-1.5,0-3.4-0.1-5.5-0.2c-8.7-0.4-19.9-1.1-9.3,3.1c0.1,0,0.2,0.1,0.3,0.1c-0.2,0-0.4,0-0.7,0
				c-5.6-0.2-16.3-2.3-19.9-3c-8.8-0.4-18.9,0.9-28.9,2.4c-11.3,1.6-22.4,3.6-31.2,3.7c-0.3,0-0.6,0-0.9,0c0.1,0,0.4,0,0.8-0.1
				c3.3-0.5,14.1-3,10.6-3.7c-4.6-0.8,9.2-3.1,10.7-3.1h-6.1c-2.3,0-4.6,0.8-6.9,0.8c-1.5,0-2.3,0.8-3.8,0.8
				c-4.9,1-9.1,0.1-13.1-0.9c-2.3-0.6-4.5-1.1-6.7-1.4c-5.6,0-11.2,0.8-16.4,1.5V298c0.6-0.4,1.2-0.6,1.9-0.4c1.5,0,2.3,0.8,3.1,0
				c1.1-0.5,2.2-1.5,3.8-1.1v-1.2h0c0.7-0.8,1.4-1.5,2.1-2.3c3.6-4,7.2-8.2,11.2-12.2c3-2.9,6.1-5.8,9.6-8.4
				c1.1-0.4,2.2-0.8,3.1-1.2c12.6-5,14.4-10.6,20.4-18.5h64.6c2.9,1.6,5.5,3.1,6.6,3.6c3.2,1.1,10,5.9,18.3,12.3
				c3.9,3,8.1,6.4,12.4,9.9c4.3,3.4,8.6,6.9,12.9,10.4c2,1.6,4.1,3.3,6,4.8c-0.1,0-0.2,0-0.3,0v1.8c0.3,0.4,0.5,1.2,1,1.2
				c0,0.8,0,0.8,0.8,0c0,0,0,0,0.8,0c0,0.8,0,0.8,0.8,0.8h0.8c0.8,0.8,1.5,0,1.5,0c0.8-0.8,0.8,0,1.5,0h0.8l0.8-0.8
				c1.5-0.8,2.3,0,3,0.8c1.5,1.5,2.3,3.1,3.8,3.1C286.4,300.1,288.8,302,292.3,303.6z"/>
			<g id="XMLID_240_">
				<g id="XMLID_244_">
					<path id="XMLID_250_" class="st5" d="M296.5,305.2c-1.4,0-2.8-0.1-4.2-0.2c-7.2-0.5-14.7-2.1-21.7-2.1
						c-6.9,0.8-13,3.8-20.6,2.3c-1.5,0-3.1,0-4.6,0c-8.4,0-16.9-0.1-25.9-0.7c-1.5,0-3.4-0.1-5.5-0.2c-8.7-0.4-19.9-1.1-9.3,3.1
						c0.1,0,0.2,0.1,0.3,0.1c-0.2,0-0.4,0-0.7,0c-5.6-0.2-16.3-2.3-19.9-3c-8.8-0.4-18.9,0.9-28.9,2.4c-11.3,1.6-22.4,3.6-31.2,3.7
						c-0.3,0-0.6,0-0.9,0c0.1,0,0.4,0,0.8-0.1c3.3-0.5,14.1-3,10.6-3.7c-4.6-0.8,9.2-3.1,10.7-3.1h-6.1c-2.3,0-4.6,0.8-6.9,0.8
						c-1.5,0-2.3,0.8-3.8,0.8c-4.9,1-9.1,0.1-13.1-0.9c-2.3-0.6-4.5-1.1-6.7-1.4c-5.6,0-11.2,0.8-16.4,1.5c-3.4,0.4-6.6,0.8-9.6,0.8
						c4.8-1.2,7.3-5.7,9.6-7.2c0.6-0.4,1.2-0.6,1.9-0.4c1.5,0,2.3,0.8,3.1,0c1.1-0.5,2.2-1.5,3.8-1.1c0.1,0,0.2,0,0.3,0.1
						c0.6,0.2,1.3,0.5,2,1.1c0.8,0,0.8,0,1.5,0c0.2,0.2,0.4,0.3,0.6,0.4c0.1,0,0.2,0.1,0.3,0.1c0.2,0.1,0.4,0,0.5-0.1
						c0,0,0.1-0.1,0.1-0.2c0,0,0-0.1,0-0.2h0c0.2,0,0.3-0.1,0.4-0.2c0.1-0.1,0.1-0.2,0.2-0.3c0,0,0,0,0-0.1c0.1-0.1,0.2-0.3,0.3-0.5
						c0-0.1,0.1-0.2,0.2-0.3c0.1-0.1,0.3-0.2,0.4-0.2c0.8,0,0,2.3,0.8,2.3c0.8,0,1.1-0.2,1.4-0.5c0.2-0.1,0.3-0.3,0.4-0.5
						s0.3-0.4,0.4-0.6c0-0.1,0-0.2,0.1-0.3c0,0,0,0,0,0c0,0,0.1,0,0.2,0.1c0,0,0,0.1,0.1,0.1c0,0,0.1,0.1,0.1,0.2
						c0.1,0.1,0.1,0.2,0.1,0.3c0,0.1,0,0.3,0,0.4h0c0.7,0,1.3-0.6,1.5-0.7v0h0c0.6,0,1.3,0.5,1.5,0.7c0,0,0,0,0,0v0
						c0.3-0.3,0.4-0.6,0.6-1c0-0.1,0.1-0.2,0.1-0.4c0-0.1,0.1-0.2,0.1-0.3c0.1-0.2,0.1-0.3,0.2-0.4c0.1-0.2,0.3-0.3,0.4-0.3
						c0-0.4,0-0.6,0.1-0.7c0.1-0.1,0.3-0.1,0.7-0.1c0,0,0,0,0,0c0,0,0.1,0,0.2,0c0,0,0.1,0,0.1,0c0,0,0.1,0,0.1,0.1
						c0.1,0.1,0.2,0.3,0.2,0.6c0.8,0.8,0.8,0,1.5,0c0,0,0.8,0,0.8,0.8c0.8,0,0.8-0.8,0.8-0.8c0-0.5,0.1-0.7,0.2-0.8
						c0.1-0.1,0.2-0.1,0.3,0c0.2,0.1,0.3,0.5,0.3,0.8c0.8,0,0.8,0,0.8,0c0,0.8,0,0.8,0,1.5c0.2,0,0.3,0.1,0.5,0.3
						c0.2,0.2,0.3,0.6,0.4,1c0.1,0.3,0.2,0.5,0.4,0.7c0.1,0.1,0.2,0.2,0.3,0.3v0c0.1,0,0.2,0,0.3-0.1c0.4-0.4,0.5-1.5,0.9-2
						c0,0,0.1-0.1,0.1-0.1c0.1-0.1,0.1-0.1,0.2-0.1c0.8,0,0.8,1.5,1.5,1.5h0c0-0.3,0.1-0.6,0.2-0.8c0-0.1,0.1-0.2,0.1-0.2
						c0.2-0.3,0.4-0.5,0.4-0.5c1.3-1.3,2-0.9,2.7-0.3c0.1,0.1,0.2,0.2,0.3,0.3c1.2,0.6,1.9,1.1,2.5,0.4c0-0.1,0.1-0.1,0.1-0.2
						c0,0,0,0,0.1-0.1v0c0.1-0.1,0.1-0.3,0.2-0.5c0.1-0.1,0.1-0.3,0.2-0.4v-2.3c0,0,0,0,0.1,0c0,0,0.1,0,0.1,0c0,0,0.1,0,0.1,0
						c0.2-0.1,0.3-0.2,0.4-0.4c0-0.1,0-0.2,0-0.3c0,0,0,0,0,0c0.2,0,0.3-0.1,0.4-0.2c0.3-0.4,0.4-1,0.8-1.2c0.1-0.1,0.2-0.1,0.3-0.1
						c0,0,0.1-0.1,0.1-0.1c0.1-0.1,0.3,0,0.4,0c0.1,0,0.2,0.1,0.3,0.2c0.2,0.2,0.5,0.5,0.8,0.7c0.4,0.3,0.9,0.7,1.4,0.7
						c1.5,0,2.3,0,3.8,0.8c0.5,0.3,0.9,0.6,1.2,0.8c0.9,0.5,1.3,0.6,2.4,0.3c0.3-0.1,0.6-0.2,1-0.3c0,0,0,0,0.1,0
						c0.3-0.2,0.6-0.3,0.8-0.4c0.2-0.1,0.4-0.1,0.6-0.1c0.2,0,0.4,0,0.6,0c0.4,0,0.6,0.2,0.9,0.5c0.8,0.8,0.8,1.5,2.3,2.3
						c0.8,0.4,1.2,0.8,1.6,0.8c0.1,0,0.2,0,0.4,0c0.3,0,0.6-0.3,1.2-0.8c0.4-0.4,0.6-0.6,0.8-0.7c0,0,0.1,0,0.1,0c0.1,0,0.3,0,0.6,0
						h0.1c0.3-0.3,0.5-0.5,0.8-0.8c0.1-0.1,0.1-0.1,0.2-0.1c0.1-0.1,0.3-0.1,0.4-0.1c0.3,0,0.5,0,0.8,0c0.1,0,0.3,0.1,0.5,0.2
						c0.1,0,0.1,0,0.2,0.1c0.2,0,0.3,0,0.4,0c1.1,0.1,1.2,0.8,1.9,1.5c0.1,0,0.2,0,0.4,0c0.2,0,0.4-0.1,0.6-0.1
						c0.6-0.1,1.3-0.2,2-0.1c0.1,0,0.3,0.1,0.4,0.1c0.2,0,0.3,0.1,0.5,0.2c0,0,0,0,0.8,0.8c0.1,0,0.2,0.1,0.3,0.1c0.1,0,0.3,0,0.4,0
						c0.7-0.1,1.1-1,2.4-1.4c0.2-0.1,0.4-0.1,0.6-0.1c0.2,0,0.5-0.1,0.8-0.1h0.8c0.1,0,0.1,0,0.2,0c0.6-0.1,1.1-0.9,1.6-1.6
						c0.4-0.5,0.7-0.9,1.1-1.2c0,0,0.1-0.1,0.2-0.1c0.1,0,0.1,0,0.2,0c0.4-0.1,0.8,0.1,1.3,0.6c0,0.8,0,0.8,0.8,0.8
						c0,0,0.1,0.1,0.2,0.1c0.2,0.2,0.4,0.3,0.6,0.3c0.1,0,0.2,0,0.3,0c0.1,0,0.2,0,0.3,0c0.1,0,0.2,0,0.3-0.1c0.1,0,0.2-0.1,0.3-0.1
						c0.1,0,0.2-0.1,0.3-0.1h0.1c0.1,0,0.1-0.1,0.2-0.1c0.1,0,0.2-0.1,0.3-0.1c0.1,0,0.1,0,0.2,0c0.1,0,0.2,0,0.3,0
						c0.3,0,0.6,0,0.9,0.2c0.2,0.1,0.4,0.3,0.6,0.6c1.2,1.2,1,2,2,2.2c0.2,0,0.5,0.1,0.9,0.1h0.1c0.4,0.4,1.1,0.8,1.7,1.2
						c0.2,0.1,0.4,0.2,0.6,0.2c0.1,0,0.2,0.1,0.3,0.1c0.1,0,0.2,0,0.3,0c0,0,0.1,0,0.1,0c1.4-0.7,0.8-2.8,2.6-3c0.1,0,0.2,0,0.3,0
						c0.6,0,0.9,0,1.2,0c0.1,0,0.1,0,0.2,0c0.5,0,0.8-0.2,1.7-0.7c0.8-0.8,0.8-0.8,1.5-1.5c0.2-0.2,0.3-0.3,0.4-0.3
						c0.2,0,0.3,0,0.5-0.1c0.2,0,0.4-0.1,0.6-0.4c0-0.1,0-0.2,0-0.3c0.1-0.4,0.3-0.9,0.6-1c0,0,0,0,0,0c0.2-0.1,0.5,0,0.8,0.6
						c0,0,0,0,0,0v0c0,0.2,0.1,0.7,0.8,0.7h0.8c0.8,0.8,0.8,1.5,0.8,2.3c0,0,0,1.4,0.7,1.5c0,0,0,0,0.1,0c0.8,0,0.8-1.5,0.8-1.5
						c0-0.4,0.3-0.6,0.5-0.7c0.1,0,0.1,0,0.1,0c0.1,0,0.2,0,0.2,0c0.4,0.4,0.5,0.5,0.7,0.6c0.2,0,0.4-0.1,0.8-0.6c0,0,0-0.2,0.1-0.3
						h0c0.1-0.1,0.3-0.1,0.6,0.3c0,0,0,0.8,0.8,1.5c0.1,0.1,0.2,0.1,0.2,0.1c0.6,0.2,0.6-1.7,0.6-1.7c0.3-0.3,0.4-0.4,0.5-0.5
						c0,0,0,0,0,0c0.2-0.1,0.2,0,0.2,0.5c0,0,0,0,0.8,0c0,1.5,0,1.5,0.8,2.3l0.8,0.8c0.8-0.8,0.8-1.5,1.5-2.3l0,0
						c0.8,0,0.8,0.8,0.8,1.5c0,0,0,1.3,0.6,1.5v0c0,0,0.1,0,0.1,0c0,0,0.8-0.7,0.8-1.5v0c0.8,0,0.8,0.8,0.8,0.8
						c0.2,0.4,0.3,0.6,0.4,0.7c0.3,0.2,0.5-0.6,1-0.7h0.1c0.8,0,0.8,0.8,0.8,0.8c0,0.8,0,0.8,0.8,1.5l0,0c0.8,0,0.8,0,1.5,0
						c0.8,0,0-1.5,0.8-1.5c0.1-0.1,0.2-0.2,0.3-0.2c0.4-0.2,0.6,0.8,1.1,0.9c0,0,0.1,0,0.2,0v-1.5c0,0,0-0.7,0.7-1.5c0,0,0,0,0,0
						c0.8,0,0.8,1.5,0.8,1.5c0,0.6,0,0.7,0.3,0.7c0.1,0,0.2,0,0.3,0h0.2c0,0,0.1,0.1,0.1,0.1c0.6,0.4,0.6-2.4,0.6-2.4v-1.5
						c0.8,0,0.8,1.5,0.8,1.5c0.2,0.3,0.4,0.4,0.5,0.5c0.2,0.2,0.2,0,0.2-0.5c0.2-0.2,0.4-0.3,0.6-0.3c0.5-0.1,0.9,0.3,0.9,0.3
						c0.1,0.1,0.2,0.2,0.3,0.2c0.5,0.2,0.6-0.9,1.2-1.6c0,0,0-0.1,0.1-0.1l0.8,0.8c0,0.6,0,0.7,0.3,0.7c0.1,0,0.2,0,0.3,0
						c0,0,0,0,0.8,0h0.2c0.8-0.8,1.5-0.8,2.3-2.3c0-0.4,0.3-0.9,0.7-1c0.3-0.1,0.6,0,0.9,0.3v0.8c0.7,0,0.8,0.6,1.3,0.7
						c0.1,0,0.1,0,0.2,0V293c0.2,0,0.3,0,0.4,0c0,0,0.1,0,0.1,0c0.3,0,0.5-0.2,1-0.7c0,0,0.6-0.6,1.2-0.7h0.1c0.1,0,0.1,0,0.2,0
						c0.7,0.7,0.8,2,0.8,2.3c0,0,0,0,0,0c0.5,0,1-0.7,1.3-0.9c0.2-0.1,0.3-0.1,0.3,0.1c0.8,0.8,0.8,0.8,0.8,0.8c0,0.8,0,1.5,0,1.5
						c0.8,0.8,0.8,1.5,0.8,2.3c0.1,0.2,0.2,0.3,0.3,0.4c0.7,0.4,1.3-1.9,2-1.9c0,0,0.1-0.1,0.1-0.1v0c0.5-0.4-0.1,0.9,0.6,0.9v2.3
						c0.1,0.2,0.3,0.2,0.4,0.3c0.4,0.2,0.5-0.4,1.1-1c0,0,0,0,0,0c0,0,0.7,0,0.8,0.7v0.1c0.6,0,0.8-2.1,1.2-2.4c0.1,0,0.2,0,0.3,0.1
						c0,0,0,0,0,0.8c0.6,0,0.8,0.5,0.8,0.7c0,0,0,0.1,0,0.1c0.8,0,0.8-1.5,1.5-1.5c0-0.2,0-0.4,0-0.5c0-0.2,0.2-0.1,0.8,0.5
						c0.1,0.1,0.2,0.1,0.2,0.2h0c0.4,0.2,0.6-0.6,1-0.9c0.1,0,0.2-0.1,0.3-0.1c0,0.4,0,0.9,0.1,1c0.1,0.1,0.3,0,0.6-0.3
						c0,0,0-1.5,0.8-1.5c0-0.1,0-0.2,0.1-0.3c0.2-0.2,0.8,0.4,1.5,1c0,0,0,1.2,0.5,1.5c0.1,0,0.2,0.1,0.3,0.1v-0.8
						c0-0.8,0-0.8,0.8-1.5v-1.5c0.2-0.3,0.3-0.5,0.5-0.6c0.6-0.3,1.2,0.8,1.8,1.3c0,0,0,0,0,0.8v0c0.7,0,0.8-0.6,1.3-0.8
						c0.1,0,0.2,0,0.3,0c1.5,0,0.8,1.4,1.5,2.2c0,0,0,0,0,0.1c0.7,0,0.8-1.3,1.4-1.5c0,0,0.1,0,0.1,0c0.2,0,0.4,0.1,0.5,0.3
						c0.3,0.4,0.5,1.2,1,1.2c0,0.8,0,0.8,0.8,0c0,0,0,0,0.8,0c0,0.8,0,0.8,0.8,0.8h0.8c0.8,0.8,1.5,0,1.5,0c0.8-0.8,0.8,0,1.5,0h0.8
						l0.8-0.8c1.5-0.8,2.3,0,3,0.8c1.5,1.5,2.3,3.1,3.8,3.1c2.8-0.6,5.2,1.3,8.7,3C293.5,304.2,294.9,304.8,296.5,305.2z"/>
					<path id="XMLID_245_" class="st5" d="M262.3,288.9c-4.2-3.4-8.6-6.9-12.9-10.4c-4.3-3.5-8.6-6.9-12.4-9.9
						c-8.3-6.4-15.1-11.3-18.3-12.3c-1.1-0.5-3.7-2-6.6-3.6c-5.1-2.9-11-6.3-11-6.3c-3.8-1.5-7.6,2.3-12.2,4.6
						c-0.7,0.7-1.3,1.2-1.9,1.7c-3.6,2.9-6.1,3.1-8,4.4c-0.8,0.8-7.6,0.8-12.2,3.8c-2,1.3-5,3.2-5.9,3.7c0.1,0,0.3-0.1,0.4-0.2
						c0,0,0,0,0,0c0,0,0,0,0.1,0c1-0.4,2.7-0.9,3.8-0.4c2.3,0.8,6.1,2.3,6.9,3.8c0,2.3,3,4.6,4.6,5.3c2.8,3.5,8.8,7.7,9.8,8.3
						c-0.5-0.3-2.1-1.4-4.2-2.7c-0.1,0-0.1-0.1-0.2-0.2c-3.7-2.4-8.3-5.6-9.2-7c-0.8-1.5-4.6-5.3-4.6-5.3c-0.8,0-0.8-0.8-1.5-0.8
						c-3.1,0.8-6.1,0.8-7.6,1.5c-2.3,1.5-2.3,0.8-4.6,1.5c-3,0.8-5.3,2.3-8.4,3.8c-0.2,0.1-0.4,0.3-0.5,0.4
						c-0.3,0.2-0.6,0.5-0.9,0.7c-0.9,0.7-1.9,1.4-2.9,2.1c-1.8,1.3-3.6,2.5-5.3,3.8c-0.1,0.1-0.2,0.1-0.2,0.2h0
						c-0.4,0.4-0.9,0.7-1.4,1.1c0.1-0.1,0.2-0.1,0.3-0.3c0.1-0.1,0.2-0.2,0.3-0.2c0.2-0.2,0.4-0.4,0.7-0.7c2.2-2,6.2-5.7,8.5-7.5
						c0.2-0.2,0.4-0.3,0.5-0.4c0.2-0.1,0.3-0.2,0.4-0.2c0.3-0.2,0.5-0.4,0.6-0.4c0.8,0,9.9-4.6,12.2-6.1c1.5-0.8,6.1-3.8,6.9-4.6
						c0.8-0.8,3.1-2.3,4.6-2.3c0.8,0,6.9-0.8,8.4-1.5c1.5-1.5,4.6-2.3,5.3-3.1c0.5,0,1-0.3,1.3-0.6c0.1-0.1,0.2-0.2,0.2-0.2h-2.3
						c-9.2-2.3-8.4-7.6-13.7-9.2c0,0-9.9-2.3-14.5,1.5c-3,2.9-5.2,5.4-7,7.8c-6,7.9-7.8,13.5-20.4,18.5c-1,0.4-2,0.8-3.1,1.2
						c-3.5,2.6-6.6,5.5-9.6,8.4c-4,4-7.7,8.2-11.2,12.2c-0.7,0.8-1.4,1.6-2.1,2.3h0c2,0,3.4,0.6,4.2,1.2c0.1,0.1,0.2,0.2,0.3,0.3v0
						c0.1-0.2,0.2-0.3,0.3-0.4c0.1-0.1,0.1-0.2,0.2-0.2c0.3-0.4,0.5-0.7,0.8-0.9c0.2-0.2,0.4-0.4,0.6-0.5c0.1-0.1,0.2-0.1,0.3-0.1
						c0.2-0.1,0.3-0.1,0.5,0c0.1,0,0.3,0.1,0.4,0.3c0.1,0.1,0.2,0.3,0.3,0.5c0,0.1,0.1,0.2,0.1,0.4c0.1,0.3,0.2,0.7,0.3,1.1
						c0,0,0,0,0,0c0.2-0.3,0.4-0.6,0.6-0.8c0.8-0.7,1.9-0.6,2.5,0c0.7-0.7,1.3-0.7,2-0.3c0.1,0.1,0.2,0.2,0.3,0.3c0,0,0,0,0,0
						c-0.1-0.1-0.1-0.2-0.1-0.4c0-0.4,0.3-1.1,0.7-1.6c0.1-0.1,0.2-0.3,0.4-0.4c0.6-0.5,1.3-0.8,2.1-0.4c0.2,0.1,0.5,0.3,0.8,0.5v0
						c0,0,0,0,0.1,0.1c0.1,0.1,0.2,0.1,0.4,0.2c0,0,0,0,0,0c0.3,0.2,0.7,0.4,1,0.4c0.1-0.4,0.3-0.8,0.4-1c0.4-0.5,0.9-0.3,1.5,0.1
						c0.1,0.1,0.2,0.2,0.3,0.3c0.1,0.1,0.3,0.3,0.4,0.5c0.2,0.3,0.5,0.7,0.7,1.1c0.2,0.4,0.4,0.8,0.5,1.2c0.1-0.2,0.2-0.4,0.3-0.5
						c0-0.1,0.1-0.1,0.2-0.2c0.6-0.6,1.4-0.1,2.6-0.1h0c0.1-0.1,0.1-0.3,0.2-0.4c0.2-0.4,0.4-0.6,0.7-0.8c0.7-0.5,1.6-0.4,2.4,0
						c0,0,0,0,0.1,0c0.4,0.2,0.8,0.5,1.2,0.7c0.3,0.2,0.5,0.3,0.8,0.4c0-0.6,0.5-2.2,1.1-2.8c0.1-0.2,0.3-0.3,0.4-0.3
						c0.1,0,0.2-0.1,0.3-0.1c0.1,0,0.1-0.1,0.2-0.2c0.2-0.2,0.3-0.3,0.4-0.5c0,0,0.1-0.1,0.1-0.2c0.1-0.2,0.1-0.5,0.2-0.7
						c0-0.1,0-0.2,0.1-0.3c0,0,0-0.1,0.1-0.1c0-0.1,0.1-0.1,0.2-0.1c2.3-1.5,3.1,1.5,3.8,1.5c1.5,0,3.1,0,4.6,1.5
						c0.2,0.2,0.4,0.4,0.6,0.5h0c0.2,0.1,0.4,0.1,0.5,0.1c0.8,0,1.3-0.9,1.8-1.4c0,0,0,0,0,0c4.7-1.7,4.9,2.8,6.8,3.3
						c0.2,0,0.4,0,0.7,0c0.1,0,0.2-0.1,0.4-0.1c0.4-0.1,0.8-0.4,1.3-0.8c0.5-0.5,0.9-0.8,1.4-1.1c0,0,0,0,0,0
						c0.4-0.3,0.9-0.4,1.3-0.5c0.5-0.1,1-0.1,1.5,0c0.2,0,0.4,0.1,0.6,0.1c1.1,0.3,1.9,0.9,2.4,1.3c0.1,0.1,0.2,0.1,0.2,0.1
						c0,0,0.1,0,0.1,0h0.1c0.8,0.3,1.6,0.5,2.3,0.7c1.3,0.3,2.4,0.3,3.3,0c0.2,0,0.4-0.1,0.7-0.2c0.4-0.1,0.7-0.3,1-0.4
						c0.6-0.3,1.2-0.7,1.7-1.1c0,0,0.1,0,0.1-0.1h0c0.1-0.1,0.2-0.2,0.3-0.3c0.1-0.1,0.2-0.2,0.3-0.3c0,0,0,0,0.1,0
						c0.1-0.1,0.3-0.2,0.4-0.3c0.4-0.3,0.8-0.5,1.2-0.6c1-0.4,2.2-0.3,3.9,1c0,0.1,0,0.1,0.1,0.1c0.1,0,0.4-0.1,0.7-0.2
						c0.1,0,0.2-0.1,0.3-0.1c0.3-0.1,0.7-0.3,1.1-0.3c1-0.1,2.1,0,3.1,1.3c0,0,0,0.1,0,0.1c0.9,1.4,1.7,2.2,2.4,2.5
						c0.1,0,0.2,0.1,0.3,0.1h0.1c0.1,0,0.2,0,0.3,0c0.3,0,0.6-0.1,0.8-0.2c1.1-0.4,2-1.7,2.9-2.3c0.1-0.1,0.2-0.1,0.2-0.1
						c0.1,0,0.2,0,0.2-0.1c0.1,0,0.1,0,0.2,0c0,0,0.1,0,0.1,0c0.3,0,0.5,0,0.8,0c0.3,0,0.5-0.1,0.7-0.1c0.4-0.1,0.7-0.2,1-0.4
						c0.4-0.2,0.7-0.4,0.9-0.6h0c0,0,0.1-0.1,0.1-0.1c0,0,0,0,0,0c0.1-0.1,0.2-0.2,0.3-0.3c1.1-0.9,1.7-2,2.4-2.4c0,0,0.1,0,0.1-0.1
						c0.6-0.3,1.3,0,2.5,1.5c0.1,0.1,0.1,0.2,0.2,0.3c0.8,0,1.5,0.8,1.5,1.5h2.3c0.3-0.3,0.6-0.5,0.8-0.5l0,0c0.4-0.1,0.9,0,1.3,0.5
						c0,0,0,0,0.1,0.1c0.4-0.8,0.8-1.1,1.2-1.3c0,0,0.1,0,0.2,0c1.1-0.3,1.7,2.1,2.2,3.2c0.1,0.2,0.2,0.3,0.3,0.4
						c-0.4-0.7,0.1-1.4,0.8-1.7c0.1,0,0.2,0,0.2,0c0,0,0.1,0,0.2,0c0.7-0.1,1.5,0.3,1.9,1.7c0,0,0,0,0,0.1c0.7-0.3,1-0.5,1.3-0.6
						c0,0,0,0,0,0c0.3,0,0.5,0.1,0.9,0.6c1.5,0.8,2.3,1.5,3,2.2c0,0,0,0,0,0c0.7,0,0.1-1.3,1.9-1.5c0.1,0,0.1,0,0.2,0h0.2
						c0.6-1.2,1.2-1.4,1.7-1.5c0.1,0,0.3,0,0.4,0h0.2c0.4-1.4,0.9-2.2,1.4-2.4h0c0.6-0.2,1.2,0.4,1.6,1.6h1.5c0,0,0.4-0.1,0.9-0.2
						c0.3,0,0.5-0.1,0.8-0.1c0.5,0,1,0,1.3,0.3c0,0,0,0,0,0c1.6-0.5,2.1-2.4,3.2-2.9c0,0,0.1,0,0.1,0c0.1,0,0.1,0,0.2,0
						c0.2,0,0.5,0,0.8,0.1c0.3,0.1,0.6,0.3,1,0.6c0,0,0.1,0,0.1,0c0,0,1.5-1.2,2.9-1.6c0.1,0,0.1,0,0.1,0c0.1,0,0.2,0,0.3,0
						c0.9-0.1,1.7,0.2,2,1.6c0.8,0,2.2,0,3,2.9c0,0.1,0,0.1,0.1,0.2c0.3-0.5,0.7-0.8,1-0.9c0,0,0.1,0,0.1,0c1-0.2,1.9,1.4,1.9,3.1
						v0.2c0.2-0.2,0.4-0.3,0.7-0.3c0.4-0.1,0.8,0.1,1.3,0.3c0,0,0.1,0,0.2,0c0,0,0.1,0,0.2,0c-0.1,0-0.1,0-0.2-0.1
						c-0.4-0.3,0-1.8,0.8-1.9c0,0,0,0,0,0c0.2,0,0.5,0,0.7,0.3c0,0,0.1,0.1,0.1,0.1c0.5-0.5,0.9-0.9,1.4-1.1h0
						c0.3-0.1,0.6,0,0.9,0.3h1.5c0.3-0.7,0.8-1.1,1.3-1.2c0.1,0,0.2,0,0.2,0h0.1c0.4,0,0.9,0.1,1.2,0.3c0.1,0,0.1,0.1,0.2,0.2
						c0.5-1.8,1.2-2.5,1.9-2.8c1.2-0.3,2.4,1,2.7,1.7c0,0.1,0.1,0.2,0.1,0.3c0-0.2,0.2-0.4,0.4-0.5c0.6-0.2,1.7,0.1,1.8,1
						c0,0,0,0.1,0,0.2c0.5-0.5,0.9-0.7,1.4-0.7c0.2,0,0.4,0,0.6,0c0.1,0,0.2,0,0.3,0C266.3,292.2,264.3,290.6,262.3,288.9z
						 M195.8,261.7c0,0,4.6,1.9,8.2,4.4c0,0,0,0,0.1,0.1c0.5,0.3,1,0.7,1.4,1.1c0.8,0.7,1.4,1.4,1.8,2.1c0.8,1.7,2.1,3.1,3.6,4.1
						c0,0,0,0,0.1,0c3.1,2.1,6.8,2.9,7.8,3.5c1.5,0.5,4.9,1.6,7.1,2.4c1.2,0.4,2,0.7,2,0.7s-0.3,0-0.8-0.1c0,0,0,0,0,0
						c-0.4,0-1-0.1-1.8-0.2c-3.8-0.4-10.9-1.5-14.4-3.9c0,0-0.1,0-0.1-0.1c-0.1-0.1-0.3-0.2-0.4-0.4c-0.3-0.2-0.6-0.5-0.9-0.8
						c-2.7-2.4-4.9-5.3-6.5-6.8c0,0,0,0,0,0c0,0-0.1-0.1-0.1-0.1c-0.4-0.3-0.6-0.5-0.9-0.7c-0.8,0-1.5-1.5-6.1-3.8
						c-2.9-1.2-7.8-4.4-10.2-6c0,0,0,0,0,0c-0.6-0.4-1-0.7-1.1-0.8C188.2,258.6,192,260.2,195.8,261.7z"/>
				</g>
				<path id="XMLID_243_" class="st4" d="M178.2,256.6c-1.6,0.8-7.8,1.5-8.5,1.5c-1.6,0-3.9,1.5-4.7,2.3c-0.8,0.8-5.4,3.9-7,4.6
					c-2.3,1.5-11.6,6.2-12.4,6.2c-0.8,0-11.6,10-11.6,10c3.9-3.1,7.8-5.4,11.6-8.5c3.1-1.5,5.4-3.1,8.5-3.9c2.3-0.8,2.3,0,4.7-1.5
					c1.6-0.8,4.7-0.8,7.8-1.5c0.8,0,0.8,0.8,1.6,0.8c0,0,3.9,3.9,4.7,5.4c1.6,2.3,14,10,14,10s-7-4.6-10.1-8.5
					c-1.6-0.8-4.7-3.1-4.7-5.4c-0.8-1.5-4.7-3.1-7-3.9c-1.6-0.8-4.7,0.8-4.7,0.8s3.9-2.3,6.2-3.9c4.7-3.1,11.6-3.1,12.4-3.9
					c2-1.3,4.7-1.5,8.4-4.6h-2.2c0,0-0.8,0.8-1.6,0.8C182.9,254.2,179.8,255,178.2,256.6z"/>
				<path id="XMLID_242_" class="st4" d="M196.1,262c-3.9-1.5-7.8-3.1-11.6-5.4c0,0,7.8,5.4,11.6,6.9c4.7,2.3,5.4,3.9,6.2,3.9
					c1.6,0.8,4.7,5.4,8.5,8.5c4.7,3.9,17.8,4.6,17.8,4.6s-7-2.3-9.3-3.1c-1.6-0.8-9.3-2.3-11.6-7.7C205.4,265.8,196.1,262,196.1,262
					z"/>
				<path id="XMLID_241_" class="st4" d="M268,293.8v2.3c-0.2-0.3-0.4-0.7-0.6-0.7c0,0-0.1,0-0.1,0c-0.7,0-0.8,1.2-1.3,1.5
					c-0.1,0-0.1,0.1-0.2,0.1c-0.8-0.8,0-2.3-1.5-2.3c-0.7,0-0.8,0.6-1.3,0.7c-0.1,0-0.2,0-0.3,0c0-0.8,0-0.8,0-0.8
					c-0.5-0.5-1-1.3-1.5-1.4c-0.3-0.1-0.5,0.1-0.8,0.6v1.5c-0.8,0.8-0.8,0.8-0.8,1.5v0.8c-0.8,0-0.8-1.5-0.8-1.5
					c-0.5-0.5-0.9-0.9-1.2-1c-0.2-0.1-0.3,0-0.3,0.3c-0.8,0-0.8,1.5-0.8,1.5c-0.1,0.1-0.3,0.2-0.4,0.3c-0.4,0.2-0.4-0.4-0.4-1V296
					c-0.5,0-0.7,0.8-1,0.9c-0.1,0.1-0.3,0-0.5-0.2c-0.2-0.2-0.4-0.4-0.5-0.5c-0.3-0.2-0.3-0.1-0.3,0.5c-0.7,0-0.8,1.2-1.3,1.4
					c-0.1,0-0.1,0.1-0.2,0.1c0,0,0-0.8-0.8-0.8c0-0.8,0-0.8,0-0.8c0,0-0.1-0.1-0.1-0.1c-0.3-0.2-0.4,0.2-0.6,0.8c0,0,0,0,0,0
					c-0.2,0.5-0.3,1.2-0.6,1.4c-0.1,0-0.1,0.1-0.2,0.1c0-0.5-0.4-0.7-0.6-0.7c-0.1,0-0.2,0-0.2,0c-0.5,0.5-0.7,1-0.9,1
					c-0.1,0.1-0.3,0-0.6-0.3v-2.3c-0.5,0-0.4-0.6-0.4-0.9v0c0-0.1-0.1-0.1-0.4,0.1c-0.6,0-1.2,1.8-1.7,1.9c-0.2,0.1-0.4,0-0.5-0.4
					c0-0.8,0-1.5-0.8-2.3c0,0,0-0.8,0-1.5c0,0,0,0-0.8-0.8c0-0.1,0-0.1,0-0.2c-0.1-0.3-0.7,0.7-1.3,0.9c-0.1,0-0.2,0-0.2,0
					c0,0,0-1.5-0.8-2.3h-0.1c-0.7,0.1-1.4,0.8-1.4,0.8c-0.4,0.4-0.6,0.6-0.8,0.7c0,0-0.1,0-0.1,0c-0.1,0-0.3,0.1-0.4,0.1h-0.2v1.5
					c-0.8,0-0.8-0.8-1.5-0.8V293c-0.2-0.2-0.4-0.3-0.7-0.3c-0.5,0-0.9,0.5-0.9,1.1c-0.8,1.5-1.5,1.5-2.3,2.3c-0.8,0-0.8,0-0.8,0
					c-0.1,0-0.2,0-0.3,0c-0.5,0-0.5-0.1-0.5-0.7l-0.7-0.7l-0.1-0.1c-0.6,0.6-0.7,1.5-1.1,1.7c-0.1,0.1-0.3,0-0.4-0.2
					c0,0-0.3-0.3-0.7-0.3c-0.2,0-0.5,0-0.8,0.3c0,0.3,0,0.4,0,0.5c0,0.2-0.2,0-0.7-0.5c0,0,0-1.2-0.6-1.5c0,0-0.1,0-0.2,0v1.5
					c0,0,0,2.1-0.4,2.4c-0.1,0-0.2,0-0.3-0.1c-0.1,0-0.2,0-0.3,0c-0.5,0-0.5-0.1-0.5-0.7c0,0,0-1.3-0.6-1.5c0,0-0.1,0-0.1,0
					c-0.8,0.8-0.8,1.5-0.8,1.5v1.5c-0.6,0-0.7-0.8-1.1-0.9c-0.1,0-0.3,0-0.4,0.2c-0.8,0,0,1.5-0.8,1.5h-1.5
					c-0.8-0.8-0.8-0.8-0.8-1.5c0,0,0-0.7-0.7-0.8H217c-0.5,0-0.6,0.6-0.9,0.7c-0.1,0-0.3-0.1-0.6-0.7c0,0,0-0.6-0.6-0.7
					c0,0-0.1,0-0.2,0c0,0.6-0.5,1.3-0.7,1.5v0c0,0,0,0,0,0c-0.8,0-0.8-1.5-0.8-1.5c0-0.7,0-1.4-0.6-1.5c0,0-0.1,0-0.1,0
					c-0.7,0.7-0.8,1.5-1.4,2.2c0,0,0,0-0.1,0.1l-0.8-0.8c-0.8-0.8-0.8-0.8-0.8-2.3c-0.8,0-0.8,0-0.8,0c0-0.3,0-0.4,0-0.5
					c0,0,0,0,0,0c0-0.1-0.2,0.1-0.7,0.5c0,0,0,1.5-0.4,1.6c-0.1,0-0.2,0-0.4-0.1c-0.8-0.8-0.8-1.5-0.8-1.5c-0.2-0.2-0.4-0.3-0.5-0.3
					h0c-0.3-0.1-0.3,0.3-0.3,0.3c-0.3,0.3-0.5,0.5-0.7,0.5c-0.2,0.1-0.4-0.1-0.9-0.5c0,0,0,0-0.1,0c-0.2,0-0.6,0.2-0.6,0.7
					c0,0,0,1.4-0.7,1.5c0,0,0,0-0.1,0c-0.8,0-0.8-1.5-0.8-1.5c0-0.8,0-1.5-0.8-2.3h-0.8c-0.8,0-0.8-0.8-0.8-0.8
					c-0.2-0.5-0.5-0.7-0.7-0.7c0,0,0,0,0,0c-0.4,0-0.8,0.9-0.8,1.4c-0.2,0.2-0.3,0.3-0.5,0.3c-0.2,0.1-0.3,0-0.5,0.1
					c-0.1,0-0.3,0.1-0.6,0.4c-0.8,0.8-0.8,0.8-1.5,1.5c-0.8,0.4-1.2,0.6-1.6,0.7c-0.1,0-0.1,0-0.2,0c-0.3,0-0.7,0-1.2,0
					c-0.1,0-0.2,0-0.3,0c-1.9,0.2-1.3,2.3-2.8,3c-0.1,0-0.2,0-0.3,0c-0.1,0-0.2,0-0.3-0.1c-0.8-0.2-1.9-0.8-2.5-1.4
					c-0.4,0-0.7,0-0.9-0.1c-1.2-0.2-0.9-0.9-2.1-2.2c-0.4-0.7-0.9-0.9-1.3-0.9c-0.1,0-0.2,0-0.3,0c0,0-0.1,0-0.2,0
					c-0.1,0-0.2,0-0.3,0.1c-0.1,0-0.2,0-0.3,0.1c-0.1,0-0.2,0-0.3,0.1c-0.1,0-0.2,0-0.3,0.1c-0.1,0-0.2,0-0.3,0.1s-0.2,0-0.3,0
					c-0.4,0-0.7-0.1-1.1-0.4c-0.8,0-0.8,0-0.8-0.8c-0.4-0.4-0.8-0.6-1.2-0.6c-0.1,0-0.1,0-0.2,0c-0.1,0-0.1,0-0.2,0.1
					c-1.1,0.4-1.8,2.5-2.7,2.8c-0.1,0-0.2,0-0.2,0H172c-0.3,0-0.6,0-0.8,0.1c-0.2,0-0.4,0.1-0.6,0.1c-1.3,0.4-1.7,1.3-2.4,1.4
					c-0.1,0-0.2,0-0.4,0c-0.1,0-0.2,0-0.4-0.1c-0.8-0.8-0.8-0.8-0.8-0.8c-0.3-0.1-0.5-0.2-0.8-0.3c-0.8-0.1-1.5,0-2,0.1
					c-0.2,0-0.4,0.1-0.6,0.1c-0.1,0-0.3,0-0.4,0h-0.1c-0.7-0.7-0.8-1.3-1.8-1.5c-0.1,0-0.3,0-0.4,0h-0.1c-0.2-0.1-0.4-0.2-0.6-0.2
					c-0.3-0.1-0.6-0.1-0.8,0c-0.2,0-0.3,0.1-0.4,0.1c-0.1,0-0.2,0.1-0.2,0.1c-0.3,0.2-0.6,0.5-0.9,0.8c-0.3,0-0.4,0-0.6,0
					c0,0-0.1,0-0.1,0c-0.2,0.1-0.4,0.3-0.8,0.7c-0.5,0.5-0.8,0.7-1.1,0.8c-0.1,0-0.2,0-0.4,0c-0.4,0-0.8-0.4-1.6-0.8
					c-1.5-0.8-1.5-1.5-2.3-2.3c-0.3-0.3-0.6-0.4-0.9-0.5c-0.2,0-0.4,0-0.6,0c-0.2,0-0.4,0.1-0.6,0.1c-0.3,0.1-0.5,0.2-0.8,0.4
					c0,0,0,0-0.1,0c-0.4,0.1-0.7,0.2-1,0.3c-1,0.3-1.4,0.3-2.4-0.3c-0.3-0.2-0.7-0.4-1.2-0.8c-1.5-0.8-2.3-0.8-3.8-0.8
					c-1,0-1.6-1-2.2-1.4c-0.1-0.1-0.2-0.1-0.3-0.2c-0.1-0.1-0.3-0.1-0.4,0c0,0-0.1,0-0.1,0.1l0,0c-0.1,0-0.2,0-0.3,0.1
					c-0.4,0.2-0.5,0.8-0.8,1.2c-0.1,0.2-0.3,0.3-0.4,0.3h0c0,0.1,0,0.2,0,0.3c-0.1,0.2-0.2,0.3-0.4,0.4c0,0-0.1,0-0.1,0
					c-0.1,0-0.2,0-0.2,0c0,0,0,0,0,0v2.3c-0.2,0.6-0.4,1-0.6,1.2c-0.6,0.7-1.3,0.1-2.5-0.4c-0.1-0.1-0.2-0.2-0.3-0.3
					c-0.7-0.6-1.4-1-2.7,0.3c0,0-0.2,0.2-0.4,0.5c0,0.1-0.1,0.1-0.1,0.2c-0.1,0.2-0.3,0.5-0.3,0.8c-0.8,0-0.8-1.5-1.5-1.5
					c-0.1,0-0.2,0-0.2,0.1c0,0-0.1,0.1-0.1,0.1c-0.4,0.5-0.5,1.6-0.9,2c-0.1,0-0.2,0.1-0.3,0.1c-0.1-0.1-0.2-0.2-0.3-0.3
					c-0.1-0.2-0.2-0.5-0.4-0.7c-0.1-0.4-0.3-0.7-0.4-1c-0.1-0.2-0.3-0.3-0.5-0.3c0-0.8,0-0.8,0-1.5c0,0,0,0-0.8,0
					c0-0.3-0.1-0.7-0.3-0.8c-0.1-0.1-0.2-0.1-0.3,0c-0.1,0.1-0.2,0.4-0.2,0.8c0,0,0,0.8-0.8,0.8c0-0.8-0.8-0.8-0.8-0.8
					c-0.8,0-0.8,0.8-1.5,0c0-0.3-0.1-0.4-0.2-0.6c0,0-0.1-0.1-0.1-0.1c0,0-0.1,0-0.1,0c-0.1,0-0.2-0.1-0.2,0c-0.4,0-0.6,0-0.7,0.1
					c-0.1,0.1-0.1,0.3-0.1,0.7c-0.2,0-0.3,0.1-0.4,0.3c-0.1,0.1-0.2,0.2-0.2,0.4c0,0.1-0.1,0.2-0.1,0.3c-0.2,0.5-0.4,1-0.7,1.3h0v0
					h0c-0.2-0.2-0.8-0.7-1.5-0.7c0,0,0,0,0,0c-0.2,0.2-0.8,0.7-1.5,0.7c0-0.3-0.1-0.5-0.2-0.7c0-0.1-0.1-0.1-0.1-0.2
					c0,0-0.1-0.1-0.1-0.1c-0.1-0.1-0.2-0.1-0.2-0.1c0,0,0,0,0,0c0,0.1,0,0.1,0,0.3c-0.2,0.2-0.3,0.4-0.5,0.6
					c-0.1,0.2-0.2,0.3-0.4,0.5c-0.3,0.3-0.7,0.5-1.4,0.5c-0.8,0,0-2.3-0.8-2.3c-0.2,0-0.3,0.1-0.4,0.2c-0.1,0.1-0.1,0.2-0.2,0.3
					c-0.1,0.2-0.2,0.4-0.3,0.5c0,0.1-0.1,0.2-0.2,0.3c-0.1,0.1-0.2,0.2-0.4,0.2c0,0.1,0,0.2,0,0.2c0,0.1-0.1,0.1-0.1,0.2
					c-0.1,0.1-0.3,0.2-0.5,0.1c-0.1,0-0.2,0-0.3-0.1c-0.2-0.1-0.4-0.2-0.6-0.4c-0.8,0-0.8,0-1.5,0c-0.8-0.6-1.4-0.9-2-1.1
					c-0.1,0-0.2,0-0.3-0.1v-1.2c2,0,3.4,0.6,4.2,1.2c0.1,0.1,0.2,0.2,0.3,0.3v0h0c0.4-0.7,0.8-1.2,1.3-1.6c0.5-0.5,1-0.8,1.4-0.6
					c0.1,0,0.3,0.1,0.4,0.3c0.1,0.1,0.2,0.3,0.3,0.5c0,0.1,0.1,0.2,0.1,0.4c0.1,0.3,0.2,0.6,0.3,1.1c0.2-0.3,0.4-0.6,0.6-0.8
					c0.8-0.7,1.9-0.6,2.5,0c0.7-0.7,1.3-0.7,2-0.3c0.1,0.1,0.2,0.1,0.2,0.2c-0.1-0.1-0.1-0.2-0.1-0.4c0-0.4,0.3-1.1,0.7-1.6
					c0.1-0.1,0.2-0.3,0.4-0.4c0.6-0.5,1.3-0.8,2.1-0.4c0.3,0.1,0.5,0.3,0.8,0.6c0,0,0,0,0.1,0.1c0.1,0.1,0.2,0.1,0.4,0.2
					c0,0,0,0,0,0c0.3,0.2,0.7,0.4,1,0.4v0c0.1-0.4,0.3-0.8,0.4-1c0.4-0.5,0.9-0.3,1.5,0.1c0.1,0.1,0.2,0.2,0.3,0.3
					c0.1,0.1,0.3,0.3,0.4,0.5c0.2,0.3,0.5,0.7,0.7,1.1c0.2,0.4,0.4,0.8,0.5,1.2c0.1-0.2,0.2-0.4,0.3-0.5c0-0.1,0.1-0.1,0.2-0.2
					c0.6-0.6,1.4-0.1,2.6-0.1c0.1-0.1,0.1-0.3,0.2-0.4c0.2-0.4,0.4-0.6,0.7-0.8c0.7-0.5,1.6-0.4,2.4,0c0.4,0.2,0.9,0.5,1.3,0.7
					c0.3,0.2,0.5,0.3,0.8,0.4c0-0.6,0.5-2.2,1.1-2.8c0.1-0.1,0.3-0.2,0.4-0.2c0.2-0.1,0.4-0.2,0.5-0.4c0.2-0.2,0.3-0.3,0.4-0.5
					c0,0,0.1-0.1,0.1-0.2c0.1-0.2,0.1-0.5,0.2-0.7c0-0.1,0-0.2,0.1-0.3c0,0,0-0.1,0.1-0.1c0,0,0.1-0.1,0.2-0.1
					c2.3-1.5,3,1.5,3.8,1.5c1.5,0,3,0,4.6,1.5c0.2,0.2,0.4,0.4,0.7,0.5h0c0.2,0.1,0.4,0.1,0.5,0.1c0.8,0,1.3-0.9,1.8-1.4
					c4.7-1.8,4.9,2.9,6.8,3.2c0.2,0,0.4,0,0.7,0c0.1,0,0.2-0.1,0.4-0.1c0.4-0.2,0.8-0.4,1.2-0.8c0.5-0.5,1-0.9,1.4-1.1c0,0,0,0,0,0
					c0.4-0.3,0.9-0.4,1.3-0.5c0.5-0.1,1-0.1,1.5,0c1.6,0.3,2.7,1.4,3.2,1.6c0,0,0.1,0,0.1,0c0.9,0.3,1.6,0.6,2.4,0.7
					c1.3,0.3,2.4,0.3,3.3,0c0.2,0,0.4-0.1,0.7-0.2c1.4-0.5,2.5-1.4,3.4-2.1c0,0,0,0,0.1,0c0.1-0.1,0.3-0.2,0.4-0.3
					c0.4-0.3,0.8-0.5,1.2-0.6c1-0.4,2.2-0.2,3.8,1.1c0,0.1,0.1,0.1,0.2,0.1c0.1,0,0.4-0.1,0.7-0.2c0.1,0,0.2-0.1,0.3-0.1
					c0.3-0.1,0.7-0.3,1.1-0.3c0.9-0.1,2,0.1,3,1.4c1.1,1.8,2,2.5,2.8,2.7h0.1c0.1,0,0.2,0,0.3,0c1.6,0,2.7-2.2,4-2.6
					c0.1,0,0.2,0,0.2-0.1c0.1,0,0.1,0,0.2,0c0.3,0,0.6,0,0.9-0.1c0.3,0,0.5-0.1,0.7-0.1c0.4-0.1,0.7-0.2,1-0.4
					c0.4-0.2,0.7-0.4,0.9-0.6c1.4-1.1,2.1-2.5,2.9-2.8c0,0,0.1,0,0.1-0.1c0.6-0.2,1.4,0.2,2.5,1.8c0.8,0,1.5,0.8,1.5,1.5h2.3l0,0
					c0.3-0.3,0.6-0.5,1-0.5l0,0c0.4,0,0.8,0.1,1.3,0.6c0,0,0-0.1,0.1-0.1c0.5-0.8,0.9-1.2,1.2-1.2c0,0,0.1,0,0.2,0
					c1.2,0,1.7,3,2.3,3.6c-0.1-0.1-0.1-0.3-0.1-0.4c-0.1-0.6,0.4-1.1,1-1.3c0.1,0,0.2,0,0.2,0c0,0,0.1,0,0.2,0
					c0.7,0,1.4,0.5,1.7,1.7c0,0,0.1,0,0.1-0.1c0.7-0.3,1-0.5,1.3-0.5c0,0,0,0,0,0c0.3,0,0.4,0.2,0.8,0.6c1.5,0.8,2.3,1.5,3,2.3
					c0,0,0.1,0,0.1,0c0.5-0.1,0-1.4,1.9-1.4c0.1,0,0.1,0,0.2,0c0.7-1.3,1.3-1.5,1.9-1.5c0.1,0,0.3,0,0.4,0c0.4-1.6,1-2.3,1.6-2.4h0
					c0.5,0,1.1,0.5,1.4,1.6h1.5c0,0,0,0,0,0c0.1,0,0.6-0.2,1.1-0.2c0.3,0,0.5-0.1,0.8-0.1c0.4,0,0.9,0.1,1.1,0.3c0,0,0.1,0,0.1-0.1
					c1.5-0.6,2-2.6,3.2-2.9c0,0,0.1,0,0.1,0c0.1,0,0.1,0,0.2,0c0.4,0,0.9,0.2,1.6,0.7c0,0,0,0,0.1-0.1c0.4-0.3,1.8-1.3,3-1.6
					c0.1,0,0.1,0,0.1,0c0.1,0,0.2,0,0.3,0c0.8,0,1.5,0.4,1.8,1.7c0.8,0,2.3,0,3,3c0-0.1,0.1-0.1,0.2-0.2c0.4-0.5,0.7-0.7,1.1-0.7
					c0,0,0.1,0,0.1,0c1,0,1.7,1.6,1.7,3.2c0.1-0.1,0.1-0.1,0.2-0.2c0.2-0.1,0.4-0.2,0.7-0.1c0.4,0,0.9,0.3,1.4,0.3c0,0-0.1,0-0.1,0
					c-0.4-0.3,0-2.1,1-1.9c0,0,0,0,0,0c0.2,0,0.4,0.2,0.6,0.4c0,0,0.1-0.1,0.1-0.1c0.5-0.5,1-0.9,1.5-0.9h0c0.2,0,0.4,0.1,0.6,0.3
					h1.5c0.4-0.8,1-1.2,1.6-1.2c0.1,0,0.2,0,0.2,0c0.5,0,0.9,0.2,1.2,0.5c0-0.1,0-0.1,0.1-0.2c0.6-1.8,1.3-2.5,2-2.6
					c1.3-0.1,2.5,1.6,2.5,2c0-0.1,0.1-0.2,0.2-0.3c0.1-0.1,0.3-0.2,0.5-0.2c0.7,0,1.6,0.3,1.6,1.2c0.1-0.1,0.2-0.1,0.2-0.2
					c0.5-0.4,1-0.5,1.5-0.5C267.7,293.8,267.9,293.8,268,293.8z"/>
			</g>
		</g>
	</g>
	<path id="XMLID_237_" class="st6" d="M76.9,306.1c0,0,0.5-2.2,13.1-2.7s3.2,0,3.2,0s3.3-4.1,5.7-2c0,0,7.6-1.3,9-0.8l1.4-1.3
		l2.9,0.3c0,0,1.6-1,0.5-1.8l3.7-0.4h3.1h1.7h2.2l4.4,0.3l0.3-0.7l5.2,0.2c0,0,1.5-0.3,1.7-0.8s3.5-0.8,3.5-0.8l2.1-0.5
		c0,0,4.3-0.4,4.8-0.3c0,0,6.5-2.8,6.6-3.5c0,0,2.9,1.2,6.3,1.5l5.4,0.8l11.4,0.9l7.6,1c0,0,7.4,1,9.9,1.9L76.9,306.1z"/>
	<path id="XMLID_236_" class="st6" d="M310.6,305.3l-49.4-2.5c-0.3,0-0.7,0.2-0.9,0c-4.4-2.8-51.9-4.6-51.9-4.6s23.5-5,28.1-1.9
		c0,0,4.7-3,7-1.3l1.3,0.6l2,0.8h0.7v0.7l0.6,0.2c0,0,5-0.7,5.5,0.1l0.6-1.2c0,0,5.5-0.8,4.9,1.3c0,0,2.6-0.2,9.2,2.5l3.7,0.6
		c0,0,7.9-0.8,11.5,0.9C287.1,303,310.6,305.3,310.6,305.3z"/>
	<path id="XMLID_235_" class="st7" d="M310.6,305.3l-27.5-1.2c0,0-19.1,0.7-28.9-2.1l-17.6-1.5l-28.3-2.2c0,0,20.7,0.8,36,2.1
		c3.4,0.3,6.5,0.6,9.1,1c3.9,0.5,8.6,0.6,8.9,1.2L310.6,305.3z"/>
	<path id="XMLID_234_" class="st8" d="M341.7,314.2c0,0-124.1-0.3-124.9,1c-0.8,1.3-9.9-1.3-30.5,2.6c0,0-99.4-0.4-100.7-3.5
		l-14.9-1.9c0,0-11.6-1.8-13.4,0.3c0,0-22.4-2.6,0-7.3l4.9,0.2l14.6,0.7l115.7-8.8l15.9,0.9l28.3,2.2l17.6,1.5
		c9.8,2.8,28.9,2.1,28.9,2.1l27.5,1.2C310.6,305.3,364.6,311.5,341.7,314.2z"/>
	<path id="XMLID_233_" class="st9" d="M66.6,309.7c0,0-21.8,0.5-4.3-4.2l14.6,0.6l115.6-8.8l44.1,3.1c0,0,19.2,0.3,23.4,2.7
		l50.5,2.2c0,0,12.3,1.9,12.9,4.5c0,0,4.6,3.6-31.6,0c0,0-19.9,2.2-32.3,1.6c-12.4-0.6-46.4,1.7-52.8,1.5c0,0-35.2-1.5-55.8,1.4
		c0,0-36.8,1.4-43.5,0c-6.7-1.4-25.2-2.4-28-2.9C76.7,310.8,66.6,309.7,66.6,309.7z"/>
	<path id="XMLID_232_" class="st8" d="M91.5,305.3c0,0-1.7,3.2-7.1,3.9c0,0,25.2-3.2,26.2-2c0,0,5.4-1.6,10.8,2
		c0,0,11.3,1.7,13.3-1.1l11.7-0.6c0,0-6.7-0.3-9.6,2.2s17.7-0.5-9.5,4.1l17-1c0,0,27.3-8.2,29.1-4.2l14.1-0.4l20.3,3.1
		c0,0-12.2-4.2,3.8-3.6l44.5,1.3c0,0,9.7,2.1,15.1-2.8c0,0,20.2,3.6,27.4,2.4l-9-4l-27.3-2.3c0,0-3-1.8-53.8-4.1l-15.9-0.9
		L91.5,305.3z"/>
</g>
</svg>
