<svg id="Layer_1" data-name="Layer 1" xmlns="http://www.w3.org/2000/svg" xmlns:xlink="http://www.w3.org/1999/xlink" viewBox="0 0 339.35 185.91"><defs><style>.cls-1{fill:none;}.cls-2{fill:#f26c43;}.cls-3{clip-path:url(#clip-path);}.cls-4{fill:url(#linear-gradient);}.cls-5{clip-path:url(#clip-path-2);}.cls-6{fill:url(#linear-gradient-2);}.cls-7{fill:#f27253;}.cls-8{clip-path:url(#clip-path-3);}.cls-9{fill:url(#linear-gradient-3);}.cls-10{clip-path:url(#clip-path-4);}.cls-11{fill:url(#linear-gradient-4);}.cls-12{clip-path:url(#clip-path-5);}.cls-13{fill:url(#linear-gradient-5);}.cls-14{clip-path:url(#clip-path-6);}.cls-15{fill:url(#linear-gradient-6);}.cls-16{clip-path:url(#clip-path-7);}.cls-17{fill:url(#linear-gradient-7);}.cls-18{clip-path:url(#clip-path-8);}.cls-19{fill:url(#linear-gradient-8);}.cls-20{clip-path:url(#clip-path-9);}.cls-21{fill:url(#linear-gradient-9);}.cls-22{clip-path:url(#clip-path-10);}.cls-23{fill:url(#linear-gradient-10);}.cls-24{fill:#fff;}</style><clipPath id="clip-path" transform="translate(-10.65 -106.99)"><polygon class="cls-1" points="99.53 257.83 107.5 261.66 97.44 261.66 50 137.09 73.81 137.09 109.67 231.22 99.53 257.83"/></clipPath><linearGradient id="linear-gradient" x1="-95.92" y1="621.01" x2="-95.48" y2="621.01" gradientTransform="matrix(-132.95, -319.19, -319.19, 132.95, 185563.21, -113026.74)" gradientUnits="userSpaceOnUse"><stop offset="0" stop-color="#96442f"/><stop offset="0.05" stop-color="#96442f"/><stop offset="0.09" stop-color="#ad5038"/><stop offset="0.15" stop-color="#c65c42"/><stop offset="0.22" stop-color="#da6649"/><stop offset="0.3" stop-color="#e86d4f"/><stop offset="0.4" stop-color="#f07152"/><stop offset="0.58" stop-color="#f27253"/><stop offset="1" stop-color="#f27253"/></linearGradient><clipPath id="clip-path-2" transform="translate(-10.65 -106.99)"><polygon class="cls-1" points="226.13 137.66 178.71 262.23 167.04 262.23 175 258.39 165.67 233.91 166.33 232.18 202.32 137.66 226.13 137.66"/></clipPath><linearGradient id="linear-gradient-2" x1="-96.1" y1="621.37" x2="-95.66" y2="621.37" gradientTransform="matrix(125.16, -269.49, -269.49, -125.16, 179637.51, 52023.49)" gradientUnits="userSpaceOnUse"><stop offset="0" stop-color="#8f5b1a"/><stop offset="0.07" stop-color="#9c631e"/><stop offset="0.19" stop-color="#c07a29"/><stop offset="0.35" stop-color="#f89d3a"/><stop offset="1" stop-color="#f89d3a"/></linearGradient><clipPath id="clip-path-3" transform="translate(-10.65 -106.99)"><polygon class="cls-1" points="168.75 137.66 148.88 189.84 136.97 221.1 121.32 262.23 96.87 262.23 109.1 231.79 125.07 189.84 136.97 158.56 144.94 137.66 168.75 137.66"/></clipPath><linearGradient id="linear-gradient-3" x1="-95.48" y1="620.89" x2="-95.04" y2="620.89" gradientTransform="matrix(-119.47, 259.61, 259.61, 119.47, -172444.42, -49359.11)" xlink:href="#linear-gradient-2"/><clipPath id="clip-path-4" transform="translate(-10.65 -106.99)"><path class="cls-1" d="M197.63,222.93v8.86h-2.92v12.55h2.66v10.93c0,4.25,2.54,6.9,6.64,6.9h9V249.66H210.3v-11a8.5,8.5,0,0,0-.44-2.81h0V222.93Z"/></clipPath><linearGradient id="linear-gradient-4" x1="-96.74" y1="621.76" x2="-96.17" y2="621.76" gradientTransform="matrix(0, 113.34, 113.34, 0, -70274.81, 11068.36)" gradientUnits="userSpaceOnUse"><stop offset="0" stop-color="#fff23a"/><stop offset="0.04" stop-color="#fee62d"/><stop offset="0.12" stop-color="#fed41a"/><stop offset="0.2" stop-color="#fdc90f"/><stop offset="0.28" stop-color="#fdc60b"/><stop offset="0.67" stop-color="#f28f3f"/><stop offset="0.89" stop-color="#ed693c"/><stop offset="1" stop-color="#e83e39"/></linearGradient><clipPath id="clip-path-5" transform="translate(-10.65 -106.99)"><path class="cls-1" d="M229.72,231.79a6.59,6.59,0,0,0-6.76,4.7l-1.42,4.1-1.44-4.14a6.57,6.57,0,0,0-6.74-4.66h-6.89v12.55H209l6.56,17.83h11.66l6.56-17.83h2.59V231.79Z"/></clipPath><linearGradient id="linear-gradient-5" x1="-96.74" y1="621.64" x2="-96.17" y2="621.64" gradientTransform="matrix(0, 113.34, 113.34, 0, -70243.31, 11068.36)" xlink:href="#linear-gradient-4"/><clipPath id="clip-path-6" transform="translate(-10.65 -106.99)"><path class="cls-1" d="M247.46,231.79v14.26c0,.36-.06,3.35-2,3.71,0-.18,0-.41,0-.69V238.65c0-4.23-2.54-6.86-6.64-6.86h-8.95v12.55h2.67v5.88c0,7.93,4.12,12.48,11.31,12.48a12,12,0,0,0,6.34-1.78,7,7,0,0,0,4.13,1.25h8.78V249.66h-2.66V231.79Z"/></clipPath><linearGradient id="linear-gradient-6" x1="-96.74" y1="621.47" x2="-96.17" y2="621.47" gradientTransform="matrix(0, 113.34, 113.34, 0, -70198.56, 11068.36)" xlink:href="#linear-gradient-4"/><clipPath id="clip-path-7" transform="translate(-10.65 -106.99)"><path class="cls-1" d="M270,233a7,7,0,0,0-4.14-1.22H257v12.55h2.66v17.83h12.93V247.91a6.18,6.18,0,0,1,.23-1.79l0-.12a2.33,2.33,0,0,1,1.93-1.81c0,.18,0,.42,0,.71v10.37c0,4.25,2.56,6.9,6.68,6.9h9V249.66h-2.66v-5.92c0-7.81-4.26-12.48-11.4-12.48A12.13,12.13,0,0,0,270,233"/></clipPath><linearGradient id="linear-gradient-7" x1="-96.74" y1="621.28" x2="-96.17" y2="621.28" gradientTransform="matrix(0, 113.34, 113.34, 0, -70149.81, 11068.36)" xlink:href="#linear-gradient-4"/><clipPath id="clip-path-8" transform="translate(-10.65 -106.99)"><path class="cls-1" d="M287.42,222.93v8.86H284.5v12.55h2.66v10.93c0,4.25,2.54,6.9,6.63,6.9h8.95V249.66h-2.66v-11a8.5,8.5,0,0,0-.44-2.81h0V222.93Z"/></clipPath><linearGradient id="linear-gradient-8" x1="-96.74" y1="621.14" x2="-96.17" y2="621.14" gradientTransform="matrix(0, 113.34, 113.34, 0, -70114.12, 11068.36)" xlink:href="#linear-gradient-4"/><clipPath id="clip-path-9" transform="translate(-10.65 -106.99)"><path class="cls-1" d="M296.69,222.93v12.55h2.66v26.69h13v-3.63c1.81,3.18,4.21,3.63,6.54,3.63h7.79V249.66h-4.32l-1.82-3.56,9.31-14.31H314.67l-2.35,3.76v-6.17c0-1.94-.66-6.45-6.68-6.45Z"/></clipPath><linearGradient id="linear-gradient-9" x1="-96.74" y1="621" x2="-96.17" y2="621" gradientTransform="matrix(0, 113.34, 113.34, 0, -70079.06, 11068.36)" xlink:href="#linear-gradient-4"/><clipPath id="clip-path-10" transform="translate(-10.65 -106.99)"><path class="cls-1" d="M322.36,239.8V246a10,10,0,0,0-1.68,5.74,10.84,10.84,0,0,0,11.23,10.93,11.08,11.08,0,0,0,5.73-1.52,7.05,7.05,0,0,0,3.71,1H350V249.66h-2.66v-5.52c0-8.18-4.81-12.88-13.2-12.88-8.69,0-11.78,4.41-11.78,8.54"/></clipPath><linearGradient id="linear-gradient-10" x1="-96.74" y1="620.85" x2="-96.17" y2="620.85" gradientTransform="matrix(0, 113.34, 113.34, 0, -70039.56, 11068.36)" xlink:href="#linear-gradient-4"/></defs><title>wivunika</title><polygon class="cls-2" points="184.79 156.63 184.81 156.68 184.84 156.63 184.79 156.63"/><g class="cls-3"><polygon class="cls-4" points="48.17 178.47 0 48.52 90.19 6.31 138.36 136.26 48.17 178.47"/></g><g class="cls-5"><polygon class="cls-6" points="112.66 133.14 165.74 4.71 257.83 52.78 204.75 181.2 112.66 133.14"/></g><polygon class="cls-7" points="125.19 51.57 113.28 82.85 93.42 30.67 117.22 30.67 125.19 51.57"/><polygon class="cls-7" points="138.23 82.84 126.33 114.11 141.99 155.24 168.05 155.24 138.23 82.84"/><g class="cls-8"><polygon class="cls-9" points="200.2 52.45 145.53 185.91 44.12 133.47 98.78 0 200.2 52.45"/></g><polygon class="cls-7" points="157.13 30.67 133.15 30.67 166.24 94.46 176.61 67.24 157.13 30.67"/><g class="cls-10"><rect class="cls-11" x="184.06" y="115.94" width="18.25" height="39.24"/></g><g class="cls-12"><rect class="cls-13" x="195.82" y="124.8" width="29.92" height="30.37"/></g><g class="cls-14"><rect class="cls-15" x="219.21" y="124.8" width="33.23" height="30.9"/></g><g class="cls-16"><rect class="cls-17" x="246.38" y="124.27" width="33.44" height="30.9"/></g><g class="cls-18"><rect class="cls-19" x="273.85" y="115.94" width="18.25" height="39.24"/></g><g class="cls-20"><rect class="cls-21" x="286.04" y="115.94" width="33.13" height="39.24"/></g><g class="cls-22"><rect class="cls-23" x="310.03" y="124.27" width="29.32" height="31.44"/></g><path class="cls-24" d="M206.86,254.1c-.5,0-.69-.2-.68-.73l0-3.44c0-2.29,0-4.58-.06-6.87l0-3.43a4.68,4.68,0,0,0-.32-1.76,2.18,2.18,0,0,0-1.3-1.21,4.49,4.49,0,0,0-1.73-.22l-1.69,0-3.39.05h-.05v0l0,4.79v0h1.67a1.08,1.08,0,0,1,.78.21,1,1,0,0,1,.28.75,1,1,0,0,0-.28-.76,1.09,1.09,0,0,0-.78-.22h-1.63l0-4.72,3.34,0,1.69,0a4.33,4.33,0,0,1,1.62.24,1.88,1.88,0,0,1,1.09,1.07,4.36,4.36,0,0,1,.23,1.62l0,3.43c-.05,2.29,0,4.58-.06,6.87l0,3.44v.23a2.33,2.33,0,0,0,.05.28,1.26,1.26,0,0,0,.28.52,1.34,1.34,0,0,0,1,.37h1.38l0,4.13-2.69,0-1.48,0a12,12,0,0,1-1.47,0,2.56,2.56,0,0,1-1.3-.44,2,2,0,0,1-.72-1.15,5.84,5.84,0,0,1-.15-1.46l0-1.5c-.08-4-.08-8-.11-12.06,0,4,0,8-.11,12.06l0,1.5a6.19,6.19,0,0,0,.11,1.54,2.38,2.38,0,0,0,.81,1.36,2.88,2.88,0,0,0,1.47.55c.52.07,1,.05,1.51.07l1.48,0,3,0h.29v-.3l0-4.74v-.32h-2Z" transform="translate(-10.65 -106.99)"/><path class="cls-24" d="M205.41,233.23h.34v-.34c0-1.73,0-3.46-.09-5.19v-.26h-.24l-2.41.09c-.8.05-1.6.09-2.41.16.81.08,1.61.11,2.41.16l2.15.09c-.06,1.53-.07,3.07-.08,4.6-1.4,0-2.81,0-4.22.06l-.09-2.31c0-.87-.09-1.73-.17-2.6-.08.87-.11,1.73-.17,2.6l-.09,2.59v.26h.27c1.61.05,3.21.07,4.82.07" transform="translate(-10.65 -106.99)"/><path class="cls-24" d="M229.59,236.23a5.65,5.65,0,0,0-1.51.17,2.82,2.82,0,0,0-1.38.8,4.05,4.05,0,0,0-.79,1.35l-.48,1.38-1,2.74-1.9,5.48-.47,1.38c-.15.45-.33.91-.46,1.39-.2.69-.35,1.39-.49,2.08-.16-.7-.33-1.4-.56-2.09-.32-.93-.67-1.84-1-2.76l-2-5.51-1-2.76c-.17-.46-.33-.92-.51-1.37a3.4,3.4,0,0,0-.8-1.24,2.61,2.61,0,0,0-1.31-.64,7.08,7.08,0,0,0-1.45-.1h-2.93v0l0,4.79h0a3.49,3.49,0,0,1,1,.08,1.13,1.13,0,0,1,.69.71,1.15,1.15,0,0,0-.69-.72,3.45,3.45,0,0,0-1-.08l0-4.75h2.87a7.59,7.59,0,0,1,1.43.1,2.63,2.63,0,0,1,1.27.63,3.45,3.45,0,0,1,.76,1.21c.17.45.32.92.48,1.38l1,2.77,1.9,5.55c.32.93.64,1.85.95,2.78a24.56,24.56,0,0,1,.66,2.82l0,.18h.44l0-.17a28.58,28.58,0,0,1,.68-2.8c.13-.46.31-.9.47-1.36l.5-1.36,2-5.46,1-2.74.48-1.35a3.52,3.52,0,0,1,.66-1.14,3.14,3.14,0,0,1,2.43-.74h2.53l0,4.13h-.32a1.8,1.8,0,0,0-.74.19,1.42,1.42,0,0,0-.56.58c-.12.24-.17.43-.25.63l-.88,2.38-1.75,4.76L224.2,259l-6.43.06c-2.19-5.62-4.3-11.28-6.45-16.93,2.09,5.69,4.24,11.36,6.3,17.06l0,.07h.07l6.6.06h.11l0-.1,3.66-9.47,1.82-4.74.9-2.37c.16-.43.26-.75.53-.88a1.15,1.15,0,0,1,.46-.11h.94v-.31l0-4.79v-.34h-3.2Z" transform="translate(-10.65 -106.99)"/><path class="cls-24" d="M258.43,254.14c-.2,0-.44,0-.6,0a.66.66,0,0,1-.39-.16.56.56,0,0,1-.17-.37,5.8,5.8,0,0,1,0-.6v-1.27l0-5.05c0-3.38,0-6.75,0-10.12v-.33h-6.2v.32l0,6.1v3.05a16.44,16.44,0,0,1-.13,3,8.47,8.47,0,0,1-1,2.77,5.71,5.71,0,0,1-2,2.09l-.31.19-.33.15a4.23,4.23,0,0,1-.68.24,5.77,5.77,0,0,1-1.45.22,3,3,0,0,1-2.57-1,4.85,4.85,0,0,1-.84-2.77c0-1,0-2,0-3l-.05-6.1V240a6.54,6.54,0,0,0-.12-1.53,2.36,2.36,0,0,0-.74-1.33,2.72,2.72,0,0,0-1.41-.56c-.5-.06-1,0-1.5,0h-4.54v4.81h1.66a1.12,1.12,0,0,1,.78.21,1,1,0,0,1,.28.76,1,1,0,0,0-.27-.76,1.11,1.11,0,0,0-.79-.22h-1.64v-4.76H238a12.3,12.3,0,0,1,1.49,0,2.67,2.67,0,0,1,1.36.54,2.26,2.26,0,0,1,.7,1.28,6.89,6.89,0,0,1,.1,1.51v1.52l-.05,6.1c0,1,0,2,0,3.06a5.15,5.15,0,0,0,.87,3,2.83,2.83,0,0,0,1.3.91,4.79,4.79,0,0,0,1.55.2,6.24,6.24,0,0,0,1.53-.2,6.44,6.44,0,0,0,.74-.25l.36-.16.34-.2a6.24,6.24,0,0,0,2.18-2.21,9,9,0,0,0,1.07-2.93,16.94,16.94,0,0,0,.19-3.08v-3.05l0-5.78h4.92c0,3.26,0,6.52,0,9.79V253c0,.21,0,.41,0,.66a1.13,1.13,0,0,0,1.1,1.05c.26,0,.43,0,.65,0h1l0,4.2-2.53,0h-1.39c-.47,0-.93,0-1.38,0a3.4,3.4,0,0,1-1.26-.32,2,2,0,0,1-.86-.91,2.58,2.58,0,0,1-.17-.62,3.77,3.77,0,0,1,0-.68c0-.24,0-.46,0-.7l0-.7v-.17h-.37l0,.1a8.23,8.23,0,0,1-5.92,4.51,9.61,9.61,0,0,1-1.93.16c-.33,0-.65,0-1-.06a6.35,6.35,0,0,1-1-.14,7.62,7.62,0,0,1-.94-.24,7,7,0,0,1-.89-.37,5.91,5.91,0,0,1-1.57-1.14,6.62,6.62,0,0,1-1.1-1.62,9.29,9.29,0,0,1-.64-1.86l-.17-1-.1-1c0-.66-.05-1.32,0-2l0-7.93,0,7.93c0,.66,0,1.32,0,2l.09,1,.17,1a9.7,9.7,0,0,0,.64,1.88,6.55,6.55,0,0,0,1.1,1.64,6.15,6.15,0,0,0,1.59,1.18,7.19,7.19,0,0,0,.9.39,8.39,8.39,0,0,0,1,.26,10.91,10.91,0,0,0,2,.23,8.71,8.71,0,0,0,7.9-4.26v.18c0,.23,0,.48,0,.71a4.55,4.55,0,0,0,0,.73,2.35,2.35,0,0,0,.2.72,2.27,2.27,0,0,0,1,1.11,3.77,3.77,0,0,0,1.41.39c.48,0,1,0,1.41,0h1.39l2.78,0h.25v-.26l0-4.74v-.29h-1.53Z" transform="translate(-10.65 -106.99)"/><path class="cls-24" d="M287.9,254.44v-.31h-1.39a3.64,3.64,0,0,1-1,0c-.23-.08-.34-.28-.35-.6v-1.09l0-4.41c0-1.48,0-2.93-.06-4.43,0-.37-.08-.75-.13-1.12a10.7,10.7,0,0,0-.22-1.1,9,9,0,0,0-.82-2.1,6.15,6.15,0,0,0-3.39-2.82,9.54,9.54,0,0,0-2.17-.46,12.43,12.43,0,0,0-2.2,0,8.56,8.56,0,0,0-7,4.67,8,8,0,0,0,.06-1.29,4.29,4.29,0,0,0,0-.71,2.7,2.7,0,0,0-.18-.69,2.18,2.18,0,0,0-1-1,3.55,3.55,0,0,0-1.36-.35c-.46,0-.93,0-1.39,0h-4.2v4.82h1.67a1.1,1.1,0,0,1,.77.21,1,1,0,0,1,.29.76,1,1,0,0,0-.28-.76,1.09,1.09,0,0,0-.78-.22h-1.65l0-4.76h4.15c.46,0,.93,0,1.39,0A3.49,3.49,0,0,1,268,237a2,2,0,0,1,.91,1,3.11,3.11,0,0,1,.21,1.36,7.11,7.11,0,0,1-.1,1.39v.08h.21v0a8.7,8.7,0,0,1,2.88-3.2,8.45,8.45,0,0,1,4-1.35,11.07,11.07,0,0,1,2.15,0,8.71,8.71,0,0,1,2.08.47,6.38,6.38,0,0,1,1.82,1.06,6,6,0,0,1,1.33,1.64,8.1,8.1,0,0,1,.74,2c.1.34.13.71.2,1.06s.07.72.11,1.08c.05,1.44,0,2.93,0,4.4l0,4.41v1.11a1.42,1.42,0,0,0,.17.67,1,1,0,0,0,.56.48,1.73,1.73,0,0,0,.64.09h1.33v4.1h-4.22a10,10,0,0,1-1.47,0,2.35,2.35,0,0,1-1.22-.46,2,2,0,0,1-.62-1.12,6.89,6.89,0,0,1-.1-1.46v-1.53l0-6.13c0-1,0-2,0-3.08a5,5,0,0,0-1-3,3,3,0,0,0-1.4-.87,5,5,0,0,0-1.58-.17,6.32,6.32,0,0,0-3,.84,6.21,6.21,0,0,0-2.22,2.19,8.65,8.65,0,0,0-1.06,2.94,16.87,16.87,0,0,0-.13,3.09l0,3.06.05,6-5.37,0-.05-16.8-.05,16.85v.05h.05l5.51,0h.09v-.09l0-6.13,0-3.06a16,16,0,0,1,.18-3,8,8,0,0,1,1-2.77,5.73,5.73,0,0,1,4.88-2.74,3.08,3.08,0,0,1,2.54.89A4.59,4.59,0,0,1,279,245c0,1,0,2,0,3.05v7.66a7.35,7.35,0,0,0,.11,1.6,2.66,2.66,0,0,0,.83,1.5,3,3,0,0,0,1.57.62,11.73,11.73,0,0,0,1.55,0h4.86v-.32Z" transform="translate(-10.65 -106.99)"/><path class="cls-24" d="M298.42,254.1c-.51,0-.7-.2-.68-.73l0-3.44c0-2.29,0-4.58-.06-6.87l-.06-3.43a4.48,4.48,0,0,0-.31-1.76,2.2,2.2,0,0,0-1.31-1.21,4.44,4.44,0,0,0-1.72-.22l-1.7,0-3.39.05h-.05v0l0,4.79v0h1.68a1.06,1.06,0,0,1,.77.21.94.94,0,0,1,.28.75.94.94,0,0,0-.27-.76,1.09,1.09,0,0,0-.78-.22h-1.64l0-4.72,3.34,0,1.7,0a4.36,4.36,0,0,1,1.62.24A1.88,1.88,0,0,1,297,238a4.28,4.28,0,0,1,.24,1.61l-.06,3.43c0,2.29,0,4.58-.06,6.87l0,3.44a1.77,1.77,0,0,0,0,.23,2.36,2.36,0,0,0,0,.28,1.18,1.18,0,0,0,.29.52,1.32,1.32,0,0,0,1,.37h1.38l0,4.13-2.68,0-1.49,0a11.81,11.81,0,0,1-1.46,0,2.56,2.56,0,0,1-1.3-.44,2,2,0,0,1-.72-1.15,5.84,5.84,0,0,1-.16-1.46l0-1.5c-.08-4-.07-8-.11-12.06,0,4,0,8-.1,12.06l0,1.5a6.19,6.19,0,0,0,.11,1.54,2.36,2.36,0,0,0,.8,1.36,2.92,2.92,0,0,0,1.47.55c.53.07,1,.05,1.51.07l1.49,0,3,0h.29v-.3l0-4.74v-.32h-2Z" transform="translate(-10.65 -106.99)"/><path class="cls-24" d="M297,233.23h.34v-.34c0-1.73,0-3.46-.09-5.19v-.26H297l-2.4.09c-.81.05-1.61.09-2.41.16.8.08,1.6.11,2.41.16l2.14.09c-.05,1.53-.06,3.07-.07,4.6-1.41,0-2.82,0-4.23.06l-.08-2.31c-.06-.87-.09-1.73-.17-2.6-.08.87-.11,1.73-.17,2.6l-.1,2.59v.26h.28c1.6.05,3.21.07,4.81.07" transform="translate(-10.65 -106.99)"/><path class="cls-24" d="M318.44,246a15.71,15.71,0,0,0,.92-1.32l1.75-2.64,3.48-5.29.29-.45h-.52l-6.17,0h-.13l-.07.11-3.33,5.3-.83,1.33c-.14.21-.28.46-.41.64a1.62,1.62,0,0,1-.55.42,3.34,3.34,0,0,1-1.45.26H310l-.09-12v-1.52a7.79,7.79,0,0,0-.08-1.52,1.85,1.85,0,0,0-.79-1.28,3.21,3.21,0,0,0-1.45-.39c-.5,0-1,0-1.5,0h-4.52v4.81h1.67a1.11,1.11,0,0,1,.77.22,1,1,0,0,1,.28.76,1,1,0,0,0-.27-.77,1.09,1.09,0,0,0-.78-.21h-1.65v-4.75h4.48c.5,0,1,0,1.49,0a3,3,0,0,1,1.41.39,1.72,1.72,0,0,1,.75,1.22,8.33,8.33,0,0,1,.07,1.5v1.52l-.08,12.15v.15h1.7a3.66,3.66,0,0,0,1.59-.27,2,2,0,0,0,.68-.51c.18-.24.29-.44.44-.67L315,242l3.33-5.14,5.52,0-3.22,4.83-1.76,2.63a13.13,13.13,0,0,1-.9,1.27c-.16.19-.33.38-.5.55a3.27,3.27,0,0,1-.54.44l-.18.1v.48l.2.09a2.3,2.3,0,0,1,.48.36,3.5,3.5,0,0,1,.44.5,7.44,7.44,0,0,1,.71,1.2l1.33,2.57.67,1.29.34.65a1.83,1.83,0,0,0,.59.66,2,2,0,0,0,.81.26,4.9,4.9,0,0,0,.76,0h1.11v4.09H322c-.82,0-1.67,0-2.46,0a3.29,3.29,0,0,1-1.1-.27,2.27,2.27,0,0,1-.83-.72,21.73,21.73,0,0,1-1.21-2.14L314,251.28l-.6-1.11a1.9,1.9,0,0,0-.41-.57,1.59,1.59,0,0,0-.61-.36,3.7,3.7,0,0,0-1.3-.17h-1.46v.21l.07,9.75-5.32,0c-.07-8.54-.06-17.08-.1-25.61,0,8.57,0,17.14-.1,25.71v.1h.1l5.56,0H310v-.14l.07-9.67h1a3.34,3.34,0,0,1,1.15.15,1.48,1.48,0,0,1,.45.28,1.47,1.47,0,0,1,.3.45l.58,1.11,2.3,4.47.58,1.12a7.71,7.71,0,0,0,.67,1.12,3,3,0,0,0,1,.9,3.72,3.72,0,0,0,1.31.33c.87.06,1.68,0,2.51,0h2.8v-.32l0-4.74v-.33h-1.76a2.39,2.39,0,0,1-1.22-.21,1.09,1.09,0,0,1-.36-.42l-.33-.63-.67-1.28L319.14,249a7.83,7.83,0,0,0-.78-1.28,4,4,0,0,0-.51-.58l-.29-.25a2.21,2.21,0,0,0,.32-.29,6.42,6.42,0,0,0,.56-.61" transform="translate(-10.65 -106.99)"/><path class="cls-24" d="M348.3,254.1h-1.83a.57.57,0,0,1-.37-.13c-.19-.14-.19-.45-.18-.9v-1.25l0-5c0-.84,0-1.66,0-2.51a12.07,12.07,0,0,0-.37-2.53,8,8,0,0,0-1-2.37,6.54,6.54,0,0,0-1.78-1.85,9.29,9.29,0,0,0-1.09-.66,11.48,11.48,0,0,0-1.18-.46,8.86,8.86,0,0,0-1.23-.31,10.29,10.29,0,0,0-1.24-.18,10.49,10.49,0,0,0-1.24-.09c-.41,0-.83,0-1.25,0a17.23,17.23,0,0,0-2.47.25,10.6,10.6,0,0,0-2.4.68,5.42,5.42,0,0,0-2.07,1.44,3.61,3.61,0,0,0-.86,2.36c0,.85,0,1.67,0,2.51v.08h.08l5.17,0h0v-.8a2.56,2.56,0,0,1,0-.74,1.57,1.57,0,0,1,1.09-.91,6.83,6.83,0,0,1,2.95-.19,5.8,5.8,0,0,1,.72.17,3.19,3.19,0,0,1,.68.3,2.91,2.91,0,0,1,.58.47,3.2,3.2,0,0,1,.43.61,6.33,6.33,0,0,1,.54,3h0a6.51,6.51,0,0,0-.52-3,3.27,3.27,0,0,0-.43-.62,2.7,2.7,0,0,0-.59-.48,3.47,3.47,0,0,0-.68-.31,4.7,4.7,0,0,0-.74-.18,6,6,0,0,0-.74-.07c-.25,0-.5,0-.75,0a5.82,5.82,0,0,0-1.49.26,2.67,2.67,0,0,0-.68.33,1.28,1.28,0,0,0-.46.61,2.89,2.89,0,0,0-.06.77V243l-5,0c0-.8,0-1.62,0-2.4a3.32,3.32,0,0,1,.84-2.21,5.1,5.1,0,0,1,2-1.33,11.06,11.06,0,0,1,2.34-.62,19.9,19.9,0,0,1,2.43-.2c.41,0,.81,0,1.22,0a12,12,0,0,1,1.22.1,11.82,11.82,0,0,1,1.19.2,9.6,9.6,0,0,1,2.28.78,8.92,8.92,0,0,1,1,.63,6,6,0,0,1,1.6,1.74,7.38,7.38,0,0,1,.92,2.2,18.88,18.88,0,0,1,.34,4.89v6.25c0,.21,0,.39,0,.67a1.17,1.17,0,0,0,1.16,1H348l0,4.09H343.2a3.36,3.36,0,0,1-1.16-.2,2,2,0,0,1-.89-.64,2.08,2.08,0,0,1-.4-1.05c0-.09,0-.22,0-.28v-.33l0-.64v-.28h-.52l-.08.16a6.58,6.58,0,0,1-1.28,1.8,7.22,7.22,0,0,1-1.8,1.31,8,8,0,0,1-4.38.75,7.93,7.93,0,0,1-2.19-.51,6.8,6.8,0,0,1-2-1.11,6.38,6.38,0,0,1-1.49-1.7,6.46,6.46,0,0,1-.8-2.13,7.38,7.38,0,0,1-.08-2.3,5.71,5.71,0,0,1,.7-2.17,7.39,7.39,0,0,1,3.44-2.95,17.21,17.21,0,0,1,4.4-1.27,30.64,30.64,0,0,1,4.59-.35,30.61,30.61,0,0,0-4.59.32,16.59,16.59,0,0,0-4.43,1.24,7.48,7.48,0,0,0-3.5,3,6.29,6.29,0,0,0-.75,2.21,7.66,7.66,0,0,0,.05,2.34,6.84,6.84,0,0,0,.78,2.22,7,7,0,0,0,1.51,1.79,7.36,7.36,0,0,0,2,1.19,8.48,8.48,0,0,0,2.28.57,8.38,8.38,0,0,0,4.59-.71,7.23,7.23,0,0,0,1.94-1.36,7.65,7.65,0,0,0,1-1.16v.08c0,.14,0,.24,0,.36a2.55,2.55,0,0,0,.49,1.34,2.51,2.51,0,0,0,1.14.85,4,4,0,0,0,1.34.24h5.43v-.32l0-4.74v-.34Z" transform="translate(-10.65 -106.99)"/><path class="cls-24" d="M333.51,249.47a5.37,5.37,0,0,0-.84.53l-.37.35-.32.4c-.09.14-.15.3-.23.45a4,4,0,0,0-.15.49,2.73,2.73,0,0,0-.05.5,2,2,0,0,0,0,.49,3,3,0,0,0,.28.94A3,3,0,0,0,333.2,255a4.11,4.11,0,0,0,.9.29,4.9,4.9,0,0,0,.94.08,4.07,4.07,0,0,1-1.82-.41,2.61,2.61,0,0,1-1.23-1.35,3.17,3.17,0,0,1-.2-.89,4.14,4.14,0,0,1,.11-.91c.06-.14.09-.28.16-.41s.15-.26.24-.37l.3-.33.34-.27a6,6,0,0,1,.8-.41,7.72,7.72,0,0,1,.85-.29c.29-.08.59-.14.89-.2s.61-.1.91-.13c1.14-.14,2.28-.17,3.44-.2a7.48,7.48,0,0,1,0,.82,5.14,5.14,0,0,1-.06.55c0,.18-.06.36-.11.54a6.62,6.62,0,0,1-.36,1.06,6.24,6.24,0,0,1-.54,1,5.41,5.41,0,0,1-.7.88,3,3,0,0,1-.42.38,3.83,3.83,0,0,1-.46.33,4,4,0,0,1-.5.27,4.76,4.76,0,0,1-.53.19,4.9,4.9,0,0,1-.55.13l-.56,0,.56,0c.19,0,.38-.07.56-.12s.36-.1.54-.18.35-.15.51-.25a4.9,4.9,0,0,0,.48-.31c.15-.12.31-.23.45-.36a5.24,5.24,0,0,0,.79-.84,5.33,5.33,0,0,0,.64-1,6.81,6.81,0,0,0,.47-1.07c.07-.19.11-.38.17-.57s.07-.39.11-.59a9.51,9.51,0,0,0,.09-1.17v-.29h-.3a22,22,0,0,0-3.8.12,10.49,10.49,0,0,0-1.89.42,6,6,0,0,0-.91.37" transform="translate(-10.65 -106.99)"/><path d="M198,242a.86.86,0,0,0-1-1H195.3v-4.79h5.29c2.06,0,2.93.93,2.93,3v13.88a.89.89,0,0,0,1,1h1.75v4.74h-5.3c-2.05,0-2.93-.89-2.93-3Zm.26-14.63h4.82v5.19h-4.82Z" transform="translate(-10.65 -106.99)"/><path d="M209,241.82a1.16,1.16,0,0,0-1.23-.8h-.48v-4.79h3.19c1.84,0,2.72.58,3.29,2.13l4.2,11.88a24.91,24.91,0,0,1,.83,3.24h.09a31.29,31.29,0,0,1,.78-3.24l4.21-11.88c.57-1.55,1.49-2.13,3.28-2.13h3V241h-.53a1.16,1.16,0,0,0-1.23.8l-6.38,17h-6.61Z" transform="translate(-10.65 -106.99)"/><path d="M233.85,242a.86.86,0,0,0-1-1h-1.75v-4.79h5.3c2.05,0,2.93.93,2.93,3v10.42c0,2.75.7,4.61,3.46,4.61,4,0,6.25-3.59,6.25-7.62V236.23h5.56v16.89a.89.89,0,0,0,1,1h1.75v4.74h-5.12c-1.93,0-2.94-.93-2.94-2.53v-.62c0-.53,0-1,0-1h-.09a8.42,8.42,0,0,1-7.7,4.7c-4.77,0-7.71-2.44-7.71-8.6Z" transform="translate(-10.65 -106.99)"/><path d="M261.56,242a.86.86,0,0,0-1-1h-1.75v-4.79H264c2,0,2.94.93,2.94,2.53v.66a6.22,6.22,0,0,1-.09,1h.09a8.56,8.56,0,0,1,7.88-4.7c4.94,0,7.79,2.61,7.79,8.6v8.82a.88.88,0,0,0,1,1h1.75v4.74H280c-2.1,0-3-.89-3-3V245.45c0-2.75-.7-4.61-3.5-4.61a6.14,6.14,0,0,0-6,4.61,9.55,9.55,0,0,0-.44,3v10.37h-5.51Z" transform="translate(-10.65 -106.99)"/><path d="M289.56,242a.86.86,0,0,0-1-1h-1.75v-4.79h5.3c2.05,0,2.93.93,2.93,3v13.88a.88.88,0,0,0,1,1h1.75v4.74H292.5c-2.06,0-2.94-.89-2.94-3Zm.27-14.63h4.81v5.19h-4.81Z" transform="translate(-10.65 -106.99)"/><path d="M302,233.13a.86.86,0,0,0-1-1h-1.75v-4.79h5.3c2.05,0,3,.49,3,2.58v14.27h1.67a2.45,2.45,0,0,0,2.1-.84l4.55-7.14H322l-5.65,8.51a5.48,5.48,0,0,1-1.66,1.78v.09a3.67,3.67,0,0,1,1.58,1.77l2.53,4.88c.35.66.79.84,1.84.84h1.49v4.74h-4.11c-1.89,0-2.63-.31-3.5-1.95l-3.73-7.09a2.11,2.11,0,0,0-2.05-.85h-1.23v9.89H302Z" transform="translate(-10.65 -106.99)"/><path d="M337,244.65h.7v-.17c0-3.24-1.27-4.44-4.12-4.44-1,0-3,.27-3,1.51v1.2h-5.17v-2.4c0-4.21,5.87-4.65,8.19-4.65,7.44,0,9.63,3.94,9.63,9v8.42a.88.88,0,0,0,1,1H346v4.74h-5c-2.06,0-2.85-1.15-2.85-2.48a8.74,8.74,0,0,1,.05-1h-.09a7.27,7.27,0,0,1-6.74,4c-4,0-7.61-2.52-7.61-7.05,0-7.09,9.62-7.67,13.26-7.67M332.72,255c3,0,5.08-3.19,5.08-5.94v-.53h-1c-2.89,0-7.48.4-7.48,3.55,0,1.51,1.09,2.92,3.37,2.92" transform="translate(-10.65 -106.99)"/></svg>